M48
; DRILL file KiCad 10.0.6 date 2026-09-18T01:33:13
; FORMAT={-:-/ absolute / metric / decimal}
; #@! TF.CreationDate,2026-09-18T01:33:13+05:30
; #@! TF.GenerationSoftware,Kicad,Pcbnew,10.0.6
; #@! TF.FileFunction,Plated,1,2,PTH
FMAT,2
METRIC
; #@! TA.AperFunction,Plated,PTH,ViaDrill
T1C0.200
; #@! TA.AperFunction,Plated,PTH,ViaDrill
T2C0.300
; #@! TA.AperFunction,Plated,PTH,ComponentDrill
T3C0.600
; #@! TA.AperFunction,Plated,PTH,ComponentDrill
T4C0.650
; #@! TA.AperFunction,Plated,PTH,ComponentDrill
T5C0.700
; #@! TA.AperFunction,Plated,PTH,ComponentDrill
T6C0.800
; #@! TA.AperFunction,Plated,PTH,ComponentDrill
T7C0.900
; #@! TA.AperFunction,Plated,PTH,ComponentDrill
T8C0.950
; #@! TA.AperFunction,Plated,PTH,ComponentDrill
T9C1.000
; #@! TA.AperFunction,Plated,PTH,ComponentDrill
T10C1.200
%
G90
G05
T1
X206.412Y-63.85
X209.3Y-64.3
X210.25Y-61.75
T2
X190.6Y-47.1
X190.75Y-32.25
X191.3Y-52.65
X191.6Y-23.3
X191.7Y-74.2
X191.75Y-43.3
X191.8Y-71.15
X191.95Y-47.85
X192.25Y-32.05
X192.3Y-40.3
X193.623Y-29.439
X194.75Y-36.25
X195.5Y-40.25
X195.7Y-31.75
X195.8Y-74.7
X196.0Y-54.5
X196.25Y-53.519
X196.45Y-32.85
X196.75Y-51.25
X196.85Y-31.6
X196.92Y-47.825
X196.95Y-43.5
X196.956Y-46.008
X197.0Y-30.0
X197.4Y-75.05
X197.45Y-33.1
X197.5Y-25.5
X197.858Y-26.216
X197.903Y-63.332
X198.0Y-52.675
X198.131Y-58.333
X198.4Y-36.15
X198.75Y-30.0
X198.75Y-48.75
X198.863Y-57.408
X199.0Y-60.5
X199.1Y-49.5
X199.506Y-50.994
X199.6Y-70.35
X199.75Y-32.75
X199.75Y-45.3
X200.0Y-35.75
X200.0Y-49.5
X200.0Y-53.2
X200.0Y-73.7
X200.05Y-40.9
X200.675Y-59.625
X200.7Y-55.65
X200.734Y-53.65
X201.05Y-45.05
X201.15Y-58.05
X201.6Y-55.05
X201.85Y-40.65
X202.0Y-52.75
X202.25Y-36.45
X202.35Y-30.15
X202.35Y-75.4
X202.4Y-54.2
X202.5Y-52.0
X202.7Y-53.25
X202.75Y-33.0
X202.75Y-48.75
X202.75Y-60.45
X203.1Y-67.6
X203.55Y-62.6
X203.85Y-31.55
X203.909Y-58.702
X204.5Y-70.6
X204.519Y-53.373
X204.6Y-47.5
X204.6Y-69.4
X204.834Y-55.509
X204.852Y-58.75
X205.08Y-65.22
X205.2Y-30.85
X205.25Y-46.5
X205.3Y-60.0
X205.4Y-35.9
X206.0Y-49.837
X206.25Y-36.0
X206.25Y-41.75
X206.25Y-56.5
X206.3Y-51.9
X206.362Y-66.25
X206.396Y-65.351
X206.846Y-47.837
X206.9Y-31.55
X206.9Y-32.5
X207.3Y-68.2
X207.4Y-37.15
X207.4Y-75.2
X207.5Y-71.4
X207.662Y-55.5
X207.662Y-58.0
X207.7Y-63.7
X207.8Y-42.85
X207.8Y-54.1
X207.8Y-60.374
X208.1Y-35.5
X208.3Y-69.3
X208.637Y-72.25
X208.7Y-75.65
X208.8Y-37.0
X209.0Y-50.0
X209.1Y-70.5
X209.2Y-56.0
X209.2Y-66.125
X209.5Y-32.5
X209.5Y-38.5
X209.5Y-44.25
X209.5Y-30.059
X209.75Y-35.75
X209.974Y-63.521
X210.0Y-62.5
X210.1Y-60.1
X210.1Y-71.1
X210.287Y-60.973
X210.357Y-55.066
X210.5Y-41.5
X210.5Y-66.75
X210.57Y-47.104
X210.755Y-56.455
X210.996Y-73.171
X211.25Y-33.362
X212.0Y-68.175
X212.0Y-70.0
X212.25Y-39.4
X212.25Y-47.75
X212.5Y-50.0
X212.5Y-63.3
X212.55Y-61.95
X212.625Y-55.964
X213.036Y-58.064
X213.125Y-52.625
X213.25Y-62.8
X213.3Y-70.5
X214.0Y-48.5
X214.25Y-44.05
X214.35Y-63.75
X214.5Y-66.95
X214.5Y-68.25
X214.75Y-39.7
X215.25Y-55.05
X215.35Y-42.8
X215.4Y-67.15
X215.45Y-61.15
X216.05Y-55.7
X216.05Y-71.15
X216.1Y-73.35
X216.15Y-45.9
X216.25Y-53.25
X216.4Y-58.0
X216.5Y-69.5
X216.6Y-62.15
X216.65Y-60.7
X216.75Y-47.75
X217.0Y-50.75
X217.039Y-57.455
X217.25Y-67.0
X217.328Y-70.935
X217.647Y-56.737
X217.9Y-66.1
X218.0Y-58.25
X218.85Y-72.45
X219.25Y-65.25
X219.75Y-61.75
X219.862Y-69.5
X220.087Y-63.0
X220.087Y-64.5
X220.1Y-72.8
X220.45Y-71.45
X221.0Y-48.75
X221.0Y-66.0
X221.35Y-50.4
X221.4Y-71.45
X221.7Y-52.2
X221.75Y-58.75
X221.875Y-68.625
X222.1Y-52.95
X222.299Y-59.451
X222.3Y-55.7
X222.75Y-67.25
X222.95Y-64.6
X223.25Y-60.25
X223.5Y-57.5
X223.6Y-67.3
X223.75Y-52.25
X224.0Y-70.0
X224.05Y-60.2
X224.15Y-62.25
X224.25Y-58.0
X224.65Y-64.75
X225.5Y-62.4
X225.8Y-71.95
X226.0Y-59.2
X226.9Y-60.3
X227.784Y-59.317
X228.0Y-57.75
X228.0Y-62.887
X228.0Y-64.612
X228.25Y-52.25
X228.812Y-53.204
X229.236Y-56.079
X229.25Y-55.25
T4
X194.61Y-26.925
X200.39Y-26.925
T5
X190.5Y-44.5
X190.5Y-49.58
T6
X203.96Y-27.75
X206.5Y-27.75
X213.31Y-54.5
X218.19Y-54.5
X218.56Y-48.75
X223.44Y-48.75
T7
X190.5Y-34.0
X190.5Y-38.5
X192.5Y-34.0
X192.5Y-38.5
X194.5Y-34.0
X194.5Y-38.5
T8
X193.5Y-55.5
X193.5Y-58.0
X193.5Y-60.5
T9
X193.5Y-67.5
X193.5Y-70.0
X198.96Y-66.5
X198.96Y-69.04
X198.96Y-71.58
X201.5Y-66.5
X201.5Y-69.04
X201.5Y-71.58
T3
G00X193.18Y-23.675
M15
G01X193.18Y-22.875
M16
G05
G00X193.18Y-27.975
M15
G01X193.18Y-26.875
M16
G05
G00X201.82Y-23.675
M15
G01X201.82Y-22.875
M16
G05
G00X201.82Y-27.975
M15
G01X201.82Y-26.875
M16
G05
T10
G00X201.9Y-38.0
M15
G01X200.1Y-38.0
M16
G05
G00X201.9Y-42.7
M15
G01X200.1Y-42.7
M16
G05
G00X201.9Y-47.4
M15
G01X200.1Y-47.4
M16
G05
M30
