%TF.GenerationSoftware,KiCad,Pcbnew,10.0.6*%
%TF.CreationDate,2026-09-18T01:33:26+05:30*%
%TF.ProjectId,VoidLens PCB,566f6964-4c65-46e7-9320-5043422e6b69,rev?*%
%TF.SameCoordinates,Original*%
%TF.FileFunction,Soldermask,Bot*%
%TF.FilePolarity,Negative*%
%FSLAX46Y46*%
G04 Gerber Fmt 4.6, Leading zero omitted, Abs format (unit mm)*
G04 Created by KiCad (PCBNEW 10.0.6) date 2026-09-18 01:33:26*
%MOMM*%
%LPD*%
G01*
G04 APERTURE LIST*
G04 Aperture macros list*
%AMRoundRect*
0 Rectangle with rounded corners*
0 $1 Rounding radius*
0 $2 $3 $4 $5 $6 $7 $8 $9 X,Y pos of 4 corners*
0 Add a 4 corners polygon primitive as box body*
4,1,4,$2,$3,$4,$5,$6,$7,$8,$9,$2,$3,0*
0 Add four circle primitives for the rounded corners*
1,1,$1+$1,$2,$3*
1,1,$1+$1,$4,$5*
1,1,$1+$1,$6,$7*
1,1,$1+$1,$8,$9*
0 Add four rect primitives between the rounded corners*
20,1,$1+$1,$2,$3,$4,$5,0*
20,1,$1+$1,$4,$5,$6,$7,0*
20,1,$1+$1,$6,$7,$8,$9,0*
20,1,$1+$1,$8,$9,$2,$3,0*%
G04 Aperture macros list end*
%ADD10O,1.600000X1.600000*%
%ADD11C,1.600000*%
%ADD12RoundRect,0.250000X-0.725000X0.600000X-0.725000X-0.600000X0.725000X-0.600000X0.725000X0.600000X0*%
%ADD13O,1.950000X1.700000*%
%ADD14C,1.500000*%
%ADD15C,0.650000*%
%ADD16O,1.000000X2.100000*%
%ADD17O,1.000000X1.800000*%
%ADD18RoundRect,0.250000X-0.750000X0.600000X-0.750000X-0.600000X0.750000X-0.600000X0.750000X0.600000X0*%
%ADD19O,2.000000X1.700000*%
%ADD20O,4.000000X1.800000*%
%ADD21C,1.400000*%
%ADD22R,1.700000X1.700000*%
%ADD23C,1.700000*%
%ADD24RoundRect,0.237500X0.250000X0.237500X-0.250000X0.237500X-0.250000X-0.237500X0.250000X-0.237500X0*%
%ADD25R,0.675000X0.250000*%
%ADD26R,0.250000X0.675000*%
%ADD27RoundRect,0.237500X0.237500X-0.300000X0.237500X0.300000X-0.237500X0.300000X-0.237500X-0.300000X0*%
%ADD28RoundRect,0.237500X0.237500X-0.250000X0.237500X0.250000X-0.237500X0.250000X-0.237500X-0.250000X0*%
%ADD29RoundRect,0.160000X-0.160000X0.222500X-0.160000X-0.222500X0.160000X-0.222500X0.160000X0.222500X0*%
%ADD30R,1.100000X2.500000*%
%ADD31RoundRect,0.237500X0.300000X0.237500X-0.300000X0.237500X-0.300000X-0.237500X0.300000X-0.237500X0*%
%ADD32RoundRect,0.237500X-0.237500X0.300000X-0.237500X-0.300000X0.237500X-0.300000X0.237500X0.300000X0*%
%ADD33RoundRect,0.062500X-0.350000X-0.062500X0.350000X-0.062500X0.350000X0.062500X-0.350000X0.062500X0*%
%ADD34RoundRect,0.062500X-0.062500X-0.350000X0.062500X-0.350000X0.062500X0.350000X-0.062500X0.350000X0*%
%ADD35R,2.500000X2.500000*%
%ADD36RoundRect,0.250001X-0.462499X-0.849999X0.462499X-0.849999X0.462499X0.849999X-0.462499X0.849999X0*%
%ADD37RoundRect,0.250000X-0.275000X-0.350000X0.275000X-0.350000X0.275000X0.350000X-0.275000X0.350000X0*%
%ADD38RoundRect,0.237500X-0.250000X-0.237500X0.250000X-0.237500X0.250000X0.237500X-0.250000X0.237500X0*%
%ADD39RoundRect,0.237500X-0.237500X0.250000X-0.237500X-0.250000X0.237500X-0.250000X0.237500X0.250000X0*%
%ADD40R,1.100000X0.600000*%
%ADD41RoundRect,0.062500X0.375000X0.062500X-0.375000X0.062500X-0.375000X-0.062500X0.375000X-0.062500X0*%
%ADD42RoundRect,0.062500X0.062500X0.375000X-0.062500X0.375000X-0.062500X-0.375000X0.062500X-0.375000X0*%
%ADD43R,1.600000X1.600000*%
G04 APERTURE END LIST*
D10*
%TO.C,SW2*%
X190500000Y-38499800D03*
X192500000Y-38499800D03*
X194500000Y-38499800D03*
X190500000Y-34000000D03*
X192500000Y-34000000D03*
X194500000Y-34000000D03*
%TD*%
D11*
%TO.C,R23*%
X206500000Y-27750000D03*
X203960000Y-27750000D03*
%TD*%
D12*
%TO.C,J4*%
X193500000Y-55500000D03*
D13*
X193500000Y-58000000D03*
X193500000Y-60500000D03*
%TD*%
D14*
%TO.C,Y2*%
X218560000Y-48750000D03*
X223440000Y-48750000D03*
%TD*%
D15*
%TO.C,USB1*%
X200390000Y-26925000D03*
X194610000Y-26925000D03*
D16*
X201820000Y-27425000D03*
X193180000Y-27425000D03*
D17*
X201820000Y-23275000D03*
X193180000Y-23275000D03*
%TD*%
D18*
%TO.C,J2*%
X193500000Y-67500000D03*
D19*
X193500000Y-70000000D03*
%TD*%
D14*
%TO.C,Y1*%
X218190000Y-54500000D03*
X213310000Y-54500000D03*
%TD*%
D20*
%TO.C,SW1*%
X201000000Y-47400000D03*
X201000000Y-42700000D03*
X201000000Y-38000000D03*
%TD*%
D21*
%TO.C,TH1*%
X190500000Y-44500000D03*
X190500000Y-49580000D03*
%TD*%
D22*
%TO.C,J5*%
X201500000Y-71580000D03*
D23*
X198960000Y-71580000D03*
X201500000Y-69040000D03*
X198960000Y-69040000D03*
X201500000Y-66500000D03*
X198960000Y-66500000D03*
%TD*%
D24*
%TO.C,R26*%
X221912500Y-63000000D03*
X220087500Y-63000000D03*
%TD*%
D25*
%TO.C,IC1*%
X223250000Y-68000000D03*
X223250000Y-68500000D03*
X223250000Y-69000000D03*
X223250000Y-69500000D03*
D26*
X222487500Y-69762500D03*
X221987500Y-69762500D03*
X221487500Y-69762500D03*
D25*
X220725000Y-69500000D03*
X220725000Y-69000000D03*
X220725000Y-68500000D03*
X220725000Y-68000000D03*
D26*
X221487500Y-67737500D03*
X221987500Y-67737500D03*
X222487500Y-67737500D03*
%TD*%
D27*
%TO.C,C16*%
X218750000Y-46862500D03*
X218750000Y-45137500D03*
%TD*%
D28*
%TO.C,R18*%
X205250000Y-35912500D03*
X205250000Y-34087500D03*
%TD*%
D29*
%TO.C,L5*%
X228000000Y-61677500D03*
X228000000Y-62822500D03*
%TD*%
D24*
%TO.C,R19*%
X193575000Y-29500000D03*
X191750000Y-29500000D03*
%TD*%
D27*
%TO.C,C19*%
X208500000Y-40725000D03*
X208500000Y-39000000D03*
%TD*%
D24*
%TO.C,R7*%
X223162500Y-46500000D03*
X221337500Y-46500000D03*
%TD*%
D30*
%TO.C,SW5*%
X216750000Y-47750000D03*
X216750000Y-39250000D03*
X212250000Y-47750000D03*
X212250000Y-39250000D03*
%TD*%
D28*
%TO.C,R11*%
X198000000Y-54500000D03*
X198000000Y-52675000D03*
%TD*%
D31*
%TO.C,C20*%
X218112500Y-69500000D03*
X216387500Y-69500000D03*
%TD*%
D32*
%TO.C,C13*%
X228250000Y-50525000D03*
X228250000Y-52250000D03*
%TD*%
D33*
%TO.C,U3*%
X224312500Y-57062500D03*
X224312500Y-56562500D03*
X224312500Y-56062500D03*
X224312500Y-55562500D03*
X224312500Y-55062500D03*
D34*
X225250000Y-54125000D03*
X225750000Y-54125000D03*
X226250000Y-54125000D03*
X226750000Y-54125000D03*
X227250000Y-54125000D03*
D33*
X228187500Y-55062500D03*
X228187500Y-55562500D03*
X228187500Y-56062500D03*
X228187500Y-56562500D03*
X228187500Y-57062500D03*
D34*
X227250000Y-58000000D03*
X226750000Y-58000000D03*
X226250000Y-58000000D03*
X225750000Y-58000000D03*
X225250000Y-58000000D03*
D35*
X226250000Y-56062500D03*
%TD*%
D31*
%TO.C,C3*%
X216250000Y-53250000D03*
X214525000Y-53250000D03*
%TD*%
D36*
%TO.C,L2*%
X212337500Y-72500000D03*
X214662500Y-72500000D03*
%TD*%
D32*
%TO.C,C17*%
X228000000Y-64887500D03*
X228000000Y-66612500D03*
%TD*%
D37*
%TO.C,L1*%
X212150000Y-68250000D03*
X214450000Y-68250000D03*
%TD*%
D24*
%TO.C,R27*%
X221912500Y-64500000D03*
X220087500Y-64500000D03*
%TD*%
D27*
%TO.C,C6*%
X225000000Y-69612500D03*
X225000000Y-67887500D03*
%TD*%
D38*
%TO.C,R2*%
X195087500Y-30000000D03*
X196912500Y-30000000D03*
%TD*%
D27*
%TO.C,C15*%
X223500000Y-44750000D03*
X223500000Y-43025000D03*
%TD*%
D39*
%TO.C,R16*%
X205250000Y-59750000D03*
X205250000Y-61575000D03*
%TD*%
D40*
%TO.C,U6*%
X209000000Y-50000000D03*
X209000000Y-50950000D03*
X209000000Y-51900000D03*
X206300000Y-51900000D03*
X206300000Y-50950000D03*
X206300000Y-50000000D03*
%TD*%
D41*
%TO.C,U1*%
X202537500Y-50150000D03*
X202537500Y-50650000D03*
X202537500Y-51150000D03*
X202537500Y-51650000D03*
D42*
X201850000Y-52337500D03*
X201350000Y-52337500D03*
X200850000Y-52337500D03*
X200350000Y-52337500D03*
D41*
X199662500Y-51650000D03*
X199662500Y-51150000D03*
X199662500Y-50650000D03*
X199662500Y-50150000D03*
D42*
X200350000Y-49462500D03*
X200850000Y-49462500D03*
X201350000Y-49462500D03*
X201850000Y-49462500D03*
D43*
X201100000Y-50900000D03*
%TD*%
D31*
%TO.C,C7*%
X210362500Y-72250000D03*
X208637500Y-72250000D03*
%TD*%
D38*
%TO.C,R1*%
X198837500Y-30000000D03*
X200662500Y-30000000D03*
%TD*%
D27*
%TO.C,C11*%
X225000000Y-61225000D03*
X225000000Y-59500000D03*
%TD*%
D31*
%TO.C,C4*%
X216112500Y-51750000D03*
X214387500Y-51750000D03*
%TD*%
M02*
