%TF.GenerationSoftware,KiCad,Pcbnew,10.0.6*%
%TF.CreationDate,2026-09-18T01:33:26+05:30*%
%TF.ProjectId,VoidLens PCB,566f6964-4c65-46e7-9320-5043422e6b69,rev?*%
%TF.SameCoordinates,Original*%
%TF.FileFunction,Soldermask,Top*%
%TF.FilePolarity,Negative*%
%FSLAX46Y46*%
G04 Gerber Fmt 4.6, Leading zero omitted, Abs format (unit mm)*
G04 Created by KiCad (PCBNEW 10.0.6) date 2026-09-18 01:33:26*
%MOMM*%
%LPD*%
G01*
G04 APERTURE LIST*
G04 Aperture macros list*
%AMRoundRect*
0 Rectangle with rounded corners*
0 $1 Rounding radius*
0 $2 $3 $4 $5 $6 $7 $8 $9 X,Y pos of 4 corners*
0 Add a 4 corners polygon primitive as box body*
4,1,4,$2,$3,$4,$5,$6,$7,$8,$9,$2,$3,0*
0 Add four circle primitives for the rounded corners*
1,1,$1+$1,$2,$3*
1,1,$1+$1,$4,$5*
1,1,$1+$1,$6,$7*
1,1,$1+$1,$8,$9*
0 Add four rect primitives between the rounded corners*
20,1,$1+$1,$2,$3,$4,$5,0*
20,1,$1+$1,$4,$5,$6,$7,0*
20,1,$1+$1,$6,$7,$8,$9,0*
20,1,$1+$1,$8,$9,$2,$3,0*%
G04 Aperture macros list end*
%ADD10RoundRect,0.237500X-0.300000X-0.237500X0.300000X-0.237500X0.300000X0.237500X-0.300000X0.237500X0*%
%ADD11RoundRect,0.162500X-0.617500X-0.162500X0.617500X-0.162500X0.617500X0.162500X-0.617500X0.162500X0*%
%ADD12RoundRect,0.237500X-0.250000X-0.237500X0.250000X-0.237500X0.250000X0.237500X-0.250000X0.237500X0*%
%ADD13RoundRect,0.237500X-0.237500X0.250000X-0.237500X-0.250000X0.237500X-0.250000X0.237500X0.250000X0*%
%ADD14RoundRect,0.237500X0.250000X0.237500X-0.250000X0.237500X-0.250000X-0.237500X0.250000X-0.237500X0*%
%ADD15R,1.900000X2.500000*%
%ADD16RoundRect,0.237500X-0.237500X0.300000X-0.237500X-0.300000X0.237500X-0.300000X0.237500X0.300000X0*%
%ADD17RoundRect,0.237500X0.237500X-0.250000X0.237500X0.250000X-0.237500X0.250000X-0.237500X-0.250000X0*%
%ADD18RoundRect,0.062500X0.475000X0.062500X-0.475000X0.062500X-0.475000X-0.062500X0.475000X-0.062500X0*%
%ADD19RoundRect,0.062500X0.062500X0.475000X-0.062500X0.475000X-0.062500X-0.475000X0.062500X-0.475000X0*%
%ADD20R,5.200000X5.200000*%
%ADD21RoundRect,0.160000X-0.160000X0.222500X-0.160000X-0.222500X0.160000X-0.222500X0.160000X0.222500X0*%
%ADD22R,0.800000X0.800000*%
%ADD23RoundRect,0.237500X0.300000X0.237500X-0.300000X0.237500X-0.300000X-0.237500X0.300000X-0.237500X0*%
%ADD24R,1.100000X0.600000*%
%ADD25O,1.600000X1.600000*%
%ADD26RoundRect,0.250000X-1.050000X-0.550000X1.050000X-0.550000X1.050000X0.550000X-1.050000X0.550000X0*%
%ADD27C,1.600000*%
%ADD28RoundRect,0.250000X-0.725000X0.600000X-0.725000X-0.600000X0.725000X-0.600000X0.725000X0.600000X0*%
%ADD29O,1.950000X1.700000*%
%ADD30RoundRect,0.237500X0.237500X-0.300000X0.237500X0.300000X-0.237500X0.300000X-0.237500X-0.300000X0*%
%ADD31C,1.500000*%
%ADD32R,1.600000X1.400000*%
%ADD33C,0.650000*%
%ADD34O,1.000000X2.100000*%
%ADD35O,1.000000X1.800000*%
%ADD36R,0.600000X1.150000*%
%ADD37R,0.300000X1.150000*%
%ADD38RoundRect,0.450000X1.050000X-1.050000X1.050000X1.050000X-1.050000X1.050000X-1.050000X-1.050000X0*%
%ADD39R,5.000000X0.500000*%
%ADD40R,0.500000X2.640000*%
%ADD41R,2.000000X0.500000*%
%ADD42R,2.700000X0.500000*%
%ADD43R,0.500000X3.940000*%
%ADD44R,0.900000X4.900000*%
%ADD45R,0.500000X4.900000*%
%ADD46RoundRect,0.250000X-0.750000X0.600000X-0.750000X-0.600000X0.750000X-0.600000X0.750000X0.600000X0*%
%ADD47O,2.000000X1.700000*%
%ADD48RoundRect,0.100000X0.100000X-0.217500X0.100000X0.217500X-0.100000X0.217500X-0.100000X-0.217500X0*%
%ADD49O,4.000000X1.800000*%
%ADD50C,1.400000*%
%ADD51R,1.700000X1.700000*%
%ADD52C,1.700000*%
%ADD53RoundRect,0.087500X-0.487500X-0.087500X0.487500X-0.087500X0.487500X0.087500X-0.487500X0.087500X0*%
%ADD54RoundRect,0.050000X-0.675000X-0.050000X0.675000X-0.050000X0.675000X0.050000X-0.675000X0.050000X0*%
%ADD55RoundRect,0.062500X-0.162500X-0.062500X0.162500X-0.062500X0.162500X0.062500X-0.162500X0.062500X0*%
G04 APERTURE END LIST*
D10*
%TO.C,C12*%
X226437500Y-52000000D03*
X228162500Y-52000000D03*
%TD*%
D11*
%TO.C,PS1*%
X206050000Y-70500000D03*
X206050000Y-71450000D03*
X206050000Y-72400000D03*
X208750000Y-72400000D03*
X208750000Y-70500000D03*
%TD*%
D10*
%TO.C,C8*%
X218137500Y-69500000D03*
X219862500Y-69500000D03*
%TD*%
D12*
%TO.C,R22*%
X205837500Y-58000000D03*
X207662500Y-58000000D03*
%TD*%
D13*
%TO.C,R15*%
X209250000Y-48087500D03*
X209250000Y-49912500D03*
%TD*%
D14*
%TO.C,R13*%
X209000000Y-59500000D03*
X207175000Y-59500000D03*
%TD*%
D15*
%TO.C,L7*%
X205950000Y-41500000D03*
X210050000Y-41500000D03*
%TD*%
D10*
%TO.C,C25*%
X209387500Y-30000000D03*
X211112500Y-30000000D03*
%TD*%
D16*
%TO.C,C21*%
X207500000Y-50137500D03*
X207500000Y-51862500D03*
%TD*%
D17*
%TO.C,R12*%
X196750000Y-51075000D03*
X196750000Y-49250000D03*
%TD*%
D18*
%TO.C,U2*%
X218000000Y-65000000D03*
X218000000Y-64500000D03*
X218000000Y-64000000D03*
X218000000Y-63500000D03*
X218000000Y-63000000D03*
X218000000Y-62500000D03*
X218000000Y-62000000D03*
X218000000Y-61500000D03*
X218000000Y-61000000D03*
X218000000Y-60500000D03*
X218000000Y-60000000D03*
D19*
X217162500Y-59162500D03*
X216662500Y-59162500D03*
X216162500Y-59162500D03*
X215662500Y-59162500D03*
X215162500Y-59162500D03*
X214662500Y-59162500D03*
X214162500Y-59162500D03*
X213662500Y-59162500D03*
X213162500Y-59162500D03*
X212662500Y-59162500D03*
X212162500Y-59162500D03*
D18*
X211325000Y-60000000D03*
X211325000Y-60500000D03*
X211325000Y-61000000D03*
X211325000Y-61500000D03*
X211325000Y-62000000D03*
X211325000Y-62500000D03*
X211325000Y-63000000D03*
X211325000Y-63500000D03*
X211325000Y-64000000D03*
X211325000Y-64500000D03*
X211325000Y-65000000D03*
D19*
X212162500Y-65837500D03*
X212662500Y-65837500D03*
X213162500Y-65837500D03*
X213662500Y-65837500D03*
X214162500Y-65837500D03*
X214662500Y-65837500D03*
X215162500Y-65837500D03*
X215662500Y-65837500D03*
X216162500Y-65837500D03*
X216662500Y-65837500D03*
X217162500Y-65837500D03*
D20*
X214662500Y-62500000D03*
%TD*%
D21*
%TO.C,L4*%
X226750000Y-55000000D03*
X226750000Y-56145000D03*
%TD*%
D16*
%TO.C,C10*%
X223750000Y-52500000D03*
X223750000Y-54225000D03*
%TD*%
D17*
%TO.C,R17*%
X212000000Y-70000000D03*
X212000000Y-68175000D03*
%TD*%
D16*
%TO.C,C24*%
X214500000Y-68387500D03*
X214500000Y-70112500D03*
%TD*%
D22*
%TO.C,CHG_LED1*%
X190400000Y-23300000D03*
X191600000Y-23300000D03*
X191600000Y-24700000D03*
X190400000Y-24700000D03*
%TD*%
D23*
%TO.C,C23*%
X208362500Y-46250000D03*
X206637500Y-46250000D03*
%TD*%
D17*
%TO.C,R6*%
X227750000Y-61162500D03*
X227750000Y-59337500D03*
%TD*%
D24*
%TO.C,U7*%
X206900000Y-31550000D03*
X206900000Y-32500000D03*
X206900000Y-33450000D03*
X209600000Y-33450000D03*
X209600000Y-32500000D03*
X209600000Y-31550000D03*
%TD*%
D13*
%TO.C,R8*%
X211500000Y-35087500D03*
X211500000Y-36912500D03*
%TD*%
D23*
%TO.C,C9*%
X226112500Y-60250000D03*
X224387500Y-60250000D03*
%TD*%
D25*
%TO.C,SW2*%
X190500000Y-38499800D03*
X192500000Y-38499800D03*
X194500000Y-38499800D03*
X190500000Y-34000000D03*
X192500000Y-34000000D03*
X194500000Y-34000000D03*
%TD*%
D12*
%TO.C,R4*%
X217587500Y-68000000D03*
X219412500Y-68000000D03*
%TD*%
D26*
%TO.C,C22*%
X198900000Y-55500000D03*
X202500000Y-55500000D03*
%TD*%
D27*
%TO.C,R23*%
X206500000Y-27750000D03*
X203960000Y-27750000D03*
%TD*%
D17*
%TO.C,R14*%
X206000000Y-51662500D03*
X206000000Y-49837500D03*
%TD*%
D28*
%TO.C,J4*%
X193500000Y-55500000D03*
D29*
X193500000Y-58000000D03*
X193500000Y-60500000D03*
%TD*%
D30*
%TO.C,C18*%
X211250000Y-33362500D03*
X211250000Y-31637500D03*
%TD*%
D13*
%TO.C,R10*%
X193500000Y-29587500D03*
X193500000Y-31412500D03*
%TD*%
%TO.C,R25*%
X214250000Y-31837500D03*
X214250000Y-33662500D03*
%TD*%
D10*
%TO.C,C5*%
X222175000Y-62400000D03*
X223900000Y-62400000D03*
%TD*%
D31*
%TO.C,Y2*%
X218560000Y-48750000D03*
X223440000Y-48750000D03*
%TD*%
D32*
%TO.C,LED1*%
X207000000Y-65000000D03*
X207000000Y-61600000D03*
%TD*%
D33*
%TO.C,USB1*%
X200390000Y-26925000D03*
X194610000Y-26925000D03*
D34*
X201820000Y-27425000D03*
X193180000Y-27425000D03*
D35*
X201820000Y-23275000D03*
X193180000Y-23275000D03*
D36*
X200700000Y-27995000D03*
X199900000Y-27995000D03*
D37*
X198750000Y-27995000D03*
X197750000Y-27995000D03*
X197250000Y-27995000D03*
X196250000Y-27995000D03*
D36*
X194300000Y-27995000D03*
X195100000Y-27995000D03*
D37*
X195750000Y-27995000D03*
X196750000Y-27995000D03*
X198250000Y-27995000D03*
X199250000Y-27995000D03*
%TD*%
D26*
%TO.C,C1*%
X198900000Y-60500000D03*
X202500000Y-60500000D03*
%TD*%
D14*
%TO.C,R24*%
X203812500Y-31600000D03*
X201987500Y-31600000D03*
%TD*%
D38*
%TO.C,J1*%
X194000000Y-50000000D03*
X194000000Y-45000000D03*
%TD*%
D12*
%TO.C,R21*%
X205837500Y-55500000D03*
X207662500Y-55500000D03*
%TD*%
D13*
%TO.C,R3*%
X225750000Y-64087500D03*
X225750000Y-65912500D03*
%TD*%
D39*
%TO.C,U4*%
X206650000Y-80700000D03*
D40*
X204400000Y-79150000D03*
D41*
X203150000Y-78080000D03*
D40*
X201900000Y-79150000D03*
D42*
X200800000Y-80720000D03*
D40*
X199700000Y-79150000D03*
D41*
X198450000Y-78080000D03*
D40*
X197200000Y-79150000D03*
D42*
X196100000Y-80720000D03*
D43*
X195000000Y-78500000D03*
D44*
X208700000Y-78000000D03*
D45*
X206600000Y-78000000D03*
%TD*%
D46*
%TO.C,J2*%
X193500000Y-67500000D03*
D47*
X193500000Y-70000000D03*
%TD*%
D12*
%TO.C,R9*%
X213087500Y-37000000D03*
X214912500Y-37000000D03*
%TD*%
D16*
%TO.C,C14*%
X228000000Y-62887500D03*
X228000000Y-64612500D03*
%TD*%
D31*
%TO.C,Y1*%
X218190000Y-54500000D03*
X213310000Y-54500000D03*
%TD*%
D48*
%TO.C,L3*%
X228750000Y-54090000D03*
X228750000Y-53275000D03*
%TD*%
D49*
%TO.C,SW1*%
X201000000Y-47400000D03*
X201000000Y-42700000D03*
X201000000Y-38000000D03*
%TD*%
D50*
%TO.C,TH1*%
X190500000Y-44500000D03*
X190500000Y-49580000D03*
%TD*%
D13*
%TO.C,R20*%
X190000000Y-28250000D03*
X190000000Y-30075000D03*
%TD*%
D51*
%TO.C,J5*%
X201500000Y-71580000D03*
D52*
X198960000Y-71580000D03*
X201500000Y-69040000D03*
X198960000Y-69040000D03*
X201500000Y-66500000D03*
X198960000Y-66500000D03*
%TD*%
D53*
%TO.C,U5*%
X207400000Y-35500000D03*
D54*
X207550000Y-36050000D03*
D53*
X207400000Y-36600000D03*
D55*
X209000000Y-36800000D03*
X209000000Y-36300000D03*
X209000000Y-35800000D03*
X209000000Y-35300000D03*
%TD*%
D12*
%TO.C,R5*%
X221087500Y-66000000D03*
X222912500Y-66000000D03*
%TD*%
M02*
