%TF.GenerationSoftware,KiCad,Pcbnew,10.0.6*%
%TF.CreationDate,2026-09-18T01:33:26+05:30*%
%TF.ProjectId,VoidLens PCB,566f6964-4c65-46e7-9320-5043422e6b69,rev?*%
%TF.SameCoordinates,Original*%
%TF.FileFunction,Legend,Top*%
%TF.FilePolarity,Positive*%
%FSLAX46Y46*%
G04 Gerber Fmt 4.6, Leading zero omitted, Abs format (unit mm)*
G04 Created by KiCad (PCBNEW 10.0.6) date 2026-09-18 01:33:26*
%MOMM*%
%LPD*%
G01*
G04 APERTURE LIST*
%ADD10C,0.100000*%
%ADD11C,0.300000*%
%ADD12C,0.150000*%
%ADD13C,0.087500*%
%ADD14C,0.112500*%
%ADD15C,0.152400*%
%ADD16C,0.120000*%
%ADD17C,0.060000*%
%ADD18C,0.000000*%
%ADD19C,0.250000*%
%ADD20C,0.254000*%
G04 APERTURE END LIST*
D10*
X208506265Y-55896895D02*
X208506265Y-55096895D01*
X208506265Y-55096895D02*
X208696741Y-55096895D01*
X208696741Y-55096895D02*
X208811027Y-55134990D01*
X208811027Y-55134990D02*
X208887217Y-55211180D01*
X208887217Y-55211180D02*
X208925312Y-55287371D01*
X208925312Y-55287371D02*
X208963408Y-55439752D01*
X208963408Y-55439752D02*
X208963408Y-55554038D01*
X208963408Y-55554038D02*
X208925312Y-55706419D01*
X208925312Y-55706419D02*
X208887217Y-55782609D01*
X208887217Y-55782609D02*
X208811027Y-55858800D01*
X208811027Y-55858800D02*
X208696741Y-55896895D01*
X208696741Y-55896895D02*
X208506265Y-55896895D01*
X209306265Y-55896895D02*
X209306265Y-55363561D01*
X209306265Y-55096895D02*
X209268169Y-55134990D01*
X209268169Y-55134990D02*
X209306265Y-55173085D01*
X209306265Y-55173085D02*
X209344360Y-55134990D01*
X209344360Y-55134990D02*
X209306265Y-55096895D01*
X209306265Y-55096895D02*
X209306265Y-55173085D01*
X209649121Y-55858800D02*
X209725312Y-55896895D01*
X209725312Y-55896895D02*
X209877693Y-55896895D01*
X209877693Y-55896895D02*
X209953883Y-55858800D01*
X209953883Y-55858800D02*
X209991979Y-55782609D01*
X209991979Y-55782609D02*
X209991979Y-55744514D01*
X209991979Y-55744514D02*
X209953883Y-55668323D01*
X209953883Y-55668323D02*
X209877693Y-55630228D01*
X209877693Y-55630228D02*
X209763407Y-55630228D01*
X209763407Y-55630228D02*
X209687217Y-55592133D01*
X209687217Y-55592133D02*
X209649121Y-55515942D01*
X209649121Y-55515942D02*
X209649121Y-55477847D01*
X209649121Y-55477847D02*
X209687217Y-55401657D01*
X209687217Y-55401657D02*
X209763407Y-55363561D01*
X209763407Y-55363561D02*
X209877693Y-55363561D01*
X209877693Y-55363561D02*
X209953883Y-55401657D01*
X210677693Y-55896895D02*
X210677693Y-55477847D01*
X210677693Y-55477847D02*
X210639598Y-55401657D01*
X210639598Y-55401657D02*
X210563407Y-55363561D01*
X210563407Y-55363561D02*
X210411026Y-55363561D01*
X210411026Y-55363561D02*
X210334836Y-55401657D01*
X210677693Y-55858800D02*
X210601502Y-55896895D01*
X210601502Y-55896895D02*
X210411026Y-55896895D01*
X210411026Y-55896895D02*
X210334836Y-55858800D01*
X210334836Y-55858800D02*
X210296740Y-55782609D01*
X210296740Y-55782609D02*
X210296740Y-55706419D01*
X210296740Y-55706419D02*
X210334836Y-55630228D01*
X210334836Y-55630228D02*
X210411026Y-55592133D01*
X210411026Y-55592133D02*
X210601502Y-55592133D01*
X210601502Y-55592133D02*
X210677693Y-55554038D01*
X211058646Y-55896895D02*
X211058646Y-55096895D01*
X211058646Y-55401657D02*
X211134836Y-55363561D01*
X211134836Y-55363561D02*
X211287217Y-55363561D01*
X211287217Y-55363561D02*
X211363408Y-55401657D01*
X211363408Y-55401657D02*
X211401503Y-55439752D01*
X211401503Y-55439752D02*
X211439598Y-55515942D01*
X211439598Y-55515942D02*
X211439598Y-55744514D01*
X211439598Y-55744514D02*
X211401503Y-55820704D01*
X211401503Y-55820704D02*
X211363408Y-55858800D01*
X211363408Y-55858800D02*
X211287217Y-55896895D01*
X211287217Y-55896895D02*
X211134836Y-55896895D01*
X211134836Y-55896895D02*
X211058646Y-55858800D01*
X211896741Y-55896895D02*
X211820551Y-55858800D01*
X211820551Y-55858800D02*
X211782456Y-55782609D01*
X211782456Y-55782609D02*
X211782456Y-55096895D01*
X212506266Y-55858800D02*
X212430075Y-55896895D01*
X212430075Y-55896895D02*
X212277694Y-55896895D01*
X212277694Y-55896895D02*
X212201504Y-55858800D01*
X212201504Y-55858800D02*
X212163408Y-55782609D01*
X212163408Y-55782609D02*
X212163408Y-55477847D01*
X212163408Y-55477847D02*
X212201504Y-55401657D01*
X212201504Y-55401657D02*
X212277694Y-55363561D01*
X212277694Y-55363561D02*
X212430075Y-55363561D01*
X212430075Y-55363561D02*
X212506266Y-55401657D01*
X212506266Y-55401657D02*
X212544361Y-55477847D01*
X212544361Y-55477847D02*
X212544361Y-55554038D01*
X212544361Y-55554038D02*
X212163408Y-55630228D01*
X208756265Y-57877847D02*
X209022931Y-57877847D01*
X209137217Y-58296895D02*
X208756265Y-58296895D01*
X208756265Y-58296895D02*
X208756265Y-57496895D01*
X208756265Y-57496895D02*
X209137217Y-57496895D01*
X209480075Y-57763561D02*
X209480075Y-58296895D01*
X209480075Y-57839752D02*
X209518170Y-57801657D01*
X209518170Y-57801657D02*
X209594360Y-57763561D01*
X209594360Y-57763561D02*
X209708646Y-57763561D01*
X209708646Y-57763561D02*
X209784837Y-57801657D01*
X209784837Y-57801657D02*
X209822932Y-57877847D01*
X209822932Y-57877847D02*
X209822932Y-58296895D01*
X210546742Y-58296895D02*
X210546742Y-57877847D01*
X210546742Y-57877847D02*
X210508647Y-57801657D01*
X210508647Y-57801657D02*
X210432456Y-57763561D01*
X210432456Y-57763561D02*
X210280075Y-57763561D01*
X210280075Y-57763561D02*
X210203885Y-57801657D01*
X210546742Y-58258800D02*
X210470551Y-58296895D01*
X210470551Y-58296895D02*
X210280075Y-58296895D01*
X210280075Y-58296895D02*
X210203885Y-58258800D01*
X210203885Y-58258800D02*
X210165789Y-58182609D01*
X210165789Y-58182609D02*
X210165789Y-58106419D01*
X210165789Y-58106419D02*
X210203885Y-58030228D01*
X210203885Y-58030228D02*
X210280075Y-57992133D01*
X210280075Y-57992133D02*
X210470551Y-57992133D01*
X210470551Y-57992133D02*
X210546742Y-57954038D01*
X210927695Y-58296895D02*
X210927695Y-57496895D01*
X210927695Y-57801657D02*
X211003885Y-57763561D01*
X211003885Y-57763561D02*
X211156266Y-57763561D01*
X211156266Y-57763561D02*
X211232457Y-57801657D01*
X211232457Y-57801657D02*
X211270552Y-57839752D01*
X211270552Y-57839752D02*
X211308647Y-57915942D01*
X211308647Y-57915942D02*
X211308647Y-58144514D01*
X211308647Y-58144514D02*
X211270552Y-58220704D01*
X211270552Y-58220704D02*
X211232457Y-58258800D01*
X211232457Y-58258800D02*
X211156266Y-58296895D01*
X211156266Y-58296895D02*
X211003885Y-58296895D01*
X211003885Y-58296895D02*
X210927695Y-58258800D01*
X211765790Y-58296895D02*
X211689600Y-58258800D01*
X211689600Y-58258800D02*
X211651505Y-58182609D01*
X211651505Y-58182609D02*
X211651505Y-57496895D01*
X212375315Y-58258800D02*
X212299124Y-58296895D01*
X212299124Y-58296895D02*
X212146743Y-58296895D01*
X212146743Y-58296895D02*
X212070553Y-58258800D01*
X212070553Y-58258800D02*
X212032457Y-58182609D01*
X212032457Y-58182609D02*
X212032457Y-57877847D01*
X212032457Y-57877847D02*
X212070553Y-57801657D01*
X212070553Y-57801657D02*
X212146743Y-57763561D01*
X212146743Y-57763561D02*
X212299124Y-57763561D01*
X212299124Y-57763561D02*
X212375315Y-57801657D01*
X212375315Y-57801657D02*
X212413410Y-57877847D01*
X212413410Y-57877847D02*
X212413410Y-57954038D01*
X212413410Y-57954038D02*
X212032457Y-58030228D01*
X211008940Y-74786591D02*
X210627987Y-75053258D01*
X211008940Y-75243734D02*
X210208940Y-75243734D01*
X210208940Y-75243734D02*
X210208940Y-74938972D01*
X210208940Y-74938972D02*
X210247035Y-74862782D01*
X210247035Y-74862782D02*
X210285130Y-74824687D01*
X210285130Y-74824687D02*
X210361321Y-74786591D01*
X210361321Y-74786591D02*
X210475606Y-74786591D01*
X210475606Y-74786591D02*
X210551797Y-74824687D01*
X210551797Y-74824687D02*
X210589892Y-74862782D01*
X210589892Y-74862782D02*
X210627987Y-74938972D01*
X210627987Y-74938972D02*
X210627987Y-75243734D01*
X210970845Y-74138972D02*
X211008940Y-74215163D01*
X211008940Y-74215163D02*
X211008940Y-74367544D01*
X211008940Y-74367544D02*
X210970845Y-74443734D01*
X210970845Y-74443734D02*
X210894654Y-74481830D01*
X210894654Y-74481830D02*
X210589892Y-74481830D01*
X210589892Y-74481830D02*
X210513702Y-74443734D01*
X210513702Y-74443734D02*
X210475606Y-74367544D01*
X210475606Y-74367544D02*
X210475606Y-74215163D01*
X210475606Y-74215163D02*
X210513702Y-74138972D01*
X210513702Y-74138972D02*
X210589892Y-74100877D01*
X210589892Y-74100877D02*
X210666083Y-74100877D01*
X210666083Y-74100877D02*
X210742273Y-74481830D01*
X211008940Y-73758020D02*
X210475606Y-73758020D01*
X210551797Y-73758020D02*
X210513702Y-73719925D01*
X210513702Y-73719925D02*
X210475606Y-73643735D01*
X210475606Y-73643735D02*
X210475606Y-73529449D01*
X210475606Y-73529449D02*
X210513702Y-73453258D01*
X210513702Y-73453258D02*
X210589892Y-73415163D01*
X210589892Y-73415163D02*
X211008940Y-73415163D01*
X210589892Y-73415163D02*
X210513702Y-73377068D01*
X210513702Y-73377068D02*
X210475606Y-73300877D01*
X210475606Y-73300877D02*
X210475606Y-73186592D01*
X210475606Y-73186592D02*
X210513702Y-73110401D01*
X210513702Y-73110401D02*
X210589892Y-73072306D01*
X210589892Y-73072306D02*
X211008940Y-73072306D01*
X211008940Y-72577068D02*
X210970845Y-72653258D01*
X210970845Y-72653258D02*
X210932749Y-72691353D01*
X210932749Y-72691353D02*
X210856559Y-72729449D01*
X210856559Y-72729449D02*
X210627987Y-72729449D01*
X210627987Y-72729449D02*
X210551797Y-72691353D01*
X210551797Y-72691353D02*
X210513702Y-72653258D01*
X210513702Y-72653258D02*
X210475606Y-72577068D01*
X210475606Y-72577068D02*
X210475606Y-72462782D01*
X210475606Y-72462782D02*
X210513702Y-72386591D01*
X210513702Y-72386591D02*
X210551797Y-72348496D01*
X210551797Y-72348496D02*
X210627987Y-72310401D01*
X210627987Y-72310401D02*
X210856559Y-72310401D01*
X210856559Y-72310401D02*
X210932749Y-72348496D01*
X210932749Y-72348496D02*
X210970845Y-72386591D01*
X210970845Y-72386591D02*
X211008940Y-72462782D01*
X211008940Y-72462782D02*
X211008940Y-72577068D01*
X210475606Y-72043734D02*
X211008940Y-71853258D01*
X211008940Y-71853258D02*
X210475606Y-71662781D01*
X210970845Y-71053257D02*
X211008940Y-71129448D01*
X211008940Y-71129448D02*
X211008940Y-71281829D01*
X211008940Y-71281829D02*
X210970845Y-71358019D01*
X210970845Y-71358019D02*
X210894654Y-71396115D01*
X210894654Y-71396115D02*
X210589892Y-71396115D01*
X210589892Y-71396115D02*
X210513702Y-71358019D01*
X210513702Y-71358019D02*
X210475606Y-71281829D01*
X210475606Y-71281829D02*
X210475606Y-71129448D01*
X210475606Y-71129448D02*
X210513702Y-71053257D01*
X210513702Y-71053257D02*
X210589892Y-71015162D01*
X210589892Y-71015162D02*
X210666083Y-71015162D01*
X210666083Y-71015162D02*
X210742273Y-71396115D01*
X210475606Y-70138972D02*
X211008940Y-69986591D01*
X211008940Y-69986591D02*
X210627987Y-69834210D01*
X210627987Y-69834210D02*
X211008940Y-69681829D01*
X211008940Y-69681829D02*
X210475606Y-69529448D01*
X211008940Y-69224686D02*
X210208940Y-69224686D01*
X211008940Y-68881829D02*
X210589892Y-68881829D01*
X210589892Y-68881829D02*
X210513702Y-68919924D01*
X210513702Y-68919924D02*
X210475606Y-68996115D01*
X210475606Y-68996115D02*
X210475606Y-69110401D01*
X210475606Y-69110401D02*
X210513702Y-69186591D01*
X210513702Y-69186591D02*
X210551797Y-69224686D01*
X211008940Y-68500876D02*
X210475606Y-68500876D01*
X210208940Y-68500876D02*
X210247035Y-68538972D01*
X210247035Y-68538972D02*
X210285130Y-68500876D01*
X210285130Y-68500876D02*
X210247035Y-68462781D01*
X210247035Y-68462781D02*
X210208940Y-68500876D01*
X210208940Y-68500876D02*
X210285130Y-68500876D01*
X211008940Y-68005639D02*
X210970845Y-68081829D01*
X210970845Y-68081829D02*
X210894654Y-68119924D01*
X210894654Y-68119924D02*
X210208940Y-68119924D01*
X210970845Y-67396114D02*
X211008940Y-67472305D01*
X211008940Y-67472305D02*
X211008940Y-67624686D01*
X211008940Y-67624686D02*
X210970845Y-67700876D01*
X210970845Y-67700876D02*
X210894654Y-67738972D01*
X210894654Y-67738972D02*
X210589892Y-67738972D01*
X210589892Y-67738972D02*
X210513702Y-67700876D01*
X210513702Y-67700876D02*
X210475606Y-67624686D01*
X210475606Y-67624686D02*
X210475606Y-67472305D01*
X210475606Y-67472305D02*
X210513702Y-67396114D01*
X210513702Y-67396114D02*
X210589892Y-67358019D01*
X210589892Y-67358019D02*
X210666083Y-67358019D01*
X210666083Y-67358019D02*
X210742273Y-67738972D01*
X211763561Y-75358020D02*
X211763561Y-75053258D01*
X212296895Y-75243734D02*
X211611180Y-75243734D01*
X211611180Y-75243734D02*
X211534990Y-75205639D01*
X211534990Y-75205639D02*
X211496895Y-75129449D01*
X211496895Y-75129449D02*
X211496895Y-75053258D01*
X212296895Y-74672306D02*
X212258800Y-74748496D01*
X212258800Y-74748496D02*
X212182609Y-74786591D01*
X212182609Y-74786591D02*
X211496895Y-74786591D01*
X212296895Y-74024686D02*
X211877847Y-74024686D01*
X211877847Y-74024686D02*
X211801657Y-74062781D01*
X211801657Y-74062781D02*
X211763561Y-74138972D01*
X211763561Y-74138972D02*
X211763561Y-74291353D01*
X211763561Y-74291353D02*
X211801657Y-74367543D01*
X212258800Y-74024686D02*
X212296895Y-74100877D01*
X212296895Y-74100877D02*
X212296895Y-74291353D01*
X212296895Y-74291353D02*
X212258800Y-74367543D01*
X212258800Y-74367543D02*
X212182609Y-74405639D01*
X212182609Y-74405639D02*
X212106419Y-74405639D01*
X212106419Y-74405639D02*
X212030228Y-74367543D01*
X212030228Y-74367543D02*
X211992133Y-74291353D01*
X211992133Y-74291353D02*
X211992133Y-74100877D01*
X211992133Y-74100877D02*
X211954038Y-74024686D01*
X212258800Y-73681829D02*
X212296895Y-73605638D01*
X212296895Y-73605638D02*
X212296895Y-73453257D01*
X212296895Y-73453257D02*
X212258800Y-73377067D01*
X212258800Y-73377067D02*
X212182609Y-73338971D01*
X212182609Y-73338971D02*
X212144514Y-73338971D01*
X212144514Y-73338971D02*
X212068323Y-73377067D01*
X212068323Y-73377067D02*
X212030228Y-73453257D01*
X212030228Y-73453257D02*
X212030228Y-73567543D01*
X212030228Y-73567543D02*
X211992133Y-73643733D01*
X211992133Y-73643733D02*
X211915942Y-73681829D01*
X211915942Y-73681829D02*
X211877847Y-73681829D01*
X211877847Y-73681829D02*
X211801657Y-73643733D01*
X211801657Y-73643733D02*
X211763561Y-73567543D01*
X211763561Y-73567543D02*
X211763561Y-73453257D01*
X211763561Y-73453257D02*
X211801657Y-73377067D01*
X212296895Y-72996114D02*
X211496895Y-72996114D01*
X212296895Y-72653257D02*
X211877847Y-72653257D01*
X211877847Y-72653257D02*
X211801657Y-72691352D01*
X211801657Y-72691352D02*
X211763561Y-72767543D01*
X211763561Y-72767543D02*
X211763561Y-72881829D01*
X211763561Y-72881829D02*
X211801657Y-72958019D01*
X211801657Y-72958019D02*
X211839752Y-72996114D01*
X212296895Y-72272304D02*
X211763561Y-72272304D01*
X211496895Y-72272304D02*
X211534990Y-72310400D01*
X211534990Y-72310400D02*
X211573085Y-72272304D01*
X211573085Y-72272304D02*
X211534990Y-72234209D01*
X211534990Y-72234209D02*
X211496895Y-72272304D01*
X211496895Y-72272304D02*
X211573085Y-72272304D01*
X211763561Y-71891352D02*
X212296895Y-71891352D01*
X211839752Y-71891352D02*
X211801657Y-71853257D01*
X211801657Y-71853257D02*
X211763561Y-71777067D01*
X211763561Y-71777067D02*
X211763561Y-71662781D01*
X211763561Y-71662781D02*
X211801657Y-71586590D01*
X211801657Y-71586590D02*
X211877847Y-71548495D01*
X211877847Y-71548495D02*
X212296895Y-71548495D01*
X211763561Y-70824685D02*
X212411180Y-70824685D01*
X212411180Y-70824685D02*
X212487371Y-70862780D01*
X212487371Y-70862780D02*
X212525466Y-70900876D01*
X212525466Y-70900876D02*
X212563561Y-70977066D01*
X212563561Y-70977066D02*
X212563561Y-71091352D01*
X212563561Y-71091352D02*
X212525466Y-71167542D01*
X212258800Y-70824685D02*
X212296895Y-70900876D01*
X212296895Y-70900876D02*
X212296895Y-71053257D01*
X212296895Y-71053257D02*
X212258800Y-71129447D01*
X212258800Y-71129447D02*
X212220704Y-71167542D01*
X212220704Y-71167542D02*
X212144514Y-71205638D01*
X212144514Y-71205638D02*
X211915942Y-71205638D01*
X211915942Y-71205638D02*
X211839752Y-71167542D01*
X211839752Y-71167542D02*
X211801657Y-71129447D01*
X211801657Y-71129447D02*
X211763561Y-71053257D01*
X211763561Y-71053257D02*
X211763561Y-70900876D01*
X211763561Y-70900876D02*
X211801657Y-70824685D01*
D11*
X191729400Y-51095489D02*
X191729400Y-49952632D01*
X192300828Y-50524060D02*
X191157971Y-50524060D01*
X191929400Y-45495489D02*
X191929400Y-44352632D01*
D10*
X226785714Y-51288704D02*
X226747618Y-51326800D01*
X226747618Y-51326800D02*
X226633333Y-51364895D01*
X226633333Y-51364895D02*
X226557142Y-51364895D01*
X226557142Y-51364895D02*
X226442856Y-51326800D01*
X226442856Y-51326800D02*
X226366666Y-51250609D01*
X226366666Y-51250609D02*
X226328571Y-51174419D01*
X226328571Y-51174419D02*
X226290475Y-51022038D01*
X226290475Y-51022038D02*
X226290475Y-50907752D01*
X226290475Y-50907752D02*
X226328571Y-50755371D01*
X226328571Y-50755371D02*
X226366666Y-50679180D01*
X226366666Y-50679180D02*
X226442856Y-50602990D01*
X226442856Y-50602990D02*
X226557142Y-50564895D01*
X226557142Y-50564895D02*
X226633333Y-50564895D01*
X226633333Y-50564895D02*
X226747618Y-50602990D01*
X226747618Y-50602990D02*
X226785714Y-50641085D01*
X227547618Y-51364895D02*
X227090475Y-51364895D01*
X227319047Y-51364895D02*
X227319047Y-50564895D01*
X227319047Y-50564895D02*
X227242856Y-50679180D01*
X227242856Y-50679180D02*
X227166666Y-50755371D01*
X227166666Y-50755371D02*
X227090475Y-50793466D01*
X227852380Y-50641085D02*
X227890476Y-50602990D01*
X227890476Y-50602990D02*
X227966666Y-50564895D01*
X227966666Y-50564895D02*
X228157142Y-50564895D01*
X228157142Y-50564895D02*
X228233333Y-50602990D01*
X228233333Y-50602990D02*
X228271428Y-50641085D01*
X228271428Y-50641085D02*
X228309523Y-50717276D01*
X228309523Y-50717276D02*
X228309523Y-50793466D01*
X228309523Y-50793466D02*
X228271428Y-50907752D01*
X228271428Y-50907752D02*
X227814285Y-51364895D01*
X227814285Y-51364895D02*
X228309523Y-51364895D01*
D12*
X207954819Y-72614285D02*
X206954819Y-72614285D01*
X206954819Y-72614285D02*
X206954819Y-72233333D01*
X206954819Y-72233333D02*
X207002438Y-72138095D01*
X207002438Y-72138095D02*
X207050057Y-72090476D01*
X207050057Y-72090476D02*
X207145295Y-72042857D01*
X207145295Y-72042857D02*
X207288152Y-72042857D01*
X207288152Y-72042857D02*
X207383390Y-72090476D01*
X207383390Y-72090476D02*
X207431009Y-72138095D01*
X207431009Y-72138095D02*
X207478628Y-72233333D01*
X207478628Y-72233333D02*
X207478628Y-72614285D01*
X207907200Y-71661904D02*
X207954819Y-71519047D01*
X207954819Y-71519047D02*
X207954819Y-71280952D01*
X207954819Y-71280952D02*
X207907200Y-71185714D01*
X207907200Y-71185714D02*
X207859580Y-71138095D01*
X207859580Y-71138095D02*
X207764342Y-71090476D01*
X207764342Y-71090476D02*
X207669104Y-71090476D01*
X207669104Y-71090476D02*
X207573866Y-71138095D01*
X207573866Y-71138095D02*
X207526247Y-71185714D01*
X207526247Y-71185714D02*
X207478628Y-71280952D01*
X207478628Y-71280952D02*
X207431009Y-71471428D01*
X207431009Y-71471428D02*
X207383390Y-71566666D01*
X207383390Y-71566666D02*
X207335771Y-71614285D01*
X207335771Y-71614285D02*
X207240533Y-71661904D01*
X207240533Y-71661904D02*
X207145295Y-71661904D01*
X207145295Y-71661904D02*
X207050057Y-71614285D01*
X207050057Y-71614285D02*
X207002438Y-71566666D01*
X207002438Y-71566666D02*
X206954819Y-71471428D01*
X206954819Y-71471428D02*
X206954819Y-71233333D01*
X206954819Y-71233333D02*
X207002438Y-71090476D01*
X207954819Y-70138095D02*
X207954819Y-70709523D01*
X207954819Y-70423809D02*
X206954819Y-70423809D01*
X206954819Y-70423809D02*
X207097676Y-70519047D01*
X207097676Y-70519047D02*
X207192914Y-70614285D01*
X207192914Y-70614285D02*
X207240533Y-70709523D01*
X218583333Y-70859580D02*
X218535714Y-70907200D01*
X218535714Y-70907200D02*
X218392857Y-70954819D01*
X218392857Y-70954819D02*
X218297619Y-70954819D01*
X218297619Y-70954819D02*
X218154762Y-70907200D01*
X218154762Y-70907200D02*
X218059524Y-70811961D01*
X218059524Y-70811961D02*
X218011905Y-70716723D01*
X218011905Y-70716723D02*
X217964286Y-70526247D01*
X217964286Y-70526247D02*
X217964286Y-70383390D01*
X217964286Y-70383390D02*
X218011905Y-70192914D01*
X218011905Y-70192914D02*
X218059524Y-70097676D01*
X218059524Y-70097676D02*
X218154762Y-70002438D01*
X218154762Y-70002438D02*
X218297619Y-69954819D01*
X218297619Y-69954819D02*
X218392857Y-69954819D01*
X218392857Y-69954819D02*
X218535714Y-70002438D01*
X218535714Y-70002438D02*
X218583333Y-70050057D01*
X219154762Y-70383390D02*
X219059524Y-70335771D01*
X219059524Y-70335771D02*
X219011905Y-70288152D01*
X219011905Y-70288152D02*
X218964286Y-70192914D01*
X218964286Y-70192914D02*
X218964286Y-70145295D01*
X218964286Y-70145295D02*
X219011905Y-70050057D01*
X219011905Y-70050057D02*
X219059524Y-70002438D01*
X219059524Y-70002438D02*
X219154762Y-69954819D01*
X219154762Y-69954819D02*
X219345238Y-69954819D01*
X219345238Y-69954819D02*
X219440476Y-70002438D01*
X219440476Y-70002438D02*
X219488095Y-70050057D01*
X219488095Y-70050057D02*
X219535714Y-70145295D01*
X219535714Y-70145295D02*
X219535714Y-70192914D01*
X219535714Y-70192914D02*
X219488095Y-70288152D01*
X219488095Y-70288152D02*
X219440476Y-70335771D01*
X219440476Y-70335771D02*
X219345238Y-70383390D01*
X219345238Y-70383390D02*
X219154762Y-70383390D01*
X219154762Y-70383390D02*
X219059524Y-70431009D01*
X219059524Y-70431009D02*
X219011905Y-70478628D01*
X219011905Y-70478628D02*
X218964286Y-70573866D01*
X218964286Y-70573866D02*
X218964286Y-70764342D01*
X218964286Y-70764342D02*
X219011905Y-70859580D01*
X219011905Y-70859580D02*
X219059524Y-70907200D01*
X219059524Y-70907200D02*
X219154762Y-70954819D01*
X219154762Y-70954819D02*
X219345238Y-70954819D01*
X219345238Y-70954819D02*
X219440476Y-70907200D01*
X219440476Y-70907200D02*
X219488095Y-70859580D01*
X219488095Y-70859580D02*
X219535714Y-70764342D01*
X219535714Y-70764342D02*
X219535714Y-70573866D01*
X219535714Y-70573866D02*
X219488095Y-70478628D01*
X219488095Y-70478628D02*
X219440476Y-70431009D01*
X219440476Y-70431009D02*
X219345238Y-70383390D01*
X205107142Y-59454819D02*
X204773809Y-58978628D01*
X204535714Y-59454819D02*
X204535714Y-58454819D01*
X204535714Y-58454819D02*
X204916666Y-58454819D01*
X204916666Y-58454819D02*
X205011904Y-58502438D01*
X205011904Y-58502438D02*
X205059523Y-58550057D01*
X205059523Y-58550057D02*
X205107142Y-58645295D01*
X205107142Y-58645295D02*
X205107142Y-58788152D01*
X205107142Y-58788152D02*
X205059523Y-58883390D01*
X205059523Y-58883390D02*
X205011904Y-58931009D01*
X205011904Y-58931009D02*
X204916666Y-58978628D01*
X204916666Y-58978628D02*
X204535714Y-58978628D01*
X205488095Y-58550057D02*
X205535714Y-58502438D01*
X205535714Y-58502438D02*
X205630952Y-58454819D01*
X205630952Y-58454819D02*
X205869047Y-58454819D01*
X205869047Y-58454819D02*
X205964285Y-58502438D01*
X205964285Y-58502438D02*
X206011904Y-58550057D01*
X206011904Y-58550057D02*
X206059523Y-58645295D01*
X206059523Y-58645295D02*
X206059523Y-58740533D01*
X206059523Y-58740533D02*
X206011904Y-58883390D01*
X206011904Y-58883390D02*
X205440476Y-59454819D01*
X205440476Y-59454819D02*
X206059523Y-59454819D01*
X206440476Y-58550057D02*
X206488095Y-58502438D01*
X206488095Y-58502438D02*
X206583333Y-58454819D01*
X206583333Y-58454819D02*
X206821428Y-58454819D01*
X206821428Y-58454819D02*
X206916666Y-58502438D01*
X206916666Y-58502438D02*
X206964285Y-58550057D01*
X206964285Y-58550057D02*
X207011904Y-58645295D01*
X207011904Y-58645295D02*
X207011904Y-58740533D01*
X207011904Y-58740533D02*
X206964285Y-58883390D01*
X206964285Y-58883390D02*
X206392857Y-59454819D01*
X206392857Y-59454819D02*
X207011904Y-59454819D01*
X211134819Y-49642857D02*
X210658628Y-49976190D01*
X211134819Y-50214285D02*
X210134819Y-50214285D01*
X210134819Y-50214285D02*
X210134819Y-49833333D01*
X210134819Y-49833333D02*
X210182438Y-49738095D01*
X210182438Y-49738095D02*
X210230057Y-49690476D01*
X210230057Y-49690476D02*
X210325295Y-49642857D01*
X210325295Y-49642857D02*
X210468152Y-49642857D01*
X210468152Y-49642857D02*
X210563390Y-49690476D01*
X210563390Y-49690476D02*
X210611009Y-49738095D01*
X210611009Y-49738095D02*
X210658628Y-49833333D01*
X210658628Y-49833333D02*
X210658628Y-50214285D01*
X211134819Y-48690476D02*
X211134819Y-49261904D01*
X211134819Y-48976190D02*
X210134819Y-48976190D01*
X210134819Y-48976190D02*
X210277676Y-49071428D01*
X210277676Y-49071428D02*
X210372914Y-49166666D01*
X210372914Y-49166666D02*
X210420533Y-49261904D01*
X210134819Y-47785714D02*
X210134819Y-48261904D01*
X210134819Y-48261904D02*
X210611009Y-48309523D01*
X210611009Y-48309523D02*
X210563390Y-48261904D01*
X210563390Y-48261904D02*
X210515771Y-48166666D01*
X210515771Y-48166666D02*
X210515771Y-47928571D01*
X210515771Y-47928571D02*
X210563390Y-47833333D01*
X210563390Y-47833333D02*
X210611009Y-47785714D01*
X210611009Y-47785714D02*
X210706247Y-47738095D01*
X210706247Y-47738095D02*
X210944342Y-47738095D01*
X210944342Y-47738095D02*
X211039580Y-47785714D01*
X211039580Y-47785714D02*
X211087200Y-47833333D01*
X211087200Y-47833333D02*
X211134819Y-47928571D01*
X211134819Y-47928571D02*
X211134819Y-48166666D01*
X211134819Y-48166666D02*
X211087200Y-48261904D01*
X211087200Y-48261904D02*
X211039580Y-48309523D01*
D10*
X208235714Y-60864895D02*
X207969047Y-60483942D01*
X207778571Y-60864895D02*
X207778571Y-60064895D01*
X207778571Y-60064895D02*
X208083333Y-60064895D01*
X208083333Y-60064895D02*
X208159523Y-60102990D01*
X208159523Y-60102990D02*
X208197618Y-60141085D01*
X208197618Y-60141085D02*
X208235714Y-60217276D01*
X208235714Y-60217276D02*
X208235714Y-60331561D01*
X208235714Y-60331561D02*
X208197618Y-60407752D01*
X208197618Y-60407752D02*
X208159523Y-60445847D01*
X208159523Y-60445847D02*
X208083333Y-60483942D01*
X208083333Y-60483942D02*
X207778571Y-60483942D01*
X208997618Y-60864895D02*
X208540475Y-60864895D01*
X208769047Y-60864895D02*
X208769047Y-60064895D01*
X208769047Y-60064895D02*
X208692856Y-60179180D01*
X208692856Y-60179180D02*
X208616666Y-60255371D01*
X208616666Y-60255371D02*
X208540475Y-60293466D01*
X209264285Y-60064895D02*
X209759523Y-60064895D01*
X209759523Y-60064895D02*
X209492857Y-60369657D01*
X209492857Y-60369657D02*
X209607142Y-60369657D01*
X209607142Y-60369657D02*
X209683333Y-60407752D01*
X209683333Y-60407752D02*
X209721428Y-60445847D01*
X209721428Y-60445847D02*
X209759523Y-60522038D01*
X209759523Y-60522038D02*
X209759523Y-60712514D01*
X209759523Y-60712514D02*
X209721428Y-60788704D01*
X209721428Y-60788704D02*
X209683333Y-60826800D01*
X209683333Y-60826800D02*
X209607142Y-60864895D01*
X209607142Y-60864895D02*
X209378571Y-60864895D01*
X209378571Y-60864895D02*
X209302380Y-60826800D01*
X209302380Y-60826800D02*
X209264285Y-60788704D01*
D12*
X207833333Y-41954819D02*
X207357143Y-41954819D01*
X207357143Y-41954819D02*
X207357143Y-40954819D01*
X208071429Y-40954819D02*
X208738095Y-40954819D01*
X208738095Y-40954819D02*
X208309524Y-41954819D01*
X210107142Y-29109580D02*
X210059523Y-29157200D01*
X210059523Y-29157200D02*
X209916666Y-29204819D01*
X209916666Y-29204819D02*
X209821428Y-29204819D01*
X209821428Y-29204819D02*
X209678571Y-29157200D01*
X209678571Y-29157200D02*
X209583333Y-29061961D01*
X209583333Y-29061961D02*
X209535714Y-28966723D01*
X209535714Y-28966723D02*
X209488095Y-28776247D01*
X209488095Y-28776247D02*
X209488095Y-28633390D01*
X209488095Y-28633390D02*
X209535714Y-28442914D01*
X209535714Y-28442914D02*
X209583333Y-28347676D01*
X209583333Y-28347676D02*
X209678571Y-28252438D01*
X209678571Y-28252438D02*
X209821428Y-28204819D01*
X209821428Y-28204819D02*
X209916666Y-28204819D01*
X209916666Y-28204819D02*
X210059523Y-28252438D01*
X210059523Y-28252438D02*
X210107142Y-28300057D01*
X210488095Y-28300057D02*
X210535714Y-28252438D01*
X210535714Y-28252438D02*
X210630952Y-28204819D01*
X210630952Y-28204819D02*
X210869047Y-28204819D01*
X210869047Y-28204819D02*
X210964285Y-28252438D01*
X210964285Y-28252438D02*
X211011904Y-28300057D01*
X211011904Y-28300057D02*
X211059523Y-28395295D01*
X211059523Y-28395295D02*
X211059523Y-28490533D01*
X211059523Y-28490533D02*
X211011904Y-28633390D01*
X211011904Y-28633390D02*
X210440476Y-29204819D01*
X210440476Y-29204819D02*
X211059523Y-29204819D01*
X211964285Y-28204819D02*
X211488095Y-28204819D01*
X211488095Y-28204819D02*
X211440476Y-28681009D01*
X211440476Y-28681009D02*
X211488095Y-28633390D01*
X211488095Y-28633390D02*
X211583333Y-28585771D01*
X211583333Y-28585771D02*
X211821428Y-28585771D01*
X211821428Y-28585771D02*
X211916666Y-28633390D01*
X211916666Y-28633390D02*
X211964285Y-28681009D01*
X211964285Y-28681009D02*
X212011904Y-28776247D01*
X212011904Y-28776247D02*
X212011904Y-29014342D01*
X212011904Y-29014342D02*
X211964285Y-29109580D01*
X211964285Y-29109580D02*
X211916666Y-29157200D01*
X211916666Y-29157200D02*
X211821428Y-29204819D01*
X211821428Y-29204819D02*
X211583333Y-29204819D01*
X211583333Y-29204819D02*
X211488095Y-29157200D01*
X211488095Y-29157200D02*
X211440476Y-29109580D01*
D13*
X206752616Y-51450000D02*
X206785950Y-51483333D01*
X206785950Y-51483333D02*
X206819283Y-51583333D01*
X206819283Y-51583333D02*
X206819283Y-51650000D01*
X206819283Y-51650000D02*
X206785950Y-51750000D01*
X206785950Y-51750000D02*
X206719283Y-51816667D01*
X206719283Y-51816667D02*
X206652616Y-51850000D01*
X206652616Y-51850000D02*
X206519283Y-51883333D01*
X206519283Y-51883333D02*
X206419283Y-51883333D01*
X206419283Y-51883333D02*
X206285950Y-51850000D01*
X206285950Y-51850000D02*
X206219283Y-51816667D01*
X206219283Y-51816667D02*
X206152616Y-51750000D01*
X206152616Y-51750000D02*
X206119283Y-51650000D01*
X206119283Y-51650000D02*
X206119283Y-51583333D01*
X206119283Y-51583333D02*
X206152616Y-51483333D01*
X206152616Y-51483333D02*
X206185950Y-51450000D01*
X206185950Y-51183333D02*
X206152616Y-51150000D01*
X206152616Y-51150000D02*
X206119283Y-51083333D01*
X206119283Y-51083333D02*
X206119283Y-50916667D01*
X206119283Y-50916667D02*
X206152616Y-50850000D01*
X206152616Y-50850000D02*
X206185950Y-50816667D01*
X206185950Y-50816667D02*
X206252616Y-50783333D01*
X206252616Y-50783333D02*
X206319283Y-50783333D01*
X206319283Y-50783333D02*
X206419283Y-50816667D01*
X206419283Y-50816667D02*
X206819283Y-51216667D01*
X206819283Y-51216667D02*
X206819283Y-50783333D01*
X206819283Y-50116666D02*
X206819283Y-50516666D01*
X206819283Y-50316666D02*
X206119283Y-50316666D01*
X206119283Y-50316666D02*
X206219283Y-50383333D01*
X206219283Y-50383333D02*
X206285950Y-50450000D01*
X206285950Y-50450000D02*
X206319283Y-50516666D01*
X196499999Y-48731783D02*
X196266666Y-48398450D01*
X196099999Y-48731783D02*
X196099999Y-48031783D01*
X196099999Y-48031783D02*
X196366666Y-48031783D01*
X196366666Y-48031783D02*
X196433333Y-48065116D01*
X196433333Y-48065116D02*
X196466666Y-48098450D01*
X196466666Y-48098450D02*
X196499999Y-48165116D01*
X196499999Y-48165116D02*
X196499999Y-48265116D01*
X196499999Y-48265116D02*
X196466666Y-48331783D01*
X196466666Y-48331783D02*
X196433333Y-48365116D01*
X196433333Y-48365116D02*
X196366666Y-48398450D01*
X196366666Y-48398450D02*
X196099999Y-48398450D01*
X197166666Y-48731783D02*
X196766666Y-48731783D01*
X196966666Y-48731783D02*
X196966666Y-48031783D01*
X196966666Y-48031783D02*
X196899999Y-48131783D01*
X196899999Y-48131783D02*
X196833333Y-48198450D01*
X196833333Y-48198450D02*
X196766666Y-48231783D01*
X197433333Y-48098450D02*
X197466666Y-48065116D01*
X197466666Y-48065116D02*
X197533333Y-48031783D01*
X197533333Y-48031783D02*
X197700000Y-48031783D01*
X197700000Y-48031783D02*
X197766666Y-48065116D01*
X197766666Y-48065116D02*
X197800000Y-48098450D01*
X197800000Y-48098450D02*
X197833333Y-48165116D01*
X197833333Y-48165116D02*
X197833333Y-48231783D01*
X197833333Y-48231783D02*
X197800000Y-48331783D01*
X197800000Y-48331783D02*
X197400000Y-48731783D01*
X197400000Y-48731783D02*
X197833333Y-48731783D01*
D12*
X217488095Y-58704819D02*
X217488095Y-59514342D01*
X217488095Y-59514342D02*
X217535714Y-59609580D01*
X217535714Y-59609580D02*
X217583333Y-59657200D01*
X217583333Y-59657200D02*
X217678571Y-59704819D01*
X217678571Y-59704819D02*
X217869047Y-59704819D01*
X217869047Y-59704819D02*
X217964285Y-59657200D01*
X217964285Y-59657200D02*
X218011904Y-59609580D01*
X218011904Y-59609580D02*
X218059523Y-59514342D01*
X218059523Y-59514342D02*
X218059523Y-58704819D01*
X218488095Y-58800057D02*
X218535714Y-58752438D01*
X218535714Y-58752438D02*
X218630952Y-58704819D01*
X218630952Y-58704819D02*
X218869047Y-58704819D01*
X218869047Y-58704819D02*
X218964285Y-58752438D01*
X218964285Y-58752438D02*
X219011904Y-58800057D01*
X219011904Y-58800057D02*
X219059523Y-58895295D01*
X219059523Y-58895295D02*
X219059523Y-58990533D01*
X219059523Y-58990533D02*
X219011904Y-59133390D01*
X219011904Y-59133390D02*
X218440476Y-59704819D01*
X218440476Y-59704819D02*
X219059523Y-59704819D01*
X226533333Y-54454819D02*
X226057143Y-54454819D01*
X226057143Y-54454819D02*
X226057143Y-53454819D01*
X227295238Y-53788152D02*
X227295238Y-54454819D01*
X227057143Y-53407200D02*
X226819048Y-54121485D01*
X226819048Y-54121485D02*
X227438095Y-54121485D01*
D14*
X225074792Y-53891071D02*
X225117650Y-53933928D01*
X225117650Y-53933928D02*
X225160507Y-54062500D01*
X225160507Y-54062500D02*
X225160507Y-54148214D01*
X225160507Y-54148214D02*
X225117650Y-54276785D01*
X225117650Y-54276785D02*
X225031935Y-54362500D01*
X225031935Y-54362500D02*
X224946221Y-54405357D01*
X224946221Y-54405357D02*
X224774792Y-54448214D01*
X224774792Y-54448214D02*
X224646221Y-54448214D01*
X224646221Y-54448214D02*
X224474792Y-54405357D01*
X224474792Y-54405357D02*
X224389078Y-54362500D01*
X224389078Y-54362500D02*
X224303364Y-54276785D01*
X224303364Y-54276785D02*
X224260507Y-54148214D01*
X224260507Y-54148214D02*
X224260507Y-54062500D01*
X224260507Y-54062500D02*
X224303364Y-53933928D01*
X224303364Y-53933928D02*
X224346221Y-53891071D01*
X225160507Y-53033928D02*
X225160507Y-53548214D01*
X225160507Y-53291071D02*
X224260507Y-53291071D01*
X224260507Y-53291071D02*
X224389078Y-53376785D01*
X224389078Y-53376785D02*
X224474792Y-53462500D01*
X224474792Y-53462500D02*
X224517650Y-53548214D01*
X224260507Y-52476785D02*
X224260507Y-52391071D01*
X224260507Y-52391071D02*
X224303364Y-52305357D01*
X224303364Y-52305357D02*
X224346221Y-52262500D01*
X224346221Y-52262500D02*
X224431935Y-52219642D01*
X224431935Y-52219642D02*
X224603364Y-52176785D01*
X224603364Y-52176785D02*
X224817650Y-52176785D01*
X224817650Y-52176785D02*
X224989078Y-52219642D01*
X224989078Y-52219642D02*
X225074792Y-52262500D01*
X225074792Y-52262500D02*
X225117650Y-52305357D01*
X225117650Y-52305357D02*
X225160507Y-52391071D01*
X225160507Y-52391071D02*
X225160507Y-52476785D01*
X225160507Y-52476785D02*
X225117650Y-52562500D01*
X225117650Y-52562500D02*
X225074792Y-52605357D01*
X225074792Y-52605357D02*
X224989078Y-52648214D01*
X224989078Y-52648214D02*
X224817650Y-52691071D01*
X224817650Y-52691071D02*
X224603364Y-52691071D01*
X224603364Y-52691071D02*
X224431935Y-52648214D01*
X224431935Y-52648214D02*
X224346221Y-52605357D01*
X224346221Y-52605357D02*
X224303364Y-52562500D01*
X224303364Y-52562500D02*
X224260507Y-52476785D01*
D13*
X211549999Y-67569283D02*
X211316666Y-67235950D01*
X211149999Y-67569283D02*
X211149999Y-66869283D01*
X211149999Y-66869283D02*
X211416666Y-66869283D01*
X211416666Y-66869283D02*
X211483333Y-66902616D01*
X211483333Y-66902616D02*
X211516666Y-66935950D01*
X211516666Y-66935950D02*
X211549999Y-67002616D01*
X211549999Y-67002616D02*
X211549999Y-67102616D01*
X211549999Y-67102616D02*
X211516666Y-67169283D01*
X211516666Y-67169283D02*
X211483333Y-67202616D01*
X211483333Y-67202616D02*
X211416666Y-67235950D01*
X211416666Y-67235950D02*
X211149999Y-67235950D01*
X212216666Y-67569283D02*
X211816666Y-67569283D01*
X212016666Y-67569283D02*
X212016666Y-66869283D01*
X212016666Y-66869283D02*
X211949999Y-66969283D01*
X211949999Y-66969283D02*
X211883333Y-67035950D01*
X211883333Y-67035950D02*
X211816666Y-67069283D01*
X212450000Y-66869283D02*
X212916666Y-66869283D01*
X212916666Y-66869283D02*
X212616666Y-67569283D01*
D10*
X216038704Y-69764285D02*
X216076800Y-69802381D01*
X216076800Y-69802381D02*
X216114895Y-69916666D01*
X216114895Y-69916666D02*
X216114895Y-69992857D01*
X216114895Y-69992857D02*
X216076800Y-70107143D01*
X216076800Y-70107143D02*
X216000609Y-70183333D01*
X216000609Y-70183333D02*
X215924419Y-70221428D01*
X215924419Y-70221428D02*
X215772038Y-70259524D01*
X215772038Y-70259524D02*
X215657752Y-70259524D01*
X215657752Y-70259524D02*
X215505371Y-70221428D01*
X215505371Y-70221428D02*
X215429180Y-70183333D01*
X215429180Y-70183333D02*
X215352990Y-70107143D01*
X215352990Y-70107143D02*
X215314895Y-69992857D01*
X215314895Y-69992857D02*
X215314895Y-69916666D01*
X215314895Y-69916666D02*
X215352990Y-69802381D01*
X215352990Y-69802381D02*
X215391085Y-69764285D01*
X215391085Y-69459524D02*
X215352990Y-69421428D01*
X215352990Y-69421428D02*
X215314895Y-69345238D01*
X215314895Y-69345238D02*
X215314895Y-69154762D01*
X215314895Y-69154762D02*
X215352990Y-69078571D01*
X215352990Y-69078571D02*
X215391085Y-69040476D01*
X215391085Y-69040476D02*
X215467276Y-69002381D01*
X215467276Y-69002381D02*
X215543466Y-69002381D01*
X215543466Y-69002381D02*
X215657752Y-69040476D01*
X215657752Y-69040476D02*
X216114895Y-69497619D01*
X216114895Y-69497619D02*
X216114895Y-69002381D01*
X215581561Y-68316666D02*
X216114895Y-68316666D01*
X215276800Y-68507142D02*
X215848228Y-68697619D01*
X215848228Y-68697619D02*
X215848228Y-68202380D01*
D12*
X187950000Y-26249366D02*
X187916667Y-26282700D01*
X187916667Y-26282700D02*
X187816667Y-26316033D01*
X187816667Y-26316033D02*
X187750000Y-26316033D01*
X187750000Y-26316033D02*
X187650000Y-26282700D01*
X187650000Y-26282700D02*
X187583334Y-26216033D01*
X187583334Y-26216033D02*
X187550000Y-26149366D01*
X187550000Y-26149366D02*
X187516667Y-26016033D01*
X187516667Y-26016033D02*
X187516667Y-25916033D01*
X187516667Y-25916033D02*
X187550000Y-25782700D01*
X187550000Y-25782700D02*
X187583334Y-25716033D01*
X187583334Y-25716033D02*
X187650000Y-25649366D01*
X187650000Y-25649366D02*
X187750000Y-25616033D01*
X187750000Y-25616033D02*
X187816667Y-25616033D01*
X187816667Y-25616033D02*
X187916667Y-25649366D01*
X187916667Y-25649366D02*
X187950000Y-25682700D01*
X188250000Y-26316033D02*
X188250000Y-25616033D01*
X188250000Y-25949366D02*
X188650000Y-25949366D01*
X188650000Y-26316033D02*
X188650000Y-25616033D01*
X189350000Y-25649366D02*
X189283333Y-25616033D01*
X189283333Y-25616033D02*
X189183333Y-25616033D01*
X189183333Y-25616033D02*
X189083333Y-25649366D01*
X189083333Y-25649366D02*
X189016667Y-25716033D01*
X189016667Y-25716033D02*
X188983333Y-25782700D01*
X188983333Y-25782700D02*
X188950000Y-25916033D01*
X188950000Y-25916033D02*
X188950000Y-26016033D01*
X188950000Y-26016033D02*
X188983333Y-26149366D01*
X188983333Y-26149366D02*
X189016667Y-26216033D01*
X189016667Y-26216033D02*
X189083333Y-26282700D01*
X189083333Y-26282700D02*
X189183333Y-26316033D01*
X189183333Y-26316033D02*
X189250000Y-26316033D01*
X189250000Y-26316033D02*
X189350000Y-26282700D01*
X189350000Y-26282700D02*
X189383333Y-26249366D01*
X189383333Y-26249366D02*
X189383333Y-26016033D01*
X189383333Y-26016033D02*
X189250000Y-26016033D01*
X189516667Y-26382700D02*
X190050000Y-26382700D01*
X190550000Y-26316033D02*
X190216666Y-26316033D01*
X190216666Y-26316033D02*
X190216666Y-25616033D01*
X190783333Y-25949366D02*
X191016667Y-25949366D01*
X191116667Y-26316033D02*
X190783333Y-26316033D01*
X190783333Y-26316033D02*
X190783333Y-25616033D01*
X190783333Y-25616033D02*
X191116667Y-25616033D01*
X191416666Y-26316033D02*
X191416666Y-25616033D01*
X191416666Y-25616033D02*
X191583333Y-25616033D01*
X191583333Y-25616033D02*
X191683333Y-25649366D01*
X191683333Y-25649366D02*
X191750000Y-25716033D01*
X191750000Y-25716033D02*
X191783333Y-25782700D01*
X191783333Y-25782700D02*
X191816666Y-25916033D01*
X191816666Y-25916033D02*
X191816666Y-26016033D01*
X191816666Y-26016033D02*
X191783333Y-26149366D01*
X191783333Y-26149366D02*
X191750000Y-26216033D01*
X191750000Y-26216033D02*
X191683333Y-26282700D01*
X191683333Y-26282700D02*
X191583333Y-26316033D01*
X191583333Y-26316033D02*
X191416666Y-26316033D01*
X192483333Y-26316033D02*
X192083333Y-26316033D01*
X192283333Y-26316033D02*
X192283333Y-25616033D01*
X192283333Y-25616033D02*
X192216666Y-25716033D01*
X192216666Y-25716033D02*
X192150000Y-25782700D01*
X192150000Y-25782700D02*
X192083333Y-25816033D01*
X206857142Y-45109580D02*
X206809523Y-45157200D01*
X206809523Y-45157200D02*
X206666666Y-45204819D01*
X206666666Y-45204819D02*
X206571428Y-45204819D01*
X206571428Y-45204819D02*
X206428571Y-45157200D01*
X206428571Y-45157200D02*
X206333333Y-45061961D01*
X206333333Y-45061961D02*
X206285714Y-44966723D01*
X206285714Y-44966723D02*
X206238095Y-44776247D01*
X206238095Y-44776247D02*
X206238095Y-44633390D01*
X206238095Y-44633390D02*
X206285714Y-44442914D01*
X206285714Y-44442914D02*
X206333333Y-44347676D01*
X206333333Y-44347676D02*
X206428571Y-44252438D01*
X206428571Y-44252438D02*
X206571428Y-44204819D01*
X206571428Y-44204819D02*
X206666666Y-44204819D01*
X206666666Y-44204819D02*
X206809523Y-44252438D01*
X206809523Y-44252438D02*
X206857142Y-44300057D01*
X207238095Y-44300057D02*
X207285714Y-44252438D01*
X207285714Y-44252438D02*
X207380952Y-44204819D01*
X207380952Y-44204819D02*
X207619047Y-44204819D01*
X207619047Y-44204819D02*
X207714285Y-44252438D01*
X207714285Y-44252438D02*
X207761904Y-44300057D01*
X207761904Y-44300057D02*
X207809523Y-44395295D01*
X207809523Y-44395295D02*
X207809523Y-44490533D01*
X207809523Y-44490533D02*
X207761904Y-44633390D01*
X207761904Y-44633390D02*
X207190476Y-45204819D01*
X207190476Y-45204819D02*
X207809523Y-45204819D01*
X208142857Y-44204819D02*
X208761904Y-44204819D01*
X208761904Y-44204819D02*
X208428571Y-44585771D01*
X208428571Y-44585771D02*
X208571428Y-44585771D01*
X208571428Y-44585771D02*
X208666666Y-44633390D01*
X208666666Y-44633390D02*
X208714285Y-44681009D01*
X208714285Y-44681009D02*
X208761904Y-44776247D01*
X208761904Y-44776247D02*
X208761904Y-45014342D01*
X208761904Y-45014342D02*
X208714285Y-45109580D01*
X208714285Y-45109580D02*
X208666666Y-45157200D01*
X208666666Y-45157200D02*
X208571428Y-45204819D01*
X208571428Y-45204819D02*
X208285714Y-45204819D01*
X208285714Y-45204819D02*
X208190476Y-45157200D01*
X208190476Y-45157200D02*
X208142857Y-45109580D01*
D10*
X228864895Y-60383332D02*
X228483942Y-60649999D01*
X228864895Y-60840475D02*
X228064895Y-60840475D01*
X228064895Y-60840475D02*
X228064895Y-60535713D01*
X228064895Y-60535713D02*
X228102990Y-60459523D01*
X228102990Y-60459523D02*
X228141085Y-60421428D01*
X228141085Y-60421428D02*
X228217276Y-60383332D01*
X228217276Y-60383332D02*
X228331561Y-60383332D01*
X228331561Y-60383332D02*
X228407752Y-60421428D01*
X228407752Y-60421428D02*
X228445847Y-60459523D01*
X228445847Y-60459523D02*
X228483942Y-60535713D01*
X228483942Y-60535713D02*
X228483942Y-60840475D01*
X228064895Y-59697618D02*
X228064895Y-59849999D01*
X228064895Y-59849999D02*
X228102990Y-59926190D01*
X228102990Y-59926190D02*
X228141085Y-59964285D01*
X228141085Y-59964285D02*
X228255371Y-60040475D01*
X228255371Y-60040475D02*
X228407752Y-60078571D01*
X228407752Y-60078571D02*
X228712514Y-60078571D01*
X228712514Y-60078571D02*
X228788704Y-60040475D01*
X228788704Y-60040475D02*
X228826800Y-60002380D01*
X228826800Y-60002380D02*
X228864895Y-59926190D01*
X228864895Y-59926190D02*
X228864895Y-59773809D01*
X228864895Y-59773809D02*
X228826800Y-59697618D01*
X228826800Y-59697618D02*
X228788704Y-59659523D01*
X228788704Y-59659523D02*
X228712514Y-59621428D01*
X228712514Y-59621428D02*
X228522038Y-59621428D01*
X228522038Y-59621428D02*
X228445847Y-59659523D01*
X228445847Y-59659523D02*
X228407752Y-59697618D01*
X228407752Y-59697618D02*
X228369657Y-59773809D01*
X228369657Y-59773809D02*
X228369657Y-59926190D01*
X228369657Y-59926190D02*
X228407752Y-60002380D01*
X228407752Y-60002380D02*
X228445847Y-60040475D01*
X228445847Y-60040475D02*
X228522038Y-60078571D01*
D12*
X207488095Y-31954819D02*
X207488095Y-32764342D01*
X207488095Y-32764342D02*
X207535714Y-32859580D01*
X207535714Y-32859580D02*
X207583333Y-32907200D01*
X207583333Y-32907200D02*
X207678571Y-32954819D01*
X207678571Y-32954819D02*
X207869047Y-32954819D01*
X207869047Y-32954819D02*
X207964285Y-32907200D01*
X207964285Y-32907200D02*
X208011904Y-32859580D01*
X208011904Y-32859580D02*
X208059523Y-32764342D01*
X208059523Y-32764342D02*
X208059523Y-31954819D01*
X208440476Y-31954819D02*
X209107142Y-31954819D01*
X209107142Y-31954819D02*
X208678571Y-32954819D01*
X213384819Y-36166666D02*
X212908628Y-36499999D01*
X213384819Y-36738094D02*
X212384819Y-36738094D01*
X212384819Y-36738094D02*
X212384819Y-36357142D01*
X212384819Y-36357142D02*
X212432438Y-36261904D01*
X212432438Y-36261904D02*
X212480057Y-36214285D01*
X212480057Y-36214285D02*
X212575295Y-36166666D01*
X212575295Y-36166666D02*
X212718152Y-36166666D01*
X212718152Y-36166666D02*
X212813390Y-36214285D01*
X212813390Y-36214285D02*
X212861009Y-36261904D01*
X212861009Y-36261904D02*
X212908628Y-36357142D01*
X212908628Y-36357142D02*
X212908628Y-36738094D01*
X212813390Y-35595237D02*
X212765771Y-35690475D01*
X212765771Y-35690475D02*
X212718152Y-35738094D01*
X212718152Y-35738094D02*
X212622914Y-35785713D01*
X212622914Y-35785713D02*
X212575295Y-35785713D01*
X212575295Y-35785713D02*
X212480057Y-35738094D01*
X212480057Y-35738094D02*
X212432438Y-35690475D01*
X212432438Y-35690475D02*
X212384819Y-35595237D01*
X212384819Y-35595237D02*
X212384819Y-35404761D01*
X212384819Y-35404761D02*
X212432438Y-35309523D01*
X212432438Y-35309523D02*
X212480057Y-35261904D01*
X212480057Y-35261904D02*
X212575295Y-35214285D01*
X212575295Y-35214285D02*
X212622914Y-35214285D01*
X212622914Y-35214285D02*
X212718152Y-35261904D01*
X212718152Y-35261904D02*
X212765771Y-35309523D01*
X212765771Y-35309523D02*
X212813390Y-35404761D01*
X212813390Y-35404761D02*
X212813390Y-35595237D01*
X212813390Y-35595237D02*
X212861009Y-35690475D01*
X212861009Y-35690475D02*
X212908628Y-35738094D01*
X212908628Y-35738094D02*
X213003866Y-35785713D01*
X213003866Y-35785713D02*
X213194342Y-35785713D01*
X213194342Y-35785713D02*
X213289580Y-35738094D01*
X213289580Y-35738094D02*
X213337200Y-35690475D01*
X213337200Y-35690475D02*
X213384819Y-35595237D01*
X213384819Y-35595237D02*
X213384819Y-35404761D01*
X213384819Y-35404761D02*
X213337200Y-35309523D01*
X213337200Y-35309523D02*
X213289580Y-35261904D01*
X213289580Y-35261904D02*
X213194342Y-35214285D01*
X213194342Y-35214285D02*
X213003866Y-35214285D01*
X213003866Y-35214285D02*
X212908628Y-35261904D01*
X212908628Y-35261904D02*
X212861009Y-35309523D01*
X212861009Y-35309523D02*
X212813390Y-35404761D01*
D10*
X224116667Y-59288704D02*
X224078571Y-59326800D01*
X224078571Y-59326800D02*
X223964286Y-59364895D01*
X223964286Y-59364895D02*
X223888095Y-59364895D01*
X223888095Y-59364895D02*
X223773809Y-59326800D01*
X223773809Y-59326800D02*
X223697619Y-59250609D01*
X223697619Y-59250609D02*
X223659524Y-59174419D01*
X223659524Y-59174419D02*
X223621428Y-59022038D01*
X223621428Y-59022038D02*
X223621428Y-58907752D01*
X223621428Y-58907752D02*
X223659524Y-58755371D01*
X223659524Y-58755371D02*
X223697619Y-58679180D01*
X223697619Y-58679180D02*
X223773809Y-58602990D01*
X223773809Y-58602990D02*
X223888095Y-58564895D01*
X223888095Y-58564895D02*
X223964286Y-58564895D01*
X223964286Y-58564895D02*
X224078571Y-58602990D01*
X224078571Y-58602990D02*
X224116667Y-58641085D01*
X224497619Y-59364895D02*
X224650000Y-59364895D01*
X224650000Y-59364895D02*
X224726190Y-59326800D01*
X224726190Y-59326800D02*
X224764286Y-59288704D01*
X224764286Y-59288704D02*
X224840476Y-59174419D01*
X224840476Y-59174419D02*
X224878571Y-59022038D01*
X224878571Y-59022038D02*
X224878571Y-58717276D01*
X224878571Y-58717276D02*
X224840476Y-58641085D01*
X224840476Y-58641085D02*
X224802381Y-58602990D01*
X224802381Y-58602990D02*
X224726190Y-58564895D01*
X224726190Y-58564895D02*
X224573809Y-58564895D01*
X224573809Y-58564895D02*
X224497619Y-58602990D01*
X224497619Y-58602990D02*
X224459524Y-58641085D01*
X224459524Y-58641085D02*
X224421428Y-58717276D01*
X224421428Y-58717276D02*
X224421428Y-58907752D01*
X224421428Y-58907752D02*
X224459524Y-58983942D01*
X224459524Y-58983942D02*
X224497619Y-59022038D01*
X224497619Y-59022038D02*
X224573809Y-59060133D01*
X224573809Y-59060133D02*
X224726190Y-59060133D01*
X224726190Y-59060133D02*
X224802381Y-59022038D01*
X224802381Y-59022038D02*
X224840476Y-58983942D01*
X224840476Y-58983942D02*
X224878571Y-58907752D01*
D15*
X190621551Y-37469199D02*
X190665093Y-37338571D01*
X190665093Y-37338571D02*
X190665093Y-37120856D01*
X190665093Y-37120856D02*
X190621551Y-37033771D01*
X190621551Y-37033771D02*
X190578008Y-36990228D01*
X190578008Y-36990228D02*
X190490922Y-36946685D01*
X190490922Y-36946685D02*
X190403836Y-36946685D01*
X190403836Y-36946685D02*
X190316751Y-36990228D01*
X190316751Y-36990228D02*
X190273208Y-37033771D01*
X190273208Y-37033771D02*
X190229665Y-37120856D01*
X190229665Y-37120856D02*
X190186122Y-37295028D01*
X190186122Y-37295028D02*
X190142579Y-37382113D01*
X190142579Y-37382113D02*
X190099036Y-37425656D01*
X190099036Y-37425656D02*
X190011951Y-37469199D01*
X190011951Y-37469199D02*
X189924865Y-37469199D01*
X189924865Y-37469199D02*
X189837779Y-37425656D01*
X189837779Y-37425656D02*
X189794236Y-37382113D01*
X189794236Y-37382113D02*
X189750693Y-37295028D01*
X189750693Y-37295028D02*
X189750693Y-37077313D01*
X189750693Y-37077313D02*
X189794236Y-36946685D01*
X189750693Y-36641885D02*
X190665093Y-36424171D01*
X190665093Y-36424171D02*
X190011951Y-36249999D01*
X190011951Y-36249999D02*
X190665093Y-36075828D01*
X190665093Y-36075828D02*
X189750693Y-35858114D01*
X189837779Y-35553313D02*
X189794236Y-35509770D01*
X189794236Y-35509770D02*
X189750693Y-35422685D01*
X189750693Y-35422685D02*
X189750693Y-35204970D01*
X189750693Y-35204970D02*
X189794236Y-35117885D01*
X189794236Y-35117885D02*
X189837779Y-35074342D01*
X189837779Y-35074342D02*
X189924865Y-35030799D01*
X189924865Y-35030799D02*
X190011951Y-35030799D01*
X190011951Y-35030799D02*
X190142579Y-35074342D01*
X190142579Y-35074342D02*
X190665093Y-35596856D01*
X190665093Y-35596856D02*
X190665093Y-35030799D01*
X187644971Y-40553551D02*
X187775600Y-40597093D01*
X187775600Y-40597093D02*
X187993314Y-40597093D01*
X187993314Y-40597093D02*
X188080400Y-40553551D01*
X188080400Y-40553551D02*
X188123942Y-40510008D01*
X188123942Y-40510008D02*
X188167485Y-40422922D01*
X188167485Y-40422922D02*
X188167485Y-40335836D01*
X188167485Y-40335836D02*
X188123942Y-40248751D01*
X188123942Y-40248751D02*
X188080400Y-40205208D01*
X188080400Y-40205208D02*
X187993314Y-40161665D01*
X187993314Y-40161665D02*
X187819142Y-40118122D01*
X187819142Y-40118122D02*
X187732057Y-40074579D01*
X187732057Y-40074579D02*
X187688514Y-40031036D01*
X187688514Y-40031036D02*
X187644971Y-39943951D01*
X187644971Y-39943951D02*
X187644971Y-39856865D01*
X187644971Y-39856865D02*
X187688514Y-39769779D01*
X187688514Y-39769779D02*
X187732057Y-39726236D01*
X187732057Y-39726236D02*
X187819142Y-39682693D01*
X187819142Y-39682693D02*
X188036857Y-39682693D01*
X188036857Y-39682693D02*
X188167485Y-39726236D01*
X188472285Y-39682693D02*
X188689999Y-40597093D01*
X188689999Y-40597093D02*
X188864171Y-39943951D01*
X188864171Y-39943951D02*
X189038342Y-40597093D01*
X189038342Y-40597093D02*
X189256057Y-39682693D01*
X189386686Y-40684179D02*
X190083371Y-40684179D01*
X190301086Y-40597093D02*
X190301086Y-39682693D01*
X190301086Y-39682693D02*
X190649429Y-39682693D01*
X190649429Y-39682693D02*
X190736514Y-39726236D01*
X190736514Y-39726236D02*
X190780057Y-39769779D01*
X190780057Y-39769779D02*
X190823600Y-39856865D01*
X190823600Y-39856865D02*
X190823600Y-39987493D01*
X190823600Y-39987493D02*
X190780057Y-40074579D01*
X190780057Y-40074579D02*
X190736514Y-40118122D01*
X190736514Y-40118122D02*
X190649429Y-40161665D01*
X190649429Y-40161665D02*
X190301086Y-40161665D01*
X191607372Y-39987493D02*
X191607372Y-40597093D01*
X191215486Y-39987493D02*
X191215486Y-40466465D01*
X191215486Y-40466465D02*
X191259029Y-40553551D01*
X191259029Y-40553551D02*
X191346114Y-40597093D01*
X191346114Y-40597093D02*
X191476743Y-40597093D01*
X191476743Y-40597093D02*
X191563829Y-40553551D01*
X191563829Y-40553551D02*
X191607372Y-40510008D01*
X191999257Y-40553551D02*
X192086343Y-40597093D01*
X192086343Y-40597093D02*
X192260514Y-40597093D01*
X192260514Y-40597093D02*
X192347600Y-40553551D01*
X192347600Y-40553551D02*
X192391143Y-40466465D01*
X192391143Y-40466465D02*
X192391143Y-40422922D01*
X192391143Y-40422922D02*
X192347600Y-40335836D01*
X192347600Y-40335836D02*
X192260514Y-40292293D01*
X192260514Y-40292293D02*
X192129886Y-40292293D01*
X192129886Y-40292293D02*
X192042800Y-40248751D01*
X192042800Y-40248751D02*
X191999257Y-40161665D01*
X191999257Y-40161665D02*
X191999257Y-40118122D01*
X191999257Y-40118122D02*
X192042800Y-40031036D01*
X192042800Y-40031036D02*
X192129886Y-39987493D01*
X192129886Y-39987493D02*
X192260514Y-39987493D01*
X192260514Y-39987493D02*
X192347600Y-40031036D01*
X192783029Y-40597093D02*
X192783029Y-39682693D01*
X193174915Y-40597093D02*
X193174915Y-40118122D01*
X193174915Y-40118122D02*
X193131372Y-40031036D01*
X193131372Y-40031036D02*
X193044286Y-39987493D01*
X193044286Y-39987493D02*
X192913657Y-39987493D01*
X192913657Y-39987493D02*
X192826572Y-40031036D01*
X192826572Y-40031036D02*
X192783029Y-40074579D01*
X193392629Y-40684179D02*
X194089314Y-40684179D01*
X194307029Y-40597093D02*
X194307029Y-39682693D01*
X194307029Y-39682693D02*
X194524743Y-39682693D01*
X194524743Y-39682693D02*
X194655372Y-39726236D01*
X194655372Y-39726236D02*
X194742457Y-39813322D01*
X194742457Y-39813322D02*
X194786000Y-39900408D01*
X194786000Y-39900408D02*
X194829543Y-40074579D01*
X194829543Y-40074579D02*
X194829543Y-40205208D01*
X194829543Y-40205208D02*
X194786000Y-40379379D01*
X194786000Y-40379379D02*
X194742457Y-40466465D01*
X194742457Y-40466465D02*
X194655372Y-40553551D01*
X194655372Y-40553551D02*
X194524743Y-40597093D01*
X194524743Y-40597093D02*
X194307029Y-40597093D01*
X195221429Y-40597093D02*
X195221429Y-39682693D01*
X195221429Y-39682693D02*
X195569772Y-39682693D01*
X195569772Y-39682693D02*
X195656857Y-39726236D01*
X195656857Y-39726236D02*
X195700400Y-39769779D01*
X195700400Y-39769779D02*
X195743943Y-39856865D01*
X195743943Y-39856865D02*
X195743943Y-39987493D01*
X195743943Y-39987493D02*
X195700400Y-40074579D01*
X195700400Y-40074579D02*
X195656857Y-40118122D01*
X195656857Y-40118122D02*
X195569772Y-40161665D01*
X195569772Y-40161665D02*
X195221429Y-40161665D01*
X196135829Y-40597093D02*
X196135829Y-39682693D01*
X196135829Y-39682693D02*
X196353543Y-39682693D01*
X196353543Y-39682693D02*
X196484172Y-39726236D01*
X196484172Y-39726236D02*
X196571257Y-39813322D01*
X196571257Y-39813322D02*
X196614800Y-39900408D01*
X196614800Y-39900408D02*
X196658343Y-40074579D01*
X196658343Y-40074579D02*
X196658343Y-40205208D01*
X196658343Y-40205208D02*
X196614800Y-40379379D01*
X196614800Y-40379379D02*
X196571257Y-40466465D01*
X196571257Y-40466465D02*
X196484172Y-40553551D01*
X196484172Y-40553551D02*
X196353543Y-40597093D01*
X196353543Y-40597093D02*
X196135829Y-40597093D01*
X196919600Y-39682693D02*
X197442115Y-39682693D01*
X197180857Y-40597093D02*
X197180857Y-39682693D01*
D12*
X218333333Y-67204819D02*
X218000000Y-66728628D01*
X217761905Y-67204819D02*
X217761905Y-66204819D01*
X217761905Y-66204819D02*
X218142857Y-66204819D01*
X218142857Y-66204819D02*
X218238095Y-66252438D01*
X218238095Y-66252438D02*
X218285714Y-66300057D01*
X218285714Y-66300057D02*
X218333333Y-66395295D01*
X218333333Y-66395295D02*
X218333333Y-66538152D01*
X218333333Y-66538152D02*
X218285714Y-66633390D01*
X218285714Y-66633390D02*
X218238095Y-66681009D01*
X218238095Y-66681009D02*
X218142857Y-66728628D01*
X218142857Y-66728628D02*
X217761905Y-66728628D01*
X219190476Y-66538152D02*
X219190476Y-67204819D01*
X218952381Y-66157200D02*
X218714286Y-66871485D01*
X218714286Y-66871485D02*
X219333333Y-66871485D01*
X200357142Y-54359580D02*
X200309523Y-54407200D01*
X200309523Y-54407200D02*
X200166666Y-54454819D01*
X200166666Y-54454819D02*
X200071428Y-54454819D01*
X200071428Y-54454819D02*
X199928571Y-54407200D01*
X199928571Y-54407200D02*
X199833333Y-54311961D01*
X199833333Y-54311961D02*
X199785714Y-54216723D01*
X199785714Y-54216723D02*
X199738095Y-54026247D01*
X199738095Y-54026247D02*
X199738095Y-53883390D01*
X199738095Y-53883390D02*
X199785714Y-53692914D01*
X199785714Y-53692914D02*
X199833333Y-53597676D01*
X199833333Y-53597676D02*
X199928571Y-53502438D01*
X199928571Y-53502438D02*
X200071428Y-53454819D01*
X200071428Y-53454819D02*
X200166666Y-53454819D01*
X200166666Y-53454819D02*
X200309523Y-53502438D01*
X200309523Y-53502438D02*
X200357142Y-53550057D01*
X200738095Y-53550057D02*
X200785714Y-53502438D01*
X200785714Y-53502438D02*
X200880952Y-53454819D01*
X200880952Y-53454819D02*
X201119047Y-53454819D01*
X201119047Y-53454819D02*
X201214285Y-53502438D01*
X201214285Y-53502438D02*
X201261904Y-53550057D01*
X201261904Y-53550057D02*
X201309523Y-53645295D01*
X201309523Y-53645295D02*
X201309523Y-53740533D01*
X201309523Y-53740533D02*
X201261904Y-53883390D01*
X201261904Y-53883390D02*
X200690476Y-54454819D01*
X200690476Y-54454819D02*
X201309523Y-54454819D01*
X201690476Y-53550057D02*
X201738095Y-53502438D01*
X201738095Y-53502438D02*
X201833333Y-53454819D01*
X201833333Y-53454819D02*
X202071428Y-53454819D01*
X202071428Y-53454819D02*
X202166666Y-53502438D01*
X202166666Y-53502438D02*
X202214285Y-53550057D01*
X202214285Y-53550057D02*
X202261904Y-53645295D01*
X202261904Y-53645295D02*
X202261904Y-53740533D01*
X202261904Y-53740533D02*
X202214285Y-53883390D01*
X202214285Y-53883390D02*
X201642857Y-54454819D01*
X201642857Y-54454819D02*
X202261904Y-54454819D01*
X204567142Y-26704819D02*
X204233809Y-26228628D01*
X203995714Y-26704819D02*
X203995714Y-25704819D01*
X203995714Y-25704819D02*
X204376666Y-25704819D01*
X204376666Y-25704819D02*
X204471904Y-25752438D01*
X204471904Y-25752438D02*
X204519523Y-25800057D01*
X204519523Y-25800057D02*
X204567142Y-25895295D01*
X204567142Y-25895295D02*
X204567142Y-26038152D01*
X204567142Y-26038152D02*
X204519523Y-26133390D01*
X204519523Y-26133390D02*
X204471904Y-26181009D01*
X204471904Y-26181009D02*
X204376666Y-26228628D01*
X204376666Y-26228628D02*
X203995714Y-26228628D01*
X204948095Y-25800057D02*
X204995714Y-25752438D01*
X204995714Y-25752438D02*
X205090952Y-25704819D01*
X205090952Y-25704819D02*
X205329047Y-25704819D01*
X205329047Y-25704819D02*
X205424285Y-25752438D01*
X205424285Y-25752438D02*
X205471904Y-25800057D01*
X205471904Y-25800057D02*
X205519523Y-25895295D01*
X205519523Y-25895295D02*
X205519523Y-25990533D01*
X205519523Y-25990533D02*
X205471904Y-26133390D01*
X205471904Y-26133390D02*
X204900476Y-26704819D01*
X204900476Y-26704819D02*
X205519523Y-26704819D01*
X205852857Y-25704819D02*
X206471904Y-25704819D01*
X206471904Y-25704819D02*
X206138571Y-26085771D01*
X206138571Y-26085771D02*
X206281428Y-26085771D01*
X206281428Y-26085771D02*
X206376666Y-26133390D01*
X206376666Y-26133390D02*
X206424285Y-26181009D01*
X206424285Y-26181009D02*
X206471904Y-26276247D01*
X206471904Y-26276247D02*
X206471904Y-26514342D01*
X206471904Y-26514342D02*
X206424285Y-26609580D01*
X206424285Y-26609580D02*
X206376666Y-26657200D01*
X206376666Y-26657200D02*
X206281428Y-26704819D01*
X206281428Y-26704819D02*
X205995714Y-26704819D01*
X205995714Y-26704819D02*
X205900476Y-26657200D01*
X205900476Y-26657200D02*
X205852857Y-26609580D01*
D13*
X205069283Y-51200000D02*
X204735950Y-51433333D01*
X205069283Y-51600000D02*
X204369283Y-51600000D01*
X204369283Y-51600000D02*
X204369283Y-51333333D01*
X204369283Y-51333333D02*
X204402616Y-51266667D01*
X204402616Y-51266667D02*
X204435950Y-51233333D01*
X204435950Y-51233333D02*
X204502616Y-51200000D01*
X204502616Y-51200000D02*
X204602616Y-51200000D01*
X204602616Y-51200000D02*
X204669283Y-51233333D01*
X204669283Y-51233333D02*
X204702616Y-51266667D01*
X204702616Y-51266667D02*
X204735950Y-51333333D01*
X204735950Y-51333333D02*
X204735950Y-51600000D01*
X205069283Y-50533333D02*
X205069283Y-50933333D01*
X205069283Y-50733333D02*
X204369283Y-50733333D01*
X204369283Y-50733333D02*
X204469283Y-50800000D01*
X204469283Y-50800000D02*
X204535950Y-50866667D01*
X204535950Y-50866667D02*
X204569283Y-50933333D01*
X204602616Y-49933333D02*
X205069283Y-49933333D01*
X204335950Y-50100000D02*
X204835950Y-50266666D01*
X204835950Y-50266666D02*
X204835950Y-49833333D01*
D12*
X190954819Y-54833333D02*
X191669104Y-54833333D01*
X191669104Y-54833333D02*
X191811961Y-54880952D01*
X191811961Y-54880952D02*
X191907200Y-54976190D01*
X191907200Y-54976190D02*
X191954819Y-55119047D01*
X191954819Y-55119047D02*
X191954819Y-55214285D01*
X191288152Y-53928571D02*
X191954819Y-53928571D01*
X190907200Y-54166666D02*
X191621485Y-54404761D01*
X191621485Y-54404761D02*
X191621485Y-53785714D01*
X213109580Y-33142857D02*
X213157200Y-33190476D01*
X213157200Y-33190476D02*
X213204819Y-33333333D01*
X213204819Y-33333333D02*
X213204819Y-33428571D01*
X213204819Y-33428571D02*
X213157200Y-33571428D01*
X213157200Y-33571428D02*
X213061961Y-33666666D01*
X213061961Y-33666666D02*
X212966723Y-33714285D01*
X212966723Y-33714285D02*
X212776247Y-33761904D01*
X212776247Y-33761904D02*
X212633390Y-33761904D01*
X212633390Y-33761904D02*
X212442914Y-33714285D01*
X212442914Y-33714285D02*
X212347676Y-33666666D01*
X212347676Y-33666666D02*
X212252438Y-33571428D01*
X212252438Y-33571428D02*
X212204819Y-33428571D01*
X212204819Y-33428571D02*
X212204819Y-33333333D01*
X212204819Y-33333333D02*
X212252438Y-33190476D01*
X212252438Y-33190476D02*
X212300057Y-33142857D01*
X213204819Y-32190476D02*
X213204819Y-32761904D01*
X213204819Y-32476190D02*
X212204819Y-32476190D01*
X212204819Y-32476190D02*
X212347676Y-32571428D01*
X212347676Y-32571428D02*
X212442914Y-32666666D01*
X212442914Y-32666666D02*
X212490533Y-32761904D01*
X212633390Y-31619047D02*
X212585771Y-31714285D01*
X212585771Y-31714285D02*
X212538152Y-31761904D01*
X212538152Y-31761904D02*
X212442914Y-31809523D01*
X212442914Y-31809523D02*
X212395295Y-31809523D01*
X212395295Y-31809523D02*
X212300057Y-31761904D01*
X212300057Y-31761904D02*
X212252438Y-31714285D01*
X212252438Y-31714285D02*
X212204819Y-31619047D01*
X212204819Y-31619047D02*
X212204819Y-31428571D01*
X212204819Y-31428571D02*
X212252438Y-31333333D01*
X212252438Y-31333333D02*
X212300057Y-31285714D01*
X212300057Y-31285714D02*
X212395295Y-31238095D01*
X212395295Y-31238095D02*
X212442914Y-31238095D01*
X212442914Y-31238095D02*
X212538152Y-31285714D01*
X212538152Y-31285714D02*
X212585771Y-31333333D01*
X212585771Y-31333333D02*
X212633390Y-31428571D01*
X212633390Y-31428571D02*
X212633390Y-31619047D01*
X212633390Y-31619047D02*
X212681009Y-31714285D01*
X212681009Y-31714285D02*
X212728628Y-31761904D01*
X212728628Y-31761904D02*
X212823866Y-31809523D01*
X212823866Y-31809523D02*
X213014342Y-31809523D01*
X213014342Y-31809523D02*
X213109580Y-31761904D01*
X213109580Y-31761904D02*
X213157200Y-31714285D01*
X213157200Y-31714285D02*
X213204819Y-31619047D01*
X213204819Y-31619047D02*
X213204819Y-31428571D01*
X213204819Y-31428571D02*
X213157200Y-31333333D01*
X213157200Y-31333333D02*
X213109580Y-31285714D01*
X213109580Y-31285714D02*
X213014342Y-31238095D01*
X213014342Y-31238095D02*
X212823866Y-31238095D01*
X212823866Y-31238095D02*
X212728628Y-31285714D01*
X212728628Y-31285714D02*
X212681009Y-31333333D01*
X212681009Y-31333333D02*
X212633390Y-31428571D01*
X195204819Y-31142857D02*
X194728628Y-31476190D01*
X195204819Y-31714285D02*
X194204819Y-31714285D01*
X194204819Y-31714285D02*
X194204819Y-31333333D01*
X194204819Y-31333333D02*
X194252438Y-31238095D01*
X194252438Y-31238095D02*
X194300057Y-31190476D01*
X194300057Y-31190476D02*
X194395295Y-31142857D01*
X194395295Y-31142857D02*
X194538152Y-31142857D01*
X194538152Y-31142857D02*
X194633390Y-31190476D01*
X194633390Y-31190476D02*
X194681009Y-31238095D01*
X194681009Y-31238095D02*
X194728628Y-31333333D01*
X194728628Y-31333333D02*
X194728628Y-31714285D01*
X195204819Y-30190476D02*
X195204819Y-30761904D01*
X195204819Y-30476190D02*
X194204819Y-30476190D01*
X194204819Y-30476190D02*
X194347676Y-30571428D01*
X194347676Y-30571428D02*
X194442914Y-30666666D01*
X194442914Y-30666666D02*
X194490533Y-30761904D01*
X194204819Y-29571428D02*
X194204819Y-29476190D01*
X194204819Y-29476190D02*
X194252438Y-29380952D01*
X194252438Y-29380952D02*
X194300057Y-29333333D01*
X194300057Y-29333333D02*
X194395295Y-29285714D01*
X194395295Y-29285714D02*
X194585771Y-29238095D01*
X194585771Y-29238095D02*
X194823866Y-29238095D01*
X194823866Y-29238095D02*
X195014342Y-29285714D01*
X195014342Y-29285714D02*
X195109580Y-29333333D01*
X195109580Y-29333333D02*
X195157200Y-29380952D01*
X195157200Y-29380952D02*
X195204819Y-29476190D01*
X195204819Y-29476190D02*
X195204819Y-29571428D01*
X195204819Y-29571428D02*
X195157200Y-29666666D01*
X195157200Y-29666666D02*
X195109580Y-29714285D01*
X195109580Y-29714285D02*
X195014342Y-29761904D01*
X195014342Y-29761904D02*
X194823866Y-29809523D01*
X194823866Y-29809523D02*
X194585771Y-29809523D01*
X194585771Y-29809523D02*
X194395295Y-29761904D01*
X194395295Y-29761904D02*
X194300057Y-29714285D01*
X194300057Y-29714285D02*
X194252438Y-29666666D01*
X194252438Y-29666666D02*
X194204819Y-29571428D01*
X216134819Y-33392857D02*
X215658628Y-33726190D01*
X216134819Y-33964285D02*
X215134819Y-33964285D01*
X215134819Y-33964285D02*
X215134819Y-33583333D01*
X215134819Y-33583333D02*
X215182438Y-33488095D01*
X215182438Y-33488095D02*
X215230057Y-33440476D01*
X215230057Y-33440476D02*
X215325295Y-33392857D01*
X215325295Y-33392857D02*
X215468152Y-33392857D01*
X215468152Y-33392857D02*
X215563390Y-33440476D01*
X215563390Y-33440476D02*
X215611009Y-33488095D01*
X215611009Y-33488095D02*
X215658628Y-33583333D01*
X215658628Y-33583333D02*
X215658628Y-33964285D01*
X215230057Y-33011904D02*
X215182438Y-32964285D01*
X215182438Y-32964285D02*
X215134819Y-32869047D01*
X215134819Y-32869047D02*
X215134819Y-32630952D01*
X215134819Y-32630952D02*
X215182438Y-32535714D01*
X215182438Y-32535714D02*
X215230057Y-32488095D01*
X215230057Y-32488095D02*
X215325295Y-32440476D01*
X215325295Y-32440476D02*
X215420533Y-32440476D01*
X215420533Y-32440476D02*
X215563390Y-32488095D01*
X215563390Y-32488095D02*
X216134819Y-33059523D01*
X216134819Y-33059523D02*
X216134819Y-32440476D01*
X215134819Y-31535714D02*
X215134819Y-32011904D01*
X215134819Y-32011904D02*
X215611009Y-32059523D01*
X215611009Y-32059523D02*
X215563390Y-32011904D01*
X215563390Y-32011904D02*
X215515771Y-31916666D01*
X215515771Y-31916666D02*
X215515771Y-31678571D01*
X215515771Y-31678571D02*
X215563390Y-31583333D01*
X215563390Y-31583333D02*
X215611009Y-31535714D01*
X215611009Y-31535714D02*
X215706247Y-31488095D01*
X215706247Y-31488095D02*
X215944342Y-31488095D01*
X215944342Y-31488095D02*
X216039580Y-31535714D01*
X216039580Y-31535714D02*
X216087200Y-31583333D01*
X216087200Y-31583333D02*
X216134819Y-31678571D01*
X216134819Y-31678571D02*
X216134819Y-31916666D01*
X216134819Y-31916666D02*
X216087200Y-32011904D01*
X216087200Y-32011904D02*
X216039580Y-32059523D01*
D10*
X225154167Y-62688704D02*
X225116071Y-62726800D01*
X225116071Y-62726800D02*
X225001786Y-62764895D01*
X225001786Y-62764895D02*
X224925595Y-62764895D01*
X224925595Y-62764895D02*
X224811309Y-62726800D01*
X224811309Y-62726800D02*
X224735119Y-62650609D01*
X224735119Y-62650609D02*
X224697024Y-62574419D01*
X224697024Y-62574419D02*
X224658928Y-62422038D01*
X224658928Y-62422038D02*
X224658928Y-62307752D01*
X224658928Y-62307752D02*
X224697024Y-62155371D01*
X224697024Y-62155371D02*
X224735119Y-62079180D01*
X224735119Y-62079180D02*
X224811309Y-62002990D01*
X224811309Y-62002990D02*
X224925595Y-61964895D01*
X224925595Y-61964895D02*
X225001786Y-61964895D01*
X225001786Y-61964895D02*
X225116071Y-62002990D01*
X225116071Y-62002990D02*
X225154167Y-62041085D01*
X225877976Y-61964895D02*
X225497024Y-61964895D01*
X225497024Y-61964895D02*
X225458928Y-62345847D01*
X225458928Y-62345847D02*
X225497024Y-62307752D01*
X225497024Y-62307752D02*
X225573214Y-62269657D01*
X225573214Y-62269657D02*
X225763690Y-62269657D01*
X225763690Y-62269657D02*
X225839881Y-62307752D01*
X225839881Y-62307752D02*
X225877976Y-62345847D01*
X225877976Y-62345847D02*
X225916071Y-62422038D01*
X225916071Y-62422038D02*
X225916071Y-62612514D01*
X225916071Y-62612514D02*
X225877976Y-62688704D01*
X225877976Y-62688704D02*
X225839881Y-62726800D01*
X225839881Y-62726800D02*
X225763690Y-62764895D01*
X225763690Y-62764895D02*
X225573214Y-62764895D01*
X225573214Y-62764895D02*
X225497024Y-62726800D01*
X225497024Y-62726800D02*
X225458928Y-62688704D01*
D12*
X220523809Y-48728628D02*
X220523809Y-49204819D01*
X220190476Y-48204819D02*
X220523809Y-48728628D01*
X220523809Y-48728628D02*
X220857142Y-48204819D01*
X221142857Y-48300057D02*
X221190476Y-48252438D01*
X221190476Y-48252438D02*
X221285714Y-48204819D01*
X221285714Y-48204819D02*
X221523809Y-48204819D01*
X221523809Y-48204819D02*
X221619047Y-48252438D01*
X221619047Y-48252438D02*
X221666666Y-48300057D01*
X221666666Y-48300057D02*
X221714285Y-48395295D01*
X221714285Y-48395295D02*
X221714285Y-48490533D01*
X221714285Y-48490533D02*
X221666666Y-48633390D01*
X221666666Y-48633390D02*
X221095238Y-49204819D01*
X221095238Y-49204819D02*
X221714285Y-49204819D01*
X205454819Y-65919047D02*
X205454819Y-66395237D01*
X205454819Y-66395237D02*
X204454819Y-66395237D01*
X204931009Y-65585713D02*
X204931009Y-65252380D01*
X205454819Y-65109523D02*
X205454819Y-65585713D01*
X205454819Y-65585713D02*
X204454819Y-65585713D01*
X204454819Y-65585713D02*
X204454819Y-65109523D01*
X205454819Y-64680951D02*
X204454819Y-64680951D01*
X204454819Y-64680951D02*
X204454819Y-64442856D01*
X204454819Y-64442856D02*
X204502438Y-64299999D01*
X204502438Y-64299999D02*
X204597676Y-64204761D01*
X204597676Y-64204761D02*
X204692914Y-64157142D01*
X204692914Y-64157142D02*
X204883390Y-64109523D01*
X204883390Y-64109523D02*
X205026247Y-64109523D01*
X205026247Y-64109523D02*
X205216723Y-64157142D01*
X205216723Y-64157142D02*
X205311961Y-64204761D01*
X205311961Y-64204761D02*
X205407200Y-64299999D01*
X205407200Y-64299999D02*
X205454819Y-64442856D01*
X205454819Y-64442856D02*
X205454819Y-64680951D01*
X205454819Y-63157142D02*
X205454819Y-63728570D01*
X205454819Y-63442856D02*
X204454819Y-63442856D01*
X204454819Y-63442856D02*
X204597676Y-63538094D01*
X204597676Y-63538094D02*
X204692914Y-63633332D01*
X204692914Y-63633332D02*
X204740533Y-63728570D01*
X195761905Y-25089819D02*
X195761905Y-25899342D01*
X195761905Y-25899342D02*
X195809524Y-25994580D01*
X195809524Y-25994580D02*
X195857143Y-26042200D01*
X195857143Y-26042200D02*
X195952381Y-26089819D01*
X195952381Y-26089819D02*
X196142857Y-26089819D01*
X196142857Y-26089819D02*
X196238095Y-26042200D01*
X196238095Y-26042200D02*
X196285714Y-25994580D01*
X196285714Y-25994580D02*
X196333333Y-25899342D01*
X196333333Y-25899342D02*
X196333333Y-25089819D01*
X196761905Y-26042200D02*
X196904762Y-26089819D01*
X196904762Y-26089819D02*
X197142857Y-26089819D01*
X197142857Y-26089819D02*
X197238095Y-26042200D01*
X197238095Y-26042200D02*
X197285714Y-25994580D01*
X197285714Y-25994580D02*
X197333333Y-25899342D01*
X197333333Y-25899342D02*
X197333333Y-25804104D01*
X197333333Y-25804104D02*
X197285714Y-25708866D01*
X197285714Y-25708866D02*
X197238095Y-25661247D01*
X197238095Y-25661247D02*
X197142857Y-25613628D01*
X197142857Y-25613628D02*
X196952381Y-25566009D01*
X196952381Y-25566009D02*
X196857143Y-25518390D01*
X196857143Y-25518390D02*
X196809524Y-25470771D01*
X196809524Y-25470771D02*
X196761905Y-25375533D01*
X196761905Y-25375533D02*
X196761905Y-25280295D01*
X196761905Y-25280295D02*
X196809524Y-25185057D01*
X196809524Y-25185057D02*
X196857143Y-25137438D01*
X196857143Y-25137438D02*
X196952381Y-25089819D01*
X196952381Y-25089819D02*
X197190476Y-25089819D01*
X197190476Y-25089819D02*
X197333333Y-25137438D01*
X198095238Y-25566009D02*
X198238095Y-25613628D01*
X198238095Y-25613628D02*
X198285714Y-25661247D01*
X198285714Y-25661247D02*
X198333333Y-25756485D01*
X198333333Y-25756485D02*
X198333333Y-25899342D01*
X198333333Y-25899342D02*
X198285714Y-25994580D01*
X198285714Y-25994580D02*
X198238095Y-26042200D01*
X198238095Y-26042200D02*
X198142857Y-26089819D01*
X198142857Y-26089819D02*
X197761905Y-26089819D01*
X197761905Y-26089819D02*
X197761905Y-25089819D01*
X197761905Y-25089819D02*
X198095238Y-25089819D01*
X198095238Y-25089819D02*
X198190476Y-25137438D01*
X198190476Y-25137438D02*
X198238095Y-25185057D01*
X198238095Y-25185057D02*
X198285714Y-25280295D01*
X198285714Y-25280295D02*
X198285714Y-25375533D01*
X198285714Y-25375533D02*
X198238095Y-25470771D01*
X198238095Y-25470771D02*
X198190476Y-25518390D01*
X198190476Y-25518390D02*
X198095238Y-25566009D01*
X198095238Y-25566009D02*
X197761905Y-25566009D01*
X199285714Y-26089819D02*
X198714286Y-26089819D01*
X199000000Y-26089819D02*
X199000000Y-25089819D01*
X199000000Y-25089819D02*
X198904762Y-25232676D01*
X198904762Y-25232676D02*
X198809524Y-25327914D01*
X198809524Y-25327914D02*
X198714286Y-25375533D01*
X204033333Y-62859580D02*
X203985714Y-62907200D01*
X203985714Y-62907200D02*
X203842857Y-62954819D01*
X203842857Y-62954819D02*
X203747619Y-62954819D01*
X203747619Y-62954819D02*
X203604762Y-62907200D01*
X203604762Y-62907200D02*
X203509524Y-62811961D01*
X203509524Y-62811961D02*
X203461905Y-62716723D01*
X203461905Y-62716723D02*
X203414286Y-62526247D01*
X203414286Y-62526247D02*
X203414286Y-62383390D01*
X203414286Y-62383390D02*
X203461905Y-62192914D01*
X203461905Y-62192914D02*
X203509524Y-62097676D01*
X203509524Y-62097676D02*
X203604762Y-62002438D01*
X203604762Y-62002438D02*
X203747619Y-61954819D01*
X203747619Y-61954819D02*
X203842857Y-61954819D01*
X203842857Y-61954819D02*
X203985714Y-62002438D01*
X203985714Y-62002438D02*
X204033333Y-62050057D01*
X204985714Y-62954819D02*
X204414286Y-62954819D01*
X204700000Y-62954819D02*
X204700000Y-61954819D01*
X204700000Y-61954819D02*
X204604762Y-62097676D01*
X204604762Y-62097676D02*
X204509524Y-62192914D01*
X204509524Y-62192914D02*
X204414286Y-62240533D01*
X205007142Y-32054819D02*
X204673809Y-31578628D01*
X204435714Y-32054819D02*
X204435714Y-31054819D01*
X204435714Y-31054819D02*
X204816666Y-31054819D01*
X204816666Y-31054819D02*
X204911904Y-31102438D01*
X204911904Y-31102438D02*
X204959523Y-31150057D01*
X204959523Y-31150057D02*
X205007142Y-31245295D01*
X205007142Y-31245295D02*
X205007142Y-31388152D01*
X205007142Y-31388152D02*
X204959523Y-31483390D01*
X204959523Y-31483390D02*
X204911904Y-31531009D01*
X204911904Y-31531009D02*
X204816666Y-31578628D01*
X204816666Y-31578628D02*
X204435714Y-31578628D01*
X205388095Y-31150057D02*
X205435714Y-31102438D01*
X205435714Y-31102438D02*
X205530952Y-31054819D01*
X205530952Y-31054819D02*
X205769047Y-31054819D01*
X205769047Y-31054819D02*
X205864285Y-31102438D01*
X205864285Y-31102438D02*
X205911904Y-31150057D01*
X205911904Y-31150057D02*
X205959523Y-31245295D01*
X205959523Y-31245295D02*
X205959523Y-31340533D01*
X205959523Y-31340533D02*
X205911904Y-31483390D01*
X205911904Y-31483390D02*
X205340476Y-32054819D01*
X205340476Y-32054819D02*
X205959523Y-32054819D01*
X206816666Y-31388152D02*
X206816666Y-32054819D01*
X206578571Y-31007200D02*
X206340476Y-31721485D01*
X206340476Y-31721485D02*
X206959523Y-31721485D01*
D10*
X193832419Y-47833333D02*
X194546704Y-47833333D01*
X194546704Y-47833333D02*
X194689561Y-47880952D01*
X194689561Y-47880952D02*
X194784800Y-47976190D01*
X194784800Y-47976190D02*
X194832419Y-48119047D01*
X194832419Y-48119047D02*
X194832419Y-48214285D01*
X194832419Y-46833333D02*
X194832419Y-47404761D01*
X194832419Y-47119047D02*
X193832419Y-47119047D01*
X193832419Y-47119047D02*
X193975276Y-47214285D01*
X193975276Y-47214285D02*
X194070514Y-47309523D01*
X194070514Y-47309523D02*
X194118133Y-47404761D01*
D12*
X205607142Y-54704819D02*
X205273809Y-54228628D01*
X205035714Y-54704819D02*
X205035714Y-53704819D01*
X205035714Y-53704819D02*
X205416666Y-53704819D01*
X205416666Y-53704819D02*
X205511904Y-53752438D01*
X205511904Y-53752438D02*
X205559523Y-53800057D01*
X205559523Y-53800057D02*
X205607142Y-53895295D01*
X205607142Y-53895295D02*
X205607142Y-54038152D01*
X205607142Y-54038152D02*
X205559523Y-54133390D01*
X205559523Y-54133390D02*
X205511904Y-54181009D01*
X205511904Y-54181009D02*
X205416666Y-54228628D01*
X205416666Y-54228628D02*
X205035714Y-54228628D01*
X205988095Y-53800057D02*
X206035714Y-53752438D01*
X206035714Y-53752438D02*
X206130952Y-53704819D01*
X206130952Y-53704819D02*
X206369047Y-53704819D01*
X206369047Y-53704819D02*
X206464285Y-53752438D01*
X206464285Y-53752438D02*
X206511904Y-53800057D01*
X206511904Y-53800057D02*
X206559523Y-53895295D01*
X206559523Y-53895295D02*
X206559523Y-53990533D01*
X206559523Y-53990533D02*
X206511904Y-54133390D01*
X206511904Y-54133390D02*
X205940476Y-54704819D01*
X205940476Y-54704819D02*
X206559523Y-54704819D01*
X207511904Y-54704819D02*
X206940476Y-54704819D01*
X207226190Y-54704819D02*
X207226190Y-53704819D01*
X207226190Y-53704819D02*
X207130952Y-53847676D01*
X207130952Y-53847676D02*
X207035714Y-53942914D01*
X207035714Y-53942914D02*
X206940476Y-53990533D01*
D10*
X225616667Y-67364895D02*
X225350000Y-66983942D01*
X225159524Y-67364895D02*
X225159524Y-66564895D01*
X225159524Y-66564895D02*
X225464286Y-66564895D01*
X225464286Y-66564895D02*
X225540476Y-66602990D01*
X225540476Y-66602990D02*
X225578571Y-66641085D01*
X225578571Y-66641085D02*
X225616667Y-66717276D01*
X225616667Y-66717276D02*
X225616667Y-66831561D01*
X225616667Y-66831561D02*
X225578571Y-66907752D01*
X225578571Y-66907752D02*
X225540476Y-66945847D01*
X225540476Y-66945847D02*
X225464286Y-66983942D01*
X225464286Y-66983942D02*
X225159524Y-66983942D01*
X225883333Y-66564895D02*
X226378571Y-66564895D01*
X226378571Y-66564895D02*
X226111905Y-66869657D01*
X226111905Y-66869657D02*
X226226190Y-66869657D01*
X226226190Y-66869657D02*
X226302381Y-66907752D01*
X226302381Y-66907752D02*
X226340476Y-66945847D01*
X226340476Y-66945847D02*
X226378571Y-67022038D01*
X226378571Y-67022038D02*
X226378571Y-67212514D01*
X226378571Y-67212514D02*
X226340476Y-67288704D01*
X226340476Y-67288704D02*
X226302381Y-67326800D01*
X226302381Y-67326800D02*
X226226190Y-67364895D01*
X226226190Y-67364895D02*
X225997619Y-67364895D01*
X225997619Y-67364895D02*
X225921428Y-67326800D01*
X225921428Y-67326800D02*
X225883333Y-67288704D01*
X194192580Y-77638095D02*
X193383057Y-77638095D01*
X193383057Y-77638095D02*
X193287819Y-77685714D01*
X193287819Y-77685714D02*
X193240200Y-77733333D01*
X193240200Y-77733333D02*
X193192580Y-77828571D01*
X193192580Y-77828571D02*
X193192580Y-78019047D01*
X193192580Y-78019047D02*
X193240200Y-78114285D01*
X193240200Y-78114285D02*
X193287819Y-78161904D01*
X193287819Y-78161904D02*
X193383057Y-78209523D01*
X193383057Y-78209523D02*
X194192580Y-78209523D01*
X193859247Y-79114285D02*
X193192580Y-79114285D01*
X194240200Y-78876190D02*
X193525914Y-78638095D01*
X193525914Y-78638095D02*
X193525914Y-79257142D01*
D12*
X190954819Y-67333333D02*
X191669104Y-67333333D01*
X191669104Y-67333333D02*
X191811961Y-67380952D01*
X191811961Y-67380952D02*
X191907200Y-67476190D01*
X191907200Y-67476190D02*
X191954819Y-67619047D01*
X191954819Y-67619047D02*
X191954819Y-67714285D01*
X191050057Y-66904761D02*
X191002438Y-66857142D01*
X191002438Y-66857142D02*
X190954819Y-66761904D01*
X190954819Y-66761904D02*
X190954819Y-66523809D01*
X190954819Y-66523809D02*
X191002438Y-66428571D01*
X191002438Y-66428571D02*
X191050057Y-66380952D01*
X191050057Y-66380952D02*
X191145295Y-66333333D01*
X191145295Y-66333333D02*
X191240533Y-66333333D01*
X191240533Y-66333333D02*
X191383390Y-66380952D01*
X191383390Y-66380952D02*
X191954819Y-66952380D01*
X191954819Y-66952380D02*
X191954819Y-66333333D01*
X213833333Y-38954819D02*
X213500000Y-38478628D01*
X213261905Y-38954819D02*
X213261905Y-37954819D01*
X213261905Y-37954819D02*
X213642857Y-37954819D01*
X213642857Y-37954819D02*
X213738095Y-38002438D01*
X213738095Y-38002438D02*
X213785714Y-38050057D01*
X213785714Y-38050057D02*
X213833333Y-38145295D01*
X213833333Y-38145295D02*
X213833333Y-38288152D01*
X213833333Y-38288152D02*
X213785714Y-38383390D01*
X213785714Y-38383390D02*
X213738095Y-38431009D01*
X213738095Y-38431009D02*
X213642857Y-38478628D01*
X213642857Y-38478628D02*
X213261905Y-38478628D01*
X214309524Y-38954819D02*
X214500000Y-38954819D01*
X214500000Y-38954819D02*
X214595238Y-38907200D01*
X214595238Y-38907200D02*
X214642857Y-38859580D01*
X214642857Y-38859580D02*
X214738095Y-38716723D01*
X214738095Y-38716723D02*
X214785714Y-38526247D01*
X214785714Y-38526247D02*
X214785714Y-38145295D01*
X214785714Y-38145295D02*
X214738095Y-38050057D01*
X214738095Y-38050057D02*
X214690476Y-38002438D01*
X214690476Y-38002438D02*
X214595238Y-37954819D01*
X214595238Y-37954819D02*
X214404762Y-37954819D01*
X214404762Y-37954819D02*
X214309524Y-38002438D01*
X214309524Y-38002438D02*
X214261905Y-38050057D01*
X214261905Y-38050057D02*
X214214286Y-38145295D01*
X214214286Y-38145295D02*
X214214286Y-38383390D01*
X214214286Y-38383390D02*
X214261905Y-38478628D01*
X214261905Y-38478628D02*
X214309524Y-38526247D01*
X214309524Y-38526247D02*
X214404762Y-38573866D01*
X214404762Y-38573866D02*
X214595238Y-38573866D01*
X214595238Y-38573866D02*
X214690476Y-38526247D01*
X214690476Y-38526247D02*
X214738095Y-38478628D01*
X214738095Y-38478628D02*
X214785714Y-38383390D01*
D10*
X227288704Y-64264285D02*
X227326800Y-64302381D01*
X227326800Y-64302381D02*
X227364895Y-64416666D01*
X227364895Y-64416666D02*
X227364895Y-64492857D01*
X227364895Y-64492857D02*
X227326800Y-64607143D01*
X227326800Y-64607143D02*
X227250609Y-64683333D01*
X227250609Y-64683333D02*
X227174419Y-64721428D01*
X227174419Y-64721428D02*
X227022038Y-64759524D01*
X227022038Y-64759524D02*
X226907752Y-64759524D01*
X226907752Y-64759524D02*
X226755371Y-64721428D01*
X226755371Y-64721428D02*
X226679180Y-64683333D01*
X226679180Y-64683333D02*
X226602990Y-64607143D01*
X226602990Y-64607143D02*
X226564895Y-64492857D01*
X226564895Y-64492857D02*
X226564895Y-64416666D01*
X226564895Y-64416666D02*
X226602990Y-64302381D01*
X226602990Y-64302381D02*
X226641085Y-64264285D01*
X227364895Y-63502381D02*
X227364895Y-63959524D01*
X227364895Y-63730952D02*
X226564895Y-63730952D01*
X226564895Y-63730952D02*
X226679180Y-63807143D01*
X226679180Y-63807143D02*
X226755371Y-63883333D01*
X226755371Y-63883333D02*
X226793466Y-63959524D01*
X226831561Y-62816666D02*
X227364895Y-62816666D01*
X226526800Y-63007142D02*
X227098228Y-63197619D01*
X227098228Y-63197619D02*
X227098228Y-62702380D01*
D12*
X215273809Y-54478628D02*
X215273809Y-54954819D01*
X214940476Y-53954819D02*
X215273809Y-54478628D01*
X215273809Y-54478628D02*
X215607142Y-53954819D01*
X216464285Y-54954819D02*
X215892857Y-54954819D01*
X216178571Y-54954819D02*
X216178571Y-53954819D01*
X216178571Y-53954819D02*
X216083333Y-54097676D01*
X216083333Y-54097676D02*
X215988095Y-54192914D01*
X215988095Y-54192914D02*
X215892857Y-54240533D01*
D10*
X228364895Y-53733333D02*
X228364895Y-54114285D01*
X228364895Y-54114285D02*
X227564895Y-54114285D01*
X227564895Y-53542857D02*
X227564895Y-53047619D01*
X227564895Y-53047619D02*
X227869657Y-53314285D01*
X227869657Y-53314285D02*
X227869657Y-53200000D01*
X227869657Y-53200000D02*
X227907752Y-53123809D01*
X227907752Y-53123809D02*
X227945847Y-53085714D01*
X227945847Y-53085714D02*
X228022038Y-53047619D01*
X228022038Y-53047619D02*
X228212514Y-53047619D01*
X228212514Y-53047619D02*
X228288704Y-53085714D01*
X228288704Y-53085714D02*
X228326800Y-53123809D01*
X228326800Y-53123809D02*
X228364895Y-53200000D01*
X228364895Y-53200000D02*
X228364895Y-53428571D01*
X228364895Y-53428571D02*
X228326800Y-53504762D01*
X228326800Y-53504762D02*
X228288704Y-53542857D01*
D12*
X199666667Y-40907200D02*
X199809524Y-40954819D01*
X199809524Y-40954819D02*
X200047619Y-40954819D01*
X200047619Y-40954819D02*
X200142857Y-40907200D01*
X200142857Y-40907200D02*
X200190476Y-40859580D01*
X200190476Y-40859580D02*
X200238095Y-40764342D01*
X200238095Y-40764342D02*
X200238095Y-40669104D01*
X200238095Y-40669104D02*
X200190476Y-40573866D01*
X200190476Y-40573866D02*
X200142857Y-40526247D01*
X200142857Y-40526247D02*
X200047619Y-40478628D01*
X200047619Y-40478628D02*
X199857143Y-40431009D01*
X199857143Y-40431009D02*
X199761905Y-40383390D01*
X199761905Y-40383390D02*
X199714286Y-40335771D01*
X199714286Y-40335771D02*
X199666667Y-40240533D01*
X199666667Y-40240533D02*
X199666667Y-40145295D01*
X199666667Y-40145295D02*
X199714286Y-40050057D01*
X199714286Y-40050057D02*
X199761905Y-40002438D01*
X199761905Y-40002438D02*
X199857143Y-39954819D01*
X199857143Y-39954819D02*
X200095238Y-39954819D01*
X200095238Y-39954819D02*
X200238095Y-40002438D01*
X200571429Y-39954819D02*
X200809524Y-40954819D01*
X200809524Y-40954819D02*
X201000000Y-40240533D01*
X201000000Y-40240533D02*
X201190476Y-40954819D01*
X201190476Y-40954819D02*
X201428572Y-39954819D01*
X202333333Y-40954819D02*
X201761905Y-40954819D01*
X202047619Y-40954819D02*
X202047619Y-39954819D01*
X202047619Y-39954819D02*
X201952381Y-40097676D01*
X201952381Y-40097676D02*
X201857143Y-40192914D01*
X201857143Y-40192914D02*
X201761905Y-40240533D01*
X187954819Y-48285713D02*
X187954819Y-47714285D01*
X188954819Y-47999999D02*
X187954819Y-47999999D01*
X188954819Y-47380951D02*
X187954819Y-47380951D01*
X188431009Y-47380951D02*
X188431009Y-46809523D01*
X188954819Y-46809523D02*
X187954819Y-46809523D01*
X188954819Y-45809523D02*
X188954819Y-46380951D01*
X188954819Y-46095237D02*
X187954819Y-46095237D01*
X187954819Y-46095237D02*
X188097676Y-46190475D01*
X188097676Y-46190475D02*
X188192914Y-46285713D01*
X188192914Y-46285713D02*
X188240533Y-46380951D01*
X188954819Y-29805357D02*
X188478628Y-30138690D01*
X188954819Y-30376785D02*
X187954819Y-30376785D01*
X187954819Y-30376785D02*
X187954819Y-29995833D01*
X187954819Y-29995833D02*
X188002438Y-29900595D01*
X188002438Y-29900595D02*
X188050057Y-29852976D01*
X188050057Y-29852976D02*
X188145295Y-29805357D01*
X188145295Y-29805357D02*
X188288152Y-29805357D01*
X188288152Y-29805357D02*
X188383390Y-29852976D01*
X188383390Y-29852976D02*
X188431009Y-29900595D01*
X188431009Y-29900595D02*
X188478628Y-29995833D01*
X188478628Y-29995833D02*
X188478628Y-30376785D01*
X188050057Y-29424404D02*
X188002438Y-29376785D01*
X188002438Y-29376785D02*
X187954819Y-29281547D01*
X187954819Y-29281547D02*
X187954819Y-29043452D01*
X187954819Y-29043452D02*
X188002438Y-28948214D01*
X188002438Y-28948214D02*
X188050057Y-28900595D01*
X188050057Y-28900595D02*
X188145295Y-28852976D01*
X188145295Y-28852976D02*
X188240533Y-28852976D01*
X188240533Y-28852976D02*
X188383390Y-28900595D01*
X188383390Y-28900595D02*
X188954819Y-29472023D01*
X188954819Y-29472023D02*
X188954819Y-28852976D01*
X187954819Y-28233928D02*
X187954819Y-28138690D01*
X187954819Y-28138690D02*
X188002438Y-28043452D01*
X188002438Y-28043452D02*
X188050057Y-27995833D01*
X188050057Y-27995833D02*
X188145295Y-27948214D01*
X188145295Y-27948214D02*
X188335771Y-27900595D01*
X188335771Y-27900595D02*
X188573866Y-27900595D01*
X188573866Y-27900595D02*
X188764342Y-27948214D01*
X188764342Y-27948214D02*
X188859580Y-27995833D01*
X188859580Y-27995833D02*
X188907200Y-28043452D01*
X188907200Y-28043452D02*
X188954819Y-28138690D01*
X188954819Y-28138690D02*
X188954819Y-28233928D01*
X188954819Y-28233928D02*
X188907200Y-28329166D01*
X188907200Y-28329166D02*
X188859580Y-28376785D01*
X188859580Y-28376785D02*
X188764342Y-28424404D01*
X188764342Y-28424404D02*
X188573866Y-28472023D01*
X188573866Y-28472023D02*
X188335771Y-28472023D01*
X188335771Y-28472023D02*
X188145295Y-28424404D01*
X188145295Y-28424404D02*
X188050057Y-28376785D01*
X188050057Y-28376785D02*
X188002438Y-28329166D01*
X188002438Y-28329166D02*
X187954819Y-28233928D01*
X200126666Y-63454819D02*
X200126666Y-64169104D01*
X200126666Y-64169104D02*
X200079047Y-64311961D01*
X200079047Y-64311961D02*
X199983809Y-64407200D01*
X199983809Y-64407200D02*
X199840952Y-64454819D01*
X199840952Y-64454819D02*
X199745714Y-64454819D01*
X201079047Y-63454819D02*
X200602857Y-63454819D01*
X200602857Y-63454819D02*
X200555238Y-63931009D01*
X200555238Y-63931009D02*
X200602857Y-63883390D01*
X200602857Y-63883390D02*
X200698095Y-63835771D01*
X200698095Y-63835771D02*
X200936190Y-63835771D01*
X200936190Y-63835771D02*
X201031428Y-63883390D01*
X201031428Y-63883390D02*
X201079047Y-63931009D01*
X201079047Y-63931009D02*
X201126666Y-64026247D01*
X201126666Y-64026247D02*
X201126666Y-64264342D01*
X201126666Y-64264342D02*
X201079047Y-64359580D01*
X201079047Y-64359580D02*
X201031428Y-64407200D01*
X201031428Y-64407200D02*
X200936190Y-64454819D01*
X200936190Y-64454819D02*
X200698095Y-64454819D01*
X200698095Y-64454819D02*
X200602857Y-64407200D01*
X200602857Y-64407200D02*
X200555238Y-64359580D01*
X207238095Y-37454819D02*
X207238095Y-38264342D01*
X207238095Y-38264342D02*
X207285714Y-38359580D01*
X207285714Y-38359580D02*
X207333333Y-38407200D01*
X207333333Y-38407200D02*
X207428571Y-38454819D01*
X207428571Y-38454819D02*
X207619047Y-38454819D01*
X207619047Y-38454819D02*
X207714285Y-38407200D01*
X207714285Y-38407200D02*
X207761904Y-38359580D01*
X207761904Y-38359580D02*
X207809523Y-38264342D01*
X207809523Y-38264342D02*
X207809523Y-37454819D01*
X208761904Y-37454819D02*
X208285714Y-37454819D01*
X208285714Y-37454819D02*
X208238095Y-37931009D01*
X208238095Y-37931009D02*
X208285714Y-37883390D01*
X208285714Y-37883390D02*
X208380952Y-37835771D01*
X208380952Y-37835771D02*
X208619047Y-37835771D01*
X208619047Y-37835771D02*
X208714285Y-37883390D01*
X208714285Y-37883390D02*
X208761904Y-37931009D01*
X208761904Y-37931009D02*
X208809523Y-38026247D01*
X208809523Y-38026247D02*
X208809523Y-38264342D01*
X208809523Y-38264342D02*
X208761904Y-38359580D01*
X208761904Y-38359580D02*
X208714285Y-38407200D01*
X208714285Y-38407200D02*
X208619047Y-38454819D01*
X208619047Y-38454819D02*
X208380952Y-38454819D01*
X208380952Y-38454819D02*
X208285714Y-38407200D01*
X208285714Y-38407200D02*
X208238095Y-38359580D01*
X224245833Y-66454819D02*
X223912500Y-65978628D01*
X223674405Y-66454819D02*
X223674405Y-65454819D01*
X223674405Y-65454819D02*
X224055357Y-65454819D01*
X224055357Y-65454819D02*
X224150595Y-65502438D01*
X224150595Y-65502438D02*
X224198214Y-65550057D01*
X224198214Y-65550057D02*
X224245833Y-65645295D01*
X224245833Y-65645295D02*
X224245833Y-65788152D01*
X224245833Y-65788152D02*
X224198214Y-65883390D01*
X224198214Y-65883390D02*
X224150595Y-65931009D01*
X224150595Y-65931009D02*
X224055357Y-65978628D01*
X224055357Y-65978628D02*
X223674405Y-65978628D01*
X225150595Y-65454819D02*
X224674405Y-65454819D01*
X224674405Y-65454819D02*
X224626786Y-65931009D01*
X224626786Y-65931009D02*
X224674405Y-65883390D01*
X224674405Y-65883390D02*
X224769643Y-65835771D01*
X224769643Y-65835771D02*
X225007738Y-65835771D01*
X225007738Y-65835771D02*
X225102976Y-65883390D01*
X225102976Y-65883390D02*
X225150595Y-65931009D01*
X225150595Y-65931009D02*
X225198214Y-66026247D01*
X225198214Y-66026247D02*
X225198214Y-66264342D01*
X225198214Y-66264342D02*
X225150595Y-66359580D01*
X225150595Y-66359580D02*
X225102976Y-66407200D01*
X225102976Y-66407200D02*
X225007738Y-66454819D01*
X225007738Y-66454819D02*
X224769643Y-66454819D01*
X224769643Y-66454819D02*
X224674405Y-66407200D01*
X224674405Y-66407200D02*
X224626786Y-66359580D01*
%TO.C,C12*%
D16*
X227153733Y-51490000D02*
X227446267Y-51490000D01*
X227153733Y-52510000D02*
X227446267Y-52510000D01*
%TO.C,PS1*%
X206500000Y-73060000D02*
X208300000Y-73060000D01*
X207500000Y-69840000D02*
X206700000Y-69840000D01*
X207500000Y-69840000D02*
X208300000Y-69840000D01*
X206200000Y-69890000D02*
X205960000Y-69560000D01*
X206440000Y-69560000D01*
X206200000Y-69890000D01*
G36*
X206200000Y-69890000D02*
G01*
X205960000Y-69560000D01*
X206440000Y-69560000D01*
X206200000Y-69890000D01*
G37*
%TO.C,C8*%
X218853733Y-68990000D02*
X219146267Y-68990000D01*
X218853733Y-70010000D02*
X219146267Y-70010000D01*
%TO.C,R22*%
X206495276Y-57477500D02*
X207004724Y-57477500D01*
X206495276Y-58522500D02*
X207004724Y-58522500D01*
%TO.C,R15*%
X208727500Y-48745276D02*
X208727500Y-49254724D01*
X209772500Y-48745276D02*
X209772500Y-49254724D01*
%TO.C,R13*%
X208342224Y-58977500D02*
X207832776Y-58977500D01*
X208342224Y-60022500D02*
X207832776Y-60022500D01*
%TO.C,L7*%
D12*
X205220000Y-38820000D02*
X205220000Y-40090000D01*
X205220000Y-44180000D02*
X205220000Y-42930000D01*
X210780000Y-38820000D02*
X205220000Y-38820000D01*
X210780000Y-40080000D02*
X210780000Y-38820000D01*
X210780000Y-42920000D02*
X210780000Y-44180000D01*
X210780000Y-44180000D02*
X205220000Y-44180000D01*
D17*
X205330000Y-44100000D02*
G75*
G02*
X205270000Y-44100000I-30000J0D01*
G01*
X205270000Y-44100000D02*
G75*
G02*
X205330000Y-44100000I30000J0D01*
G01*
%TO.C,C25*%
D16*
X210103733Y-29490000D02*
X210396267Y-29490000D01*
X210103733Y-30510000D02*
X210396267Y-30510000D01*
%TO.C,C21*%
X206990000Y-50853733D02*
X206990000Y-51146267D01*
X208010000Y-50853733D02*
X208010000Y-51146267D01*
%TO.C,R12*%
X196227500Y-50417224D02*
X196227500Y-49907776D01*
X197272500Y-50417224D02*
X197272500Y-49907776D01*
%TO.C,U2*%
X211052500Y-58890000D02*
X211777500Y-58890000D01*
X211052500Y-59615000D02*
X211052500Y-58890000D01*
X211052500Y-66110000D02*
X211052500Y-65385000D01*
X211777500Y-66110000D02*
X211052500Y-66110000D01*
X217547500Y-58890000D02*
X218272500Y-58890000D01*
X218272500Y-58890000D02*
X218272500Y-59615000D01*
X218272500Y-65385000D02*
X218272500Y-66110000D01*
X218272500Y-66110000D02*
X217547500Y-66110000D01*
X218802500Y-65000000D02*
X219132500Y-64760000D01*
X219132500Y-65240000D01*
X218802500Y-65000000D01*
G36*
X219132500Y-65240000D02*
G01*
X218802500Y-65000000D01*
X219132500Y-64760000D01*
X219132500Y-65240000D01*
G37*
%TO.C,L4*%
X226390000Y-55472300D02*
X226390000Y-55672700D01*
X227110000Y-55472300D02*
X227110000Y-55672700D01*
%TO.C,C10*%
X223240000Y-53216233D02*
X223240000Y-53508767D01*
X224260000Y-53216233D02*
X224260000Y-53508767D01*
%TO.C,R17*%
X211477500Y-69342224D02*
X211477500Y-68832776D01*
X212522500Y-69342224D02*
X212522500Y-68832776D01*
%TO.C,C24*%
X213990000Y-69103733D02*
X213990000Y-69396267D01*
X215010000Y-69103733D02*
X215010000Y-69396267D01*
%TO.C,CHG_LED1*%
D12*
X189800000Y-22850000D02*
X189800000Y-25300000D01*
X189800000Y-25300000D02*
X192150000Y-25300000D01*
X189860000Y-22790000D02*
X189800000Y-22850000D01*
X190050000Y-22600000D02*
X189890000Y-22760000D01*
X190240000Y-23880000D02*
X190240000Y-24120000D01*
X191020000Y-23240000D02*
X190980000Y-23240000D01*
X191760000Y-23880000D02*
X191760000Y-24120000D01*
X191950000Y-22600000D02*
X190050000Y-22600000D01*
X192030000Y-22680000D02*
X189960000Y-22680000D01*
X192110000Y-22760000D02*
X191950000Y-22600000D01*
X192200000Y-22850000D02*
X192140000Y-22790000D01*
X192200000Y-25300000D02*
X192200000Y-22850000D01*
D17*
X190230000Y-23250000D02*
G75*
G02*
X190170000Y-23250000I-30000J0D01*
G01*
X190170000Y-23250000D02*
G75*
G02*
X190230000Y-23250000I30000J0D01*
G01*
D18*
G36*
X190840031Y-23935001D02*
G01*
X190660046Y-23935001D01*
X190660046Y-23784989D01*
X190840031Y-23784989D01*
X190840031Y-23935001D01*
G37*
G36*
X191359994Y-23944984D02*
G01*
X191180010Y-23944984D01*
X191180010Y-23794971D01*
X191359994Y-23794971D01*
X191359994Y-23944984D01*
G37*
G36*
X191100000Y-24799998D02*
G01*
X191000000Y-24899998D01*
X190900000Y-24799998D01*
X190900000Y-24699999D01*
X191100000Y-24699999D01*
X191100000Y-24799998D01*
G37*
%TO.C,C23*%
D16*
X207646267Y-45740000D02*
X207353733Y-45740000D01*
X207646267Y-46760000D02*
X207353733Y-46760000D01*
%TO.C,R6*%
X227227500Y-60504724D02*
X227227500Y-59995276D01*
X228272500Y-60504724D02*
X228272500Y-59995276D01*
%TO.C,U7*%
D19*
X209150000Y-30950000D02*
X207350000Y-30950000D01*
X209150000Y-34050000D02*
X207350000Y-34050000D01*
X206970000Y-30850000D02*
G75*
G02*
X206730000Y-30850000I-120000J0D01*
G01*
X206730000Y-30850000D02*
G75*
G02*
X206970000Y-30850000I120000J0D01*
G01*
D17*
X206880000Y-31050000D02*
G75*
G02*
X206820000Y-31050000I-30000J0D01*
G01*
X206820000Y-31050000D02*
G75*
G02*
X206880000Y-31050000I30000J0D01*
G01*
%TO.C,R8*%
D16*
X210977500Y-35745276D02*
X210977500Y-36254724D01*
X212022500Y-35745276D02*
X212022500Y-36254724D01*
%TO.C,C9*%
X225396267Y-59740000D02*
X225103733Y-59740000D01*
X225396267Y-60760000D02*
X225103733Y-60760000D01*
%TO.C,SW2*%
D20*
X189600000Y-33349900D02*
X189766000Y-33349900D01*
X189600000Y-34500600D02*
X189600000Y-33349900D01*
X189600000Y-37999200D02*
X189600000Y-34500600D01*
X189600000Y-39149900D02*
X189600000Y-37999200D01*
X189766000Y-39149900D02*
X189600000Y-39149900D01*
X190900000Y-35249900D02*
X194100000Y-35249900D01*
X190900000Y-37249900D02*
X190900000Y-35249900D01*
X191234000Y-33349900D02*
X191766000Y-33349900D01*
X191766000Y-39149900D02*
X191234000Y-39149900D01*
X193234000Y-33349900D02*
X193766000Y-33349900D01*
X193766000Y-39149900D02*
X193234000Y-39149900D01*
X194100000Y-35249900D02*
X194100000Y-37249900D01*
X194100000Y-37249900D02*
X190900000Y-37249900D01*
X195234000Y-33349900D02*
X195400000Y-33349900D01*
X195400000Y-33349900D02*
X195400000Y-34500600D01*
X195400000Y-34500600D02*
X195400000Y-37999200D01*
X195400000Y-37999200D02*
X195400000Y-39149900D01*
X195400000Y-39149900D02*
X195234000Y-39149900D01*
%TO.C,R4*%
D16*
X218245276Y-67477500D02*
X218754724Y-67477500D01*
X218245276Y-68522500D02*
X218754724Y-68522500D01*
%TO.C,C22*%
X197700000Y-53940000D02*
X198200000Y-53940000D01*
X197950000Y-53690000D02*
X197950000Y-54190000D01*
X198440000Y-54304437D02*
X198440000Y-54440000D01*
X198440000Y-54304437D02*
X199504437Y-53240000D01*
X198440000Y-56695563D02*
X198440000Y-56560000D01*
X198440000Y-56695563D02*
X199504437Y-57760000D01*
X199504437Y-53240000D02*
X202960000Y-53240000D01*
X199504437Y-57760000D02*
X202960000Y-57760000D01*
X202960000Y-53240000D02*
X202960000Y-54440000D01*
X202960000Y-57760000D02*
X202960000Y-56560000D01*
%TO.C,R23*%
X206550000Y-25600000D02*
X203900000Y-25600000D01*
X206550000Y-29900000D02*
X203900000Y-29900000D01*
X203900000Y-29900000D02*
G75*
G02*
X203871973Y-25617855I1350000J2150000D01*
G01*
X206550000Y-25600000D02*
G75*
G02*
X206575476Y-29884388I-1300000J-2150000D01*
G01*
%TO.C,R14*%
X205477500Y-51004724D02*
X205477500Y-50495276D01*
X206522500Y-51004724D02*
X206522500Y-50495276D01*
%TO.C,J4*%
X190750000Y-53700000D02*
X190750000Y-58000000D01*
X190750000Y-62300000D02*
X190750000Y-58000000D01*
X193700000Y-52950000D02*
X193700000Y-53700000D01*
X193700000Y-53700000D02*
X190750000Y-53700000D01*
X193700000Y-62300000D02*
X190750000Y-62300000D01*
X193700000Y-63050000D02*
X193700000Y-62300000D01*
X196250000Y-52650000D02*
X195000000Y-52650000D01*
X196250000Y-53900000D02*
X196250000Y-52650000D01*
X195200000Y-52950000D02*
X195950000Y-52950000D01*
X195950000Y-54750000D01*
X195200000Y-54750000D01*
X195200000Y-52950000D01*
X195200000Y-56250000D02*
X195950000Y-56250000D01*
X195950000Y-59750000D01*
X195200000Y-59750000D01*
X195200000Y-56250000D01*
X195200000Y-61250000D02*
X195950000Y-61250000D01*
X195950000Y-63050000D01*
X195200000Y-63050000D01*
X195200000Y-61250000D01*
X189990000Y-52940000D02*
X195960000Y-52940000D01*
X195960000Y-63060000D01*
X189990000Y-63060000D01*
X189990000Y-52940000D01*
%TO.C,C18*%
X210740000Y-32646267D02*
X210740000Y-32353733D01*
X211760000Y-32646267D02*
X211760000Y-32353733D01*
%TO.C,R10*%
X192977500Y-30245276D02*
X192977500Y-30754724D01*
X194022500Y-30245276D02*
X194022500Y-30754724D01*
%TO.C,R25*%
X213727500Y-32495276D02*
X213727500Y-33004724D01*
X214772500Y-32495276D02*
X214772500Y-33004724D01*
%TO.C,C5*%
X222891233Y-61890000D02*
X223183767Y-61890000D01*
X222891233Y-62910000D02*
X223183767Y-62910000D01*
%TO.C,Y2*%
X217800000Y-46315000D02*
X224200000Y-46315000D01*
X224200000Y-51185000D02*
X217800000Y-51185000D01*
X217800000Y-51185000D02*
G75*
G02*
X217800000Y-46315000I0J2435000D01*
G01*
X224200000Y-46315000D02*
G75*
G02*
X224200000Y-51185000I0J-2435000D01*
G01*
%TO.C,LED1*%
D12*
X205930000Y-60730000D02*
X208040000Y-60730000D01*
X205930000Y-65690000D02*
X205930000Y-60730000D01*
X206130000Y-65890000D02*
X205930000Y-65690000D01*
X206210000Y-65890000D02*
X206130000Y-65890000D01*
X206210000Y-65890000D02*
X207830000Y-65890000D01*
X207830000Y-65890000D02*
X208040000Y-65680000D01*
X208040000Y-60730000D02*
X208040000Y-65680000D01*
D17*
X207830000Y-64900000D02*
G75*
G02*
X207770000Y-64900000I-30000J0D01*
G01*
X207770000Y-64900000D02*
G75*
G02*
X207830000Y-64900000I30000J0D01*
G01*
D18*
G36*
X207761187Y-66286202D02*
G01*
X206258777Y-66286202D01*
X206258777Y-66133802D01*
X207761187Y-66133802D01*
X207761187Y-66286202D01*
G37*
%TO.C,USB1*%
D19*
X193180000Y-20555000D02*
X193180000Y-22075000D01*
X193180000Y-24495000D02*
X193180000Y-26015000D01*
X201820000Y-20555000D02*
X193180000Y-20555000D01*
X201820000Y-22075000D02*
X201820000Y-20555000D01*
X201820000Y-26015000D02*
X201820000Y-24495000D01*
D17*
X202000000Y-28325000D02*
G75*
G02*
X201940000Y-28325000I-30000J0D01*
G01*
X201940000Y-28325000D02*
G75*
G02*
X202000000Y-28325000I30000J0D01*
G01*
%TO.C,C1*%
D16*
X197700000Y-58940000D02*
X198200000Y-58940000D01*
X197950000Y-58690000D02*
X197950000Y-59190000D01*
X198440000Y-59304437D02*
X198440000Y-59440000D01*
X198440000Y-59304437D02*
X199504437Y-58240000D01*
X198440000Y-61695563D02*
X198440000Y-61560000D01*
X198440000Y-61695563D02*
X199504437Y-62760000D01*
X199504437Y-58240000D02*
X202960000Y-58240000D01*
X199504437Y-62760000D02*
X202960000Y-62760000D01*
X202960000Y-58240000D02*
X202960000Y-59440000D01*
X202960000Y-62760000D02*
X202960000Y-61560000D01*
%TO.C,R24*%
X203154724Y-31077500D02*
X202645276Y-31077500D01*
X203154724Y-32122500D02*
X202645276Y-32122500D01*
%TO.C,R21*%
X206495276Y-54977500D02*
X207004724Y-54977500D01*
X206495276Y-56022500D02*
X207004724Y-56022500D01*
%TO.C,R3*%
X225227500Y-64745276D02*
X225227500Y-65254724D01*
X226272500Y-64745276D02*
X226272500Y-65254724D01*
%TO.C,J2*%
X190750000Y-65700000D02*
X190750000Y-68750000D01*
X190750000Y-71800000D02*
X190750000Y-68750000D01*
X193700000Y-64950000D02*
X193700000Y-65700000D01*
X193700000Y-65700000D02*
X190750000Y-65700000D01*
X193700000Y-71800000D02*
X190750000Y-71800000D01*
X193700000Y-72550000D02*
X193700000Y-71800000D01*
X196250000Y-64650000D02*
X195000000Y-64650000D01*
X196250000Y-65900000D02*
X196250000Y-64650000D01*
X195200000Y-64950000D02*
X195950000Y-64950000D01*
X195950000Y-66750000D01*
X195200000Y-66750000D01*
X195200000Y-64950000D01*
X195200000Y-68250000D02*
X195950000Y-68250000D01*
X195950000Y-69250000D01*
X195200000Y-69250000D01*
X195200000Y-68250000D01*
X195200000Y-70750000D02*
X195950000Y-70750000D01*
X195950000Y-72550000D01*
X195200000Y-72550000D01*
X195200000Y-70750000D01*
X189990000Y-64940000D02*
X195960000Y-64940000D01*
X195960000Y-72560000D01*
X189990000Y-72560000D01*
X189990000Y-64940000D01*
%TO.C,R9*%
X213745276Y-36477500D02*
X214254724Y-36477500D01*
X213745276Y-37522500D02*
X214254724Y-37522500D01*
%TO.C,C14*%
X227490000Y-63603733D02*
X227490000Y-63896267D01*
X228510000Y-63603733D02*
X228510000Y-63896267D01*
%TO.C,Y1*%
X212550000Y-52065000D02*
X218950000Y-52065000D01*
X218950000Y-56935000D02*
X212550000Y-56935000D01*
X212550000Y-56935000D02*
G75*
G02*
X212550000Y-52065000I0J2435000D01*
G01*
X218950000Y-52065000D02*
G75*
G02*
X218950000Y-56935000I0J-2435000D01*
G01*
%TO.C,SW1*%
D19*
X197700000Y-47700000D02*
X197700000Y-37700000D01*
X197950000Y-32900000D02*
X197950000Y-35300000D01*
X197950000Y-32900000D02*
X200240000Y-32900000D01*
X197950000Y-37700000D02*
X197700000Y-37700000D01*
X197950000Y-37700000D02*
X197950000Y-35300000D01*
X197950000Y-47700000D02*
X197700000Y-47700000D01*
X197950000Y-47700000D02*
X197950000Y-50100000D01*
X197950000Y-50100000D02*
X197950000Y-52500000D01*
X197950000Y-52500000D02*
X199980000Y-52500000D01*
X199000000Y-42020000D02*
X199000000Y-39700000D01*
X199000000Y-43650000D02*
X199280000Y-43650000D01*
X199000000Y-45700000D02*
X199000000Y-43380000D01*
X199000000Y-45700000D02*
X203000000Y-45700000D01*
X199980000Y-52500000D02*
X199980000Y-50120000D01*
X200240000Y-32890000D02*
X200240000Y-35300000D01*
X201760000Y-52500000D02*
X201760000Y-50090000D01*
X202020000Y-32890000D02*
X202020000Y-35280000D01*
X202720000Y-43650000D02*
X203010000Y-43650000D01*
X202990000Y-44120000D02*
X198990000Y-44120000D01*
X202990000Y-44580000D02*
X198990000Y-44580000D01*
X203010000Y-39700000D02*
X199010000Y-39700000D01*
X203010000Y-39700000D02*
X203010000Y-42030000D01*
X203010000Y-43370000D02*
X203010000Y-45700000D01*
X203020000Y-45110000D02*
X199020000Y-45110000D01*
X204050000Y-32900000D02*
X202020000Y-32900000D01*
X204050000Y-32900000D02*
X204050000Y-35300000D01*
X204050000Y-37700000D02*
X204050000Y-35300000D01*
X204050000Y-37700000D02*
X204300000Y-37700000D01*
X204050000Y-47700000D02*
X204050000Y-50100000D01*
X204050000Y-47700000D02*
X204300000Y-47700000D01*
X204050000Y-50100000D02*
X204050000Y-52500000D01*
X204050000Y-52500000D02*
X201760000Y-52500000D01*
X204300000Y-47700000D02*
X204300000Y-37700000D01*
X199980000Y-50110000D02*
G75*
G02*
X201760000Y-50170000I890000J-30000D01*
G01*
X202020000Y-35270000D02*
G75*
G02*
X200240000Y-35230000I-890000J20000D01*
G01*
D17*
X204460000Y-52630000D02*
G75*
G02*
X204400000Y-52630000I-30000J0D01*
G01*
X204400000Y-52630000D02*
G75*
G02*
X204460000Y-52630000I30000J0D01*
G01*
%TO.C,TH1*%
D16*
X189580000Y-45120000D02*
X189580000Y-48960000D01*
X191420000Y-45120000D02*
X191420000Y-48960000D01*
%TO.C,R20*%
X189477500Y-28907776D02*
X189477500Y-29417224D01*
X190522500Y-28907776D02*
X190522500Y-29417224D01*
%TO.C,J5*%
X197580000Y-72960000D02*
X197580000Y-65120000D01*
X200230000Y-70310000D02*
X200230000Y-72960000D01*
X200230000Y-72960000D02*
X197580000Y-72960000D01*
X202880000Y-65120000D02*
X197580000Y-65120000D01*
X202880000Y-70310000D02*
X200230000Y-70310000D01*
X202880000Y-70310000D02*
X202880000Y-65120000D01*
X202880000Y-71580000D02*
X202880000Y-72960000D01*
X202880000Y-72960000D02*
X201500000Y-72960000D01*
%TO.C,U5*%
X207025000Y-34940000D02*
X209025000Y-34940000D01*
X209025000Y-37160000D02*
X207025000Y-37160000D01*
X206625000Y-35210000D02*
X206345000Y-35210000D01*
X206625000Y-34930000D01*
X206625000Y-35210000D01*
G36*
X206625000Y-35210000D02*
G01*
X206345000Y-35210000D01*
X206625000Y-34930000D01*
X206625000Y-35210000D01*
G37*
%TO.C,R5*%
X221745276Y-65477500D02*
X222254724Y-65477500D01*
X221745276Y-66522500D02*
X222254724Y-66522500D01*
%TD*%
M02*
