#VRML V2.0 utf8
# 3D model generated by kicad-lcsc-manager
# Based on easyeda2kicad.py v1.0.1

Shape{
    appearance Appearance {
        material  Material {
            diffuseColor 0.2235294117647059 0.2235294117647059 0.2235294117647059
            specularColor 0.11372549019607843 0.11372549019607843 0.11372549019607843
            ambientIntensity 0.2235
            transparency 0.0
            shininess 0.5
        }
    }
    geometry IndexedFaceSet {
        ccw TRUE
        solid FALSE
        coord DEF co Coordinate {
            point [
                -1.2205 1.1696 0.0, -0.8538 1.1696 0.0, -0.8538 0.6889 0.0, -0.2316 1.1696 0.0, -0.2316 0.6889 0.0, 0.3458 1.1696 0.0, 1.2205 1.1696 0.0, 1.2205 0.6889 0.0, -0.0028 0.503 0.0, -0.0027 0.5031 0.0, 0.0205 0.5031 0.0, 0.2843 0.6606 0.0, 0.2433 0.5241 0.0, 0.2421 0.5247 0.0, 0.2925 0.694 0.0, 0.2884 0.6889 0.0, 0.2205 0.6889 0.0, 0.28 0.6784 0.0, 0.282 0.5057 0.0, 0.2886 0.5051 0.0, 0.2905 0.5047 0.0, 0.2843 0.5162 0.0, 0.2625 0.518 0.0, 0.2521 0.5196 0.0, 0.283 0.6721 0.0, 0.2842 0.664 0.0, 0.2324 0.516 0.0, 0.2315 0.515 0.0, 0.231 0.5142 0.0, 0.2205 0.5031 0.0, 0.2306 0.513 0.0, 0.2305 0.5119 0.0, 0.2917 0.5048 0.0, 0.292 0.505 0.0, 0.3458 0.5031 0.0, 0.293 0.5065 0.0, 0.2932 0.5071 0.0, 0.2355 0.5188 0.0, 0.2308 0.5113 0.0, 0.2311 0.511 0.0, 0.2315 0.5108 0.0, 0.2484 0.5205 0.0, 0.2462 0.5216 0.0, 0.2923 0.5053 0.0, 0.2926 0.5057 0.0, 0.2917 0.534 0.0, 0.2917 0.6614 0.0, 0.3458 0.6889 0.0, 0.2919 0.6753 0.0, 0.2322 0.5105 0.0, 0.2328 0.5104 0.0, 0.237 0.5104 0.0, 0.2931 0.5088 0.0, 0.2922 0.5169 0.0, 0.2922 0.5173 0.0, 0.2487 0.5087 0.0, 0.2537 0.5082 0.0, 0.2701 0.5068 0.0, 0.2912 0.5047 0.0, 0.2939 0.6889 0.0, 0.2945 0.6917 0.0, -0.0449 0.6832 0.0, -0.0514 0.6816 0.0, -0.0869 0.6889 0.0, -0.0564 0.679 0.0, 0.0099 0.6747 0.0, 0.0101 0.6756 0.0, 0.0205 0.6889 0.0, -0.0606 0.6754 0.0, -0.0651 0.6692 0.0, -0.0693 0.6593 0.0, -0.0012 0.5176 0.0, -0.0012 0.666 0.0, 0.0072 0.5176 0.0, 0.0083 0.5177 0.0, -0.0361 0.6838 0.0, -0.0298 0.6833 0.0, -0.0566 0.5175 0.0, -0.0869 0.5031 0.0, -0.0614 0.5233 0.0, -0.0671 0.5337 0.0, 0.0097 0.517 0.0, 0.0099 0.5164 0.0, 0.01 0.5161 0.0, 0.0099 0.5159 0.0, 0.0095 0.6739 0.0, 0.0094 0.5174 0.0, 0.0095 0.5172 0.0, 0.0102 0.6763 0.0, 0.01 0.6771 0.0, 0.0097 0.6776 0.0, 0.0092 0.5175 0.0, 0.009 0.5176 0.0, 0.0089 0.5176 0.0, -0.0517 0.5137 0.0, -0.0482 0.512 0.0, -0.0406 0.5101 0.0, -0.0739 0.6302 0.0, -0.0755 0.5858 0.0, -0.0724 0.5518 0.0, 0.0093 0.5147 0.0, 0.0096 0.5152 0.0, 0.0098 0.5156 0.0, -0.0069 0.6784 0.0, -0.0129 0.679 0.0, -0.0236 0.6821 0.0, 0.0024 0.6679 0.0, 0.0075 0.6722 0.0, 0.0087 0.6731 0.0, 0.0094 0.6781 0.0, 0.0089 0.6784 0.0, 0.0038 0.6775 0.0, 0.0006 0.6669 0.0, -0.0021 0.6775 0.0, -0.0045 0.678 0.0, -0.025 0.508 0.0, -0.0126 0.5065 0.0, -0.0079 0.5053 0.0, -0.0018 0.5036 0.0, 0.0021 0.507 0.0, 0.0047 0.5097 0.0, 0.0081 0.5133 0.0, 0.0088 0.5141 0.0, -0.005 0.5035 0.0, -0.0042 0.5031 0.0, -0.0869 0.4997 0.0, -0.0032 0.5029 0.0, 0.0205 0.4997 0.0, -0.0038 0.5029 0.0, -0.0041 0.503 0.0, 0.2205 -0.7737 0.0, 0.1196 -0.7737 0.0, 0.1196 -0.3777 0.0, 0.1481 -0.3777 0.0, 0.1481 0.3176 0.0, 0.2205 0.4997 0.0, 0.0205 -0.3777 0.0, 0.0205 -0.7737 0.0, -0.0794 -0.3777 0.0, -0.0869 -0.7737 0.0, 0.1196 0.4997 0.0, 0.1196 0.3176 0.0, 0.0205 0.3176 0.0, -0.0794 0.3176 0.0, -0.0974 0.4968 0.0, -0.0971 0.4973 0.0, -0.097 0.498 0.0, -0.2316 -0.7737 0.0, -0.1746 0.4972 0.0, -0.1745 0.497 0.0, -0.0981 0.4964 0.0, -0.0979 0.4965 0.0, -0.0978 0.4965 0.0, -0.0976 0.4966 0.0, -0.1748 0.4974 0.0, -0.2316 0.4997 0.0, -0.1749 0.4977 0.0, -0.1742 0.4969 0.0, -0.174 0.4969 0.0, -0.1738 0.4969 0.0, -0.1736 0.4969 0.0, -0.1733 0.4971 0.0, -0.1731 0.4973 0.0, -0.1728 0.4976 0.0, -0.0983 0.4965 0.0, -0.0985 0.4966 0.0, -0.1753 0.4997 0.0, -0.1752 0.4989 0.0, -0.175 0.4982 0.0, -0.0998 0.4982 0.0, -0.0994 0.4975 0.0, -0.1725 0.4983 0.0, -0.0991 0.4971 0.0, -0.0988 0.4967 0.0, -0.1002 0.4992 0.0, -0.1723 0.4989 0.0, -0.1003 0.4997 0.0, -0.2316 0.5031 0.0, -0.1754 0.5015 0.0, -0.1753 0.5 0.0, -0.1776 0.5267 0.0, -0.1777 0.5261 0.0, -0.1775 0.5272 0.0, -0.1772 0.5277 0.0, -0.1772 0.519 0.0, -0.176 0.5063 0.0, -0.1756 0.5031 0.0, -0.1644 0.5686 0.0, -0.1678 0.5544 0.0, -0.1774 0.5232 0.0, -0.1773 0.522 0.0, -0.1693 0.5477 0.0, -0.1712 0.5411 0.0, -0.1732 0.5357 0.0, -0.175 0.5306 0.0, -0.1762 0.5289 0.0, -0.0869 1.1696 0.0, -0.133 0.69 0.0, -0.1369 0.69 0.0, -0.1372 0.6889 0.0, -0.0962 0.5049 0.0, -0.0948 0.5167 0.0, -0.1038 0.555 0.0, -0.1328 0.6889 0.0, -0.0971 0.5301 0.0, -0.1008 0.5424 0.0, -0.0956 0.5275 0.0, -0.0951 0.5265 0.0, -0.0945 0.5248 0.0, -0.0944 0.5222 0.0, -0.0967 0.4997 0.0, -0.0966 0.501 0.0, -0.0964 0.5031 0.0, -0.1722 0.4997 0.0, -0.1716 0.5031 0.0, -0.1011 0.5031 0.0, -0.1537 0.579 0.0, -0.1152 0.5697 0.0, -0.1704 0.5102 0.0, -0.1061 0.5275 0.0, -0.1018 0.506 0.0, 1.2205 0.5031 0.0, 0.397 0.3176 0.0, 0.3458 0.4997 0.0, 0.5859 0.3176 0.0, 1.2205 0.4997 0.0, 0.5859 -0.3777 0.0, 1.2205 -0.7737 0.0, 0.397 -0.3777 0.0, 0.3458 -0.7737 0.0, 0.201 0.6561 0.0, 0.1941 0.6708 0.0, 0.1196 0.6889 0.0, 0.1357 0.6835 0.0, 0.1357 0.6079 0.0, 0.1417 0.5168 0.0, 0.1465 0.511 0.0, 0.1196 0.5031 0.0, 0.1527 0.5066 0.0, 0.1536 0.681 0.0, 0.1399 0.6835 0.0, 0.16 0.6845 0.0, 0.1682 0.6866 0.0, 0.1475 0.6755 0.0, 0.1444 0.6713 0.0, 0.1419 0.6668 0.0, 0.136 0.5734 0.0, 0.1978 0.6409 0.0, 0.2002 0.6269 0.0, 0.1314 0.5731 0.0, 0.1336 0.5392 0.0, 0.137 0.526 0.0, 0.1881 0.678 0.0, 0.1805 0.6837 0.0, 0.1762 0.6857 0.0, 0.1721 0.6866 0.0, 0.1596 0.5041 0.0, 0.1643 0.5034 0.0, 0.1724 0.5038 0.0, 0.1801 0.5064 0.0, 0.1858 0.51 0.0, 0.1906 0.5151 0.0, 0.1967 0.5251 0.0, 0.1841 0.5207 0.0, 0.18 0.5168 0.0, 0.1392 0.5464 0.0, 0.1899 0.529 0.0, 0.1682 0.5128 0.0, 0.1431 0.5302 0.0, 0.1467 0.5234 0.0, 0.1659 0.6773 0.0, 0.1719 0.6769 0.0, 0.1769 0.6752 0.0, 0.1629 0.6767 0.0, 0.1913 0.6598 0.0, 0.1864 0.6675 0.0, 0.1374 0.5584 0.0, 0.2013 0.5813 0.0, 0.1943 0.5408 0.0, 0.1763 0.5145 0.0, 0.1726 0.5133 0.0, 0.1618 0.5133 0.0, 0.1557 0.5156 0.0, 0.1507 0.519 0.0, 0.1434 0.6478 0.0, 0.147 0.6607 0.0, 0.1507 0.6679 0.0, 0.1817 0.6722 0.0, 0.2045 0.548 0.0, 0.208 0.5708 0.0, 0.2078 0.6252 0.0, 0.1542 0.672 0.0, 0.1587 0.6751 0.0, 0.0925 0.6042 0.0, 0.0688 0.6073 0.0, 0.0925 0.6665 0.0, 0.0589 0.6093 0.0, 0.0472 0.6147 0.0, 0.039 0.6747 0.0, 0.0435 0.6741 0.0, 0.0315 0.5149 0.0, 0.0317 0.5148 0.0, 0.0527 0.6116 0.0, 0.0498 0.6133 0.0, 0.0569 0.6725 0.0, 0.0502 0.6733 0.0, 0.0458 0.6877 0.0, 0.0376 0.6793 0.0, 0.101 0.5044 0.0, 0.1018 0.5047 0.0, 0.1074 0.6751 0.0, 0.1077 0.6762 0.0, 0.038 0.603 0.0, 0.0383 0.6025 0.0, 0.0399 0.5278 0.0, 0.0387 0.6021 0.0, 0.0391 0.6019 0.0, 0.1024 0.5052 0.0, 0.1029 0.5058 0.0, 0.1032 0.5065 0.0, 0.1078 0.6782 0.0, 0.1077 0.6784 0.0, 0.1076 0.6785 0.0, 0.1075 0.6787 0.0, 0.0366 0.6771 0.0, 0.0365 0.6767 0.0, 0.0365 0.6763 0.0, 0.0367 0.676 0.0, 0.0384 0.6057 0.0, 0.038 0.605 0.0, 0.0382 0.6748 0.0, 0.0378 0.6044 0.0, 0.0377 0.675 0.0, 0.0378 0.6039 0.0, 0.0372 0.6753 0.0, 0.0369 0.6756 0.0, 0.0925 0.5943 0.0, 0.0925 0.5176 0.0, 0.0503 0.5235 0.0, 0.039 0.6065 0.0, 0.141 0.6079 0.0, 0.1078 0.677 0.0, 0.1078 0.6776 0.0, 0.1072 0.6789 0.0, 0.1068 0.679 0.0, 0.1063 0.6791 0.0, 0.0371 0.6783 0.0, 0.0368 0.6777 0.0, 0.0396 0.6017 0.0, 0.0404 0.6017 0.0, 0.0424 0.5264 0.0, 0.0463 0.5246 0.0, 0.032 0.519 0.0, 0.0312 0.518 0.0, 0.0309 0.5174 0.0, 0.0308 0.5168 0.0, 0.0308 0.5163 0.0, 0.031 0.5157 0.0, 0.0313 0.5152 0.0, 0.1053 0.679 0.0, 0.0999 0.6781 0.0, 0.0951 0.6775 0.0, 0.1035 0.5076 0.0, 0.1033 0.5099 0.0, 0.1033 0.5099 0.0, 0.0378 0.6034 0.0, 0.1 0.5042 0.0, 0.0986 0.5043 0.0, 0.0903 0.6775 0.0, 0.0894 0.6775 0.0, 0.0839 0.6776 0.0, 0.0784 0.6784 0.0, 0.0673 0.6804 0.0, 0.0576 0.6824 0.0, 0.1015 0.5171 0.0, 0.1008 0.5244 0.0, 0.1008 0.5298 0.0, 0.1038 0.67 0.0, 0.1056 0.6723 0.0, 0.1068 0.6738 0.0, 0.0498 0.6852 0.0, 0.0484 0.6861 0.0, 0.032 0.5147 0.0, 0.0329 0.5145 0.0, 0.0336 0.5145 0.0, 0.1008 0.6665 0.0, 0.1005 0.5369 0.0, 0.1006 0.5333 0.0, 0.0807 0.5083 0.0, 0.0937 0.506 0.0, 0.0968 0.5048 0.0, 0.0379 0.5142 0.0, 0.0593 0.5116 0.0, 0.0205 1.1696 0.0, 0.1196 1.1696 0.0, 0.2205 1.1696 0.0, -0.8538 0.5031 0.0, -0.8538 0.4997 0.0, -0.4872 -0.3777 0.0, -0.8538 -0.7737 0.0, -0.4872 0.3176 0.0, -0.2854 0.3176 0.0, -0.2854 -0.3777 0.0, -1.2205 0.6889 0.0, -1.2205 0.5031 0.0, -1.2205 0.4997 0.0, -1.2205 -0.7737 0.0, 1.2205 -1.1696 0.0, 0.3458 -1.1696 0.0, 0.2205 -1.1696 0.0, 0.1196 -1.1696 0.0, 0.0205 -1.1696 0.0, -0.0869 -1.1696 0.0, -0.2316 -1.1696 0.0, -0.8538 -1.1696 0.0, -1.2205 -1.1696 0.0, 1.2205 1.1696 0.7365, -1.2205 1.1696 0.7365, -1.2205 -1.1696 0.7365, 1.2205 -1.1696 0.7365, -0.2854 -0.3777 0.0394, -0.2854 0.3176 0.0394, -0.4872 0.3176 0.0394, -0.4872 -0.3777 0.0394, 0.1481 -0.3777 0.0394, 0.1481 0.3176 0.0394, -0.0794 0.3176 0.0394, -0.0794 -0.3777 0.0394, 0.5859 -0.3777 0.0394, 0.5859 0.3176 0.0394, 0.397 0.3176 0.0394, 0.397 -0.3777 0.0394
            ]
        }
        coordIndex [
            0,1,2,-1,1,3,4,-1,5,6,7,-1,8,9,10,-1,11,12,13,-1,14,15,16,-1,16,15,17,-1,18,19,20,-1,21,22,11,-1,11,22,23,-1,17,24,16,-1,16,24,25,-1,16,25,11,-1,26,27,16,-1,16,27,28,-1,16,28,29,-1,29,28,30,-1,29,30,31,-1,32,33,34,-1,34,35,36,-1,11,13,16,-1,16,13,37,-1,16,37,26,-1,31,38,29,-1,29,38,39,-1,29,39,40,-1,23,41,11,-1,11,41,42,-1,11,42,12,-1,33,43,34,-1,34,43,44,-1,34,44,35,-1,45,46,47,-1,47,46,48,-1,40,49,29,-1,29,49,50,-1,29,50,51,-1,36,52,34,-1,34,52,53,-1,34,53,54,-1,51,55,29,-1,29,55,56,-1,29,56,57,-1,57,18,29,-1,29,18,20,-1,29,20,34,-1,34,20,58,-1,34,58,32,-1,48,59,47,-1,47,59,60,-1,47,60,14,-1,61,62,63,-1,63,62,64,-1,65,66,67,-1,64,68,63,-1,63,68,69,-1,63,69,70,-1,71,72,73,-1,73,72,74,-1,61,63,75,-1,75,63,67,-1,75,67,76,-1,77,78,79,-1,79,78,80,-1,81,67,82,-1,82,67,10,-1,82,10,83,-1,83,10,84,-1,85,65,86,-1,86,65,67,-1,86,67,87,-1,87,67,81,-1,66,88,67,-1,67,88,89,-1,67,89,90,-1,91,92,72,-1,72,92,93,-1,72,93,74,-1,77,94,78,-1,78,94,95,-1,78,95,96,-1,70,97,63,-1,63,97,98,-1,63,98,78,-1,78,98,99,-1,78,99,80,-1,100,101,10,-1,10,101,102,-1,10,102,84,-1,103,104,67,-1,67,104,105,-1,67,105,76,-1,106,107,86,-1,86,107,108,-1,86,108,85,-1,90,109,67,-1,67,109,110,-1,67,110,111,-1,91,72,86,-1,86,72,112,-1,86,112,106,-1,111,113,67,-1,67,113,114,-1,67,114,103,-1,96,115,78,-1,78,115,116,-1,78,116,117,-1,9,118,10,-1,10,118,119,-1,10,119,120,-1,120,121,10,-1,10,121,122,-1,10,122,100,-1,117,123,78,-1,78,123,124,-1,78,124,125,-1,126,127,128,-1,128,127,125,-1,128,125,129,-1,129,125,124,-1,130,131,132,-1,133,134,135,-1,132,131,136,-1,136,131,137,-1,136,137,138,-1,138,137,139,-1,138,139,125,-1,135,134,140,-1,140,134,141,-1,140,141,127,-1,127,141,142,-1,127,142,125,-1,125,142,143,-1,125,143,138,-1,144,145,125,-1,125,145,146,-1,147,148,149,-1,150,151,139,-1,139,151,152,-1,139,152,125,-1,125,152,153,-1,125,153,144,-1,148,147,154,-1,154,147,155,-1,154,155,156,-1,149,157,147,-1,147,157,158,-1,147,158,139,-1,139,158,159,-1,139,159,160,-1,160,161,139,-1,139,161,162,-1,139,162,150,-1,150,162,163,-1,150,163,164,-1,164,163,165,-1,166,167,155,-1,155,167,168,-1,155,168,156,-1,169,170,171,-1,171,170,172,-1,171,172,163,-1,163,172,173,-1,163,173,165,-1,169,171,174,-1,174,171,175,-1,174,175,176,-1,177,178,155,-1,155,178,179,-1,155,179,166,-1,177,180,181,-1,180,177,182,-1,182,177,4,-1,182,4,183,-1,184,185,177,-1,177,185,186,-1,177,186,178,-1,187,188,4,-1,181,189,177,-1,177,189,190,-1,177,190,184,-1,188,191,4,-1,4,191,192,-1,4,192,193,-1,193,194,4,-1,4,194,195,-1,4,195,183,-1,196,197,3,-1,3,197,198,-1,3,198,4,-1,4,198,199,-1,4,199,187,-1,200,201,78,-1,202,203,63,-1,204,205,206,-1,206,205,207,-1,205,202,207,-1,207,202,63,-1,207,63,208,-1,208,63,78,-1,208,78,209,-1,209,78,201,-1,146,210,125,-1,125,210,211,-1,125,211,78,-1,78,211,212,-1,78,212,200,-1,175,213,176,-1,176,213,214,-1,176,214,215,-1,216,217,218,-1,218,217,219,-1,218,219,214,-1,214,219,220,-1,214,220,215,-1,54,45,34,-1,34,45,47,-1,34,47,221,-1,222,223,224,-1,224,223,225,-1,224,225,226,-1,226,225,227,-1,226,227,228,-1,228,227,229,-1,222,228,223,-1,223,228,229,-1,223,229,135,-1,135,229,130,-1,135,130,133,-1,133,130,132,-1,230,231,16,-1,232,233,234,-1,235,236,237,-1,237,236,238,-1,239,240,241,-1,241,240,242,-1,239,243,240,-1,240,243,244,-1,240,244,245,-1,246,247,248,-1,249,250,237,-1,237,250,251,-1,237,251,235,-1,231,252,16,-1,16,252,253,-1,16,253,254,-1,254,255,16,-1,16,255,242,-1,16,242,232,-1,232,242,240,-1,232,240,233,-1,238,256,237,-1,237,256,257,-1,237,257,29,-1,29,257,258,-1,29,258,259,-1,259,260,29,-1,29,260,261,-1,29,261,262,-1,263,264,265,-1,263,265,266,-1,265,267,268,-1,268,267,269,-1,270,271,272,-1,247,273,274,-1,274,273,275,-1,246,248,276,-1,276,248,277,-1,276,277,265,-1,265,277,278,-1,265,278,266,-1,264,279,265,-1,265,279,280,-1,265,280,267,-1,281,282,267,-1,267,282,283,-1,267,283,269,-1,284,285,247,-1,247,285,286,-1,270,272,273,-1,273,272,287,-1,273,287,275,-1,262,288,29,-1,29,288,289,-1,29,289,16,-1,16,289,290,-1,16,290,230,-1,286,291,247,-1,247,291,292,-1,247,292,273,-1,293,294,295,-1,295,294,296,-1,297,298,299,-1,300,301,10,-1,296,302,295,-1,295,302,303,-1,295,303,304,-1,304,303,297,-1,304,297,305,-1,305,297,299,-1,232,306,67,-1,67,306,307,-1,308,309,237,-1,310,311,232,-1,312,313,314,-1,314,313,315,-1,314,315,316,-1,309,317,237,-1,237,317,318,-1,237,318,319,-1,320,321,232,-1,232,321,322,-1,232,322,323,-1,324,325,67,-1,67,325,326,-1,67,326,327,-1,328,329,330,-1,330,329,331,-1,330,331,332,-1,332,331,333,-1,332,333,334,-1,334,333,335,-1,336,337,338,-1,298,297,330,-1,330,297,339,-1,330,339,328,-1,284,247,340,-1,340,247,246,-1,340,246,234,-1,234,246,249,-1,234,249,232,-1,232,249,237,-1,232,237,310,-1,311,341,232,-1,232,341,342,-1,232,342,320,-1,323,343,232,-1,232,343,344,-1,232,344,345,-1,307,346,67,-1,67,346,347,-1,67,347,324,-1,316,348,314,-1,314,348,349,-1,314,349,350,-1,350,349,336,-1,350,336,351,-1,351,336,338,-1,67,314,352,-1,352,353,67,-1,67,353,354,-1,67,354,10,-1,10,354,355,-1,10,355,356,-1,356,357,10,-1,10,357,358,-1,10,358,300,-1,345,359,232,-1,232,359,360,-1,232,360,361,-1,319,362,237,-1,237,362,363,-1,237,363,364,-1,327,335,67,-1,67,335,333,-1,67,333,314,-1,314,333,365,-1,314,365,312,-1,308,237,366,-1,366,237,10,-1,366,10,367,-1,361,368,232,-1,232,368,369,-1,232,369,370,-1,370,371,232,-1,232,371,372,-1,232,372,373,-1,364,374,237,-1,237,374,375,-1,237,375,376,-1,377,378,237,-1,237,378,379,-1,237,379,310,-1,373,380,232,-1,232,380,381,-1,232,381,306,-1,301,382,10,-1,10,382,383,-1,10,383,384,-1,385,377,386,-1,386,377,237,-1,386,237,387,-1,387,237,376,-1,388,389,10,-1,10,389,390,-1,10,390,367,-1,384,391,10,-1,10,391,392,-1,10,392,388,-1,221,225,34,-1,34,225,223,-1,34,223,29,-1,29,223,135,-1,29,135,237,-1,237,135,140,-1,237,140,10,-1,10,140,127,-1,10,127,8,-1,8,127,126,-1,203,197,63,-1,63,197,196,-1,63,196,67,-1,67,196,393,-1,67,393,232,-1,232,393,394,-1,232,394,16,-1,16,394,395,-1,16,395,14,-1,14,395,5,-1,14,5,47,-1,47,5,7,-1,47,7,221,-1,1,4,2,-1,2,4,177,-1,2,177,396,-1,396,177,155,-1,396,155,397,-1,398,399,400,-1,400,399,397,-1,400,397,401,-1,401,397,155,-1,401,155,402,-1,402,155,147,-1,402,147,398,-1,398,147,399,-1,0,2,403,-1,403,2,396,-1,403,396,404,-1,404,396,397,-1,404,397,405,-1,405,397,399,-1,405,399,406,-1,227,407,229,-1,229,407,408,-1,229,408,130,-1,130,408,409,-1,130,409,131,-1,131,409,410,-1,131,410,137,-1,137,410,411,-1,137,411,139,-1,139,411,412,-1,139,412,147,-1,147,412,413,-1,147,413,399,-1,399,413,414,-1,399,414,406,-1,406,414,415,-1,6,5,416,-1,416,5,395,-1,395,394,416,-1,416,394,393,-1,416,393,417,-1,417,393,196,-1,196,3,417,-1,417,3,1,-1,417,1,0,-1,418,415,414,-1,414,413,418,-1,418,413,412,-1,418,412,419,-1,419,412,411,-1,419,411,410,-1,410,409,419,-1,419,409,408,-1,419,408,407,-1,416,417,419,-1,419,417,418,-1,420,421,402,-1,402,421,401,-1,421,422,401,-1,401,422,400,-1,422,423,400,-1,400,423,398,-1,423,420,398,-1,398,420,402,-1,423,422,420,-1,420,422,421,-1,424,425,133,-1,133,425,134,-1,426,143,142,-1,426,142,425,-1,425,142,141,-1,425,141,134,-1,426,427,143,-1,143,427,138,-1,424,133,132,-1,424,132,427,-1,427,132,136,-1,427,136,138,-1,427,426,424,-1,424,426,425,-1,428,429,226,-1,226,429,224,-1,429,430,224,-1,224,430,222,-1,430,431,222,-1,222,431,228,-1,431,428,228,-1,228,428,226,-1,431,430,428,-1,428,430,429,-1,
        ]
    }
}
Shape{
    appearance Appearance {
        material  Material {
            diffuseColor 1.0 1.0 1.0
            specularColor 0.8784313725490196 0.8784313725490196 0.8784313725490196
            ambientIntensity 1.0
            transparency 0.0
            shininess 0.5
        }
    }
    geometry IndexedFaceSet {
        ccw TRUE
        solid FALSE
        coord DEF co Coordinate {
            point [
                -0.1704 0.5102 0.0394, -0.1537 0.579 0.0394, -0.1704 0.5102 0.0, -0.1537 0.579 0.0, -0.1152 0.5697 0.0394, -0.1152 0.5697 0.0, -0.1061 0.5275 0.0394, -0.1061 0.5275 0.0, -0.1018 0.506 0.0394, -0.1018 0.506 0.0, -0.1011 0.5031 0.0, -0.1002 0.4992 0.0394, -0.1003 0.4997 0.0, -0.1002 0.4992 0.0, -0.0962 0.5049 0.0394, -0.0962 0.5049 0.0, -0.0964 0.5031 0.0, -0.0966 0.501 0.0394, -0.0966 0.501 0.0, -0.0967 0.4997 0.0, -0.097 0.498 0.0394, -0.097 0.498 0.0, -0.0971 0.4973 0.0, -0.0971 0.4973 0.0394, -0.0974 0.4968 0.0, -0.0974 0.4968 0.0394, -0.0976 0.4966 0.0, -0.0976 0.4966 0.0394, -0.0978 0.4965 0.0, -0.0978 0.4965 0.0394, -0.0979 0.4965 0.0, -0.0979 0.4965 0.0394, -0.0981 0.4964 0.0, -0.0981 0.4964 0.0394, -0.0983 0.4965 0.0, -0.0983 0.4965 0.0394, -0.0985 0.4966 0.0, -0.0985 0.4966 0.0394, -0.0988 0.4967 0.0, -0.0988 0.4967 0.0394, -0.0991 0.4971 0.0, -0.0991 0.4971 0.0394, -0.0994 0.4975 0.0, -0.0994 0.4975 0.0394, -0.0998 0.4982 0.0, -0.0998 0.4982 0.0394, -0.0948 0.5167 0.0394, -0.0948 0.5167 0.0, -0.0956 0.5275 0.0394, -0.0956 0.5275 0.0, -0.0951 0.5265 0.0, -0.0951 0.5265 0.0394, -0.0945 0.5248 0.0, -0.0945 0.5248 0.0394, -0.0944 0.5222 0.0, -0.0944 0.5222 0.0394, -0.0971 0.5301 0.0394, -0.0971 0.5301 0.0, -0.1038 0.555 0.0394, -0.1038 0.555 0.0, -0.1008 0.5424 0.0, -0.1008 0.5424 0.0394, -0.1328 0.6889 0.0, -0.133 0.69 0.0394, -0.133 0.69 0.0, -0.1369 0.69 0.0394, -0.1369 0.69 0.0, -0.1372 0.6889 0.0, -0.1644 0.5686 0.0394, -0.1644 0.5686 0.0, -0.1678 0.5544 0.0394, -0.1678 0.5544 0.0, -0.1712 0.5411 0.0394, -0.1712 0.5411 0.0, -0.1693 0.5477 0.0, -0.1693 0.5477 0.0394, -0.1732 0.5357 0.0394, -0.1732 0.5357 0.0, -0.1772 0.519 0.0394, -0.1772 0.519 0.0, -0.1773 0.522 0.0, -0.1773 0.522 0.0394, -0.1774 0.5232 0.0, -0.1774 0.5232 0.0394, -0.1777 0.5261 0.0, -0.1777 0.5261 0.0394, -0.1776 0.5267 0.0, -0.1776 0.5267 0.0394, -0.1775 0.5272 0.0, -0.1775 0.5272 0.0394, -0.1772 0.5277 0.0, -0.1772 0.5277 0.0394, -0.1762 0.5289 0.0, -0.1762 0.5289 0.0394, -0.175 0.5306 0.0, -0.175 0.5306 0.0394, -0.176 0.5063 0.0394, -0.176 0.5063 0.0, -0.1756 0.5031 0.0, -0.1754 0.5015 0.0394, -0.1754 0.5015 0.0, -0.1753 0.5 0.0394, -0.1723 0.4989 0.0394, -0.1723 0.4989 0.0, -0.1725 0.4983 0.0, -0.1725 0.4983 0.0394, -0.1728 0.4976 0.0, -0.1728 0.4976 0.0394, -0.1731 0.4973 0.0, -0.1731 0.4973 0.0394, -0.1733 0.4971 0.0, -0.1733 0.4971 0.0394, -0.1736 0.4969 0.0, -0.1736 0.4969 0.0394, -0.1738 0.4969 0.0, -0.1738 0.4969 0.0394, -0.174 0.4969 0.0, -0.174 0.4969 0.0394, -0.1742 0.4969 0.0, -0.1742 0.4969 0.0394, -0.1745 0.497 0.0, -0.1745 0.497 0.0394, -0.1746 0.4972 0.0, -0.1746 0.4972 0.0394, -0.1748 0.4974 0.0, -0.1748 0.4974 0.0394, -0.1749 0.4977 0.0, -0.1749 0.4977 0.0394, -0.175 0.4982 0.0, -0.175 0.4982 0.0394, -0.1752 0.4989 0.0, -0.1752 0.4989 0.0394, -0.1753 0.4997 0.0, -0.1753 0.5 0.0, -0.1722 0.4997 0.0, -0.1716 0.5031 0.0, -0.135 0.6628 0.0394, -0.1166 0.5796 0.0394, -0.1531 0.5833 0.0394, -0.1455 0.5906 0.0394, -0.1384 0.5858 0.0394, -0.1358 0.5844 0.0394, -0.1277 0.5819 0.0394, -0.1455 0.5906 0.0, -0.1531 0.5833 0.0, -0.1384 0.5858 0.0, -0.1358 0.5844 0.0, -0.1277 0.5819 0.0, -0.1166 0.5796 0.0, -0.135 0.6628 0.0, -0.0012 0.5176 0.0394, -0.0012 0.666 0.0394, -0.0012 0.5176 0.0, -0.0012 0.666 0.0, 0.0024 0.6679 0.0394, 0.0024 0.6679 0.0, 0.0006 0.6669 0.0, 0.0006 0.6669 0.0394, 0.0075 0.6722 0.0394, 0.0075 0.6722 0.0, 0.0089 0.6784 0.0394, 0.0089 0.6784 0.0, 0.0094 0.6781 0.0, 0.0094 0.6781 0.0394, 0.0097 0.6776 0.0, 0.0097 0.6776 0.0394, 0.01 0.6771 0.0, 0.01 0.6771 0.0394, 0.0102 0.6763 0.0, 0.0102 0.6763 0.0394, 0.0101 0.6756 0.0, 0.0101 0.6756 0.0394, 0.0099 0.6747 0.0, 0.0099 0.6747 0.0394, 0.0095 0.6739 0.0, 0.0095 0.6739 0.0394, 0.0087 0.6731 0.0, 0.0087 0.6731 0.0394, 0.0038 0.6775 0.0394, 0.0038 0.6775 0.0, -0.0021 0.6775 0.0394, -0.0021 0.6775 0.0, -0.0069 0.6784 0.0394, -0.0069 0.6784 0.0, -0.0045 0.678 0.0, -0.0045 0.678 0.0394, -0.0129 0.679 0.0394, -0.0129 0.679 0.0, -0.0236 0.6821 0.0394, -0.0236 0.6821 0.0, -0.0361 0.6838 0.0394, -0.0361 0.6838 0.0, -0.0298 0.6833 0.0, -0.0298 0.6833 0.0394, -0.0755 0.5858 0.0394, -0.0755 0.5858 0.0, -0.0739 0.6302 0.0, -0.0739 0.6302 0.0394, -0.0693 0.6593 0.0, -0.0693 0.6593 0.0394, -0.0651 0.6692 0.0, -0.0651 0.6692 0.0394, -0.0606 0.6754 0.0, -0.0606 0.6754 0.0394, -0.0564 0.679 0.0, -0.0564 0.679 0.0394, -0.0514 0.6816 0.0, -0.0514 0.6816 0.0394, -0.0449 0.6832 0.0, -0.0449 0.6832 0.0394, -0.025 0.508 0.0394, -0.025 0.508 0.0, -0.0406 0.5101 0.0, -0.0406 0.5101 0.0394, -0.0482 0.512 0.0, -0.0482 0.512 0.0394, -0.0517 0.5137 0.0, -0.0517 0.5137 0.0394, -0.0566 0.5175 0.0, -0.0566 0.5175 0.0394, -0.0614 0.5233 0.0, -0.0614 0.5233 0.0394, -0.0671 0.5337 0.0, -0.0671 0.5337 0.0394, -0.0724 0.5518 0.0, -0.0724 0.5518 0.0394, -0.0126 0.5065 0.0394, -0.0126 0.5065 0.0, -0.0038 0.5029 0.0394, -0.0038 0.5029 0.0, -0.0041 0.503 0.0, -0.0042 0.5031 0.0, -0.005 0.5035 0.0394, -0.0041 0.503 0.0394, -0.005 0.5035 0.0, -0.0079 0.5053 0.0, -0.0079 0.5053 0.0394, 0.0047 0.5097 0.0394, 0.0047 0.5097 0.0, 0.0021 0.507 0.0, 0.0021 0.507 0.0394, -0.0018 0.5036 0.0, -0.0018 0.5036 0.0394, -0.0027 0.5031 0.0, -0.0028 0.503 0.0394, -0.0028 0.503 0.0, -0.0032 0.5029 0.0, -0.0032 0.5029 0.0394, 0.0081 0.5133 0.0394, 0.0081 0.5133 0.0, 0.0072 0.5176 0.0394, 0.0072 0.5176 0.0, 0.0083 0.5177 0.0, 0.0083 0.5177 0.0394, 0.0089 0.5176 0.0, 0.0089 0.5176 0.0394, 0.009 0.5176 0.0, 0.009 0.5176 0.0394, 0.0092 0.5175 0.0, 0.0092 0.5175 0.0394, 0.0094 0.5174 0.0, 0.0094 0.5174 0.0394, 0.0095 0.5172 0.0, 0.0095 0.5172 0.0394, 0.0097 0.517 0.0, 0.0097 0.517 0.0394, 0.0099 0.5164 0.0, 0.0099 0.5164 0.0394, 0.01 0.5161 0.0, 0.01 0.5161 0.0394, 0.0099 0.5159 0.0, 0.0099 0.5159 0.0394, 0.0098 0.5156 0.0, 0.0098 0.5156 0.0394, 0.0096 0.5152 0.0, 0.0096 0.5152 0.0394, 0.0093 0.5147 0.0, 0.0093 0.5147 0.0394, 0.0088 0.5141 0.0, 0.0088 0.5141 0.0394, -0.0092 0.6679 0.0394, -0.0454 0.5223 0.0394, -0.05 0.5243 0.0394, -0.0534 0.527 0.0394, -0.0567 0.5312 0.0394, -0.0626 0.5446 0.0394, -0.0179 0.5182 0.0394, -0.0136 0.518 0.0394, -0.0092 0.5182 0.0394, -0.0145 0.6702 0.0394, -0.0266 0.6729 0.0394, -0.0389 0.6739 0.0394, -0.0304 0.5196 0.0394, -0.0391 0.5207 0.0394, -0.0459 0.6726 0.0394, -0.0672 0.5733 0.0394, -0.0675 0.6107 0.0394, -0.0642 0.6492 0.0394, -0.0516 0.6705 0.0394, -0.0549 0.6681 0.0394, -0.0585 0.6639 0.0394, -0.0617 0.6578 0.0394, -0.0092 0.6679 0.0, -0.0092 0.5182 0.0, -0.0145 0.6702 0.0, -0.0266 0.6729 0.0, -0.0389 0.6739 0.0, -0.0459 0.6726 0.0, -0.0516 0.6705 0.0, -0.0549 0.6681 0.0, -0.0585 0.6639 0.0, -0.0617 0.6578 0.0, -0.0642 0.6492 0.0, -0.0675 0.6107 0.0, -0.0672 0.5733 0.0, -0.0626 0.5446 0.0, -0.0567 0.5312 0.0, -0.0534 0.527 0.0, -0.05 0.5243 0.0, -0.0454 0.5223 0.0, -0.0391 0.5207 0.0, -0.0304 0.5196 0.0, -0.0179 0.5182 0.0, -0.0136 0.518 0.0, 0.0569 0.6725 0.0394, 0.0925 0.6665 0.0394, 0.0569 0.6725 0.0, 0.0925 0.6665 0.0, 0.0925 0.6042 0.0394, 0.0925 0.6042 0.0, 0.0688 0.6073 0.0394, 0.0688 0.6073 0.0, 0.0498 0.6133 0.0394, 0.0498 0.6133 0.0, 0.0527 0.6116 0.0, 0.0527 0.6116 0.0394, 0.0589 0.6093 0.0, 0.0589 0.6093 0.0394, 0.0472 0.6147 0.0394, 0.0472 0.6147 0.0, 0.039 0.6065 0.0394, 0.039 0.6065 0.0, 0.0404 0.6017 0.0394, 0.0404 0.6017 0.0, 0.0396 0.6017 0.0, 0.0396 0.6017 0.0394, 0.0391 0.6019 0.0, 0.0391 0.6019 0.0394, 0.0387 0.6021 0.0, 0.0387 0.6021 0.0394, 0.0383 0.6025 0.0, 0.0383 0.6025 0.0394, 0.038 0.603 0.0, 0.038 0.603 0.0394, 0.0378 0.6034 0.0, 0.0378 0.6034 0.0394, 0.0378 0.6039 0.0, 0.0378 0.6039 0.0394, 0.0378 0.6044 0.0, 0.0378 0.6044 0.0394, 0.038 0.605 0.0, 0.038 0.605 0.0394, 0.0384 0.6057 0.0, 0.0384 0.6057 0.0394, 0.0925 0.5943 0.0394, 0.0925 0.5943 0.0, 0.0925 0.5176 0.0394, 0.0925 0.5176 0.0, 0.0503 0.5235 0.0394, 0.0503 0.5235 0.0, 0.0424 0.5264 0.0394, 0.0424 0.5264 0.0, 0.0463 0.5246 0.0, 0.0463 0.5246 0.0394, 0.0399 0.5278 0.0394, 0.0399 0.5278 0.0, 0.032 0.519 0.0394, 0.032 0.519 0.0, 0.0336 0.5145 0.0394, 0.0336 0.5145 0.0, 0.0329 0.5145 0.0, 0.0329 0.5145 0.0394, 0.032 0.5147 0.0, 0.032 0.5147 0.0394, 0.0317 0.5148 0.0, 0.0317 0.5148 0.0394, 0.0315 0.5149 0.0, 0.0315 0.5149 0.0394, 0.0313 0.5152 0.0, 0.0313 0.5152 0.0394, 0.031 0.5157 0.0, 0.031 0.5157 0.0394, 0.0308 0.5163 0.0, 0.0308 0.5163 0.0394, 0.0308 0.5168 0.0, 0.0308 0.5168 0.0394, 0.0309 0.5174 0.0, 0.0309 0.5174 0.0394, 0.0312 0.518 0.0, 0.0312 0.518 0.0394, 0.0379 0.5142 0.0394, 0.0379 0.5142 0.0, 0.0807 0.5083 0.0394, 0.0807 0.5083 0.0, 0.0593 0.5116 0.0, 0.0593 0.5116 0.0394, 0.0937 0.506 0.0394, 0.0937 0.506 0.0, 0.1033 0.5099 0.0394, 0.1033 0.5099 0.0, 0.1033 0.5099 0.0, 0.1033 0.5099 0.0394, 0.1035 0.5076 0.0, 0.1035 0.5076 0.0394, 0.1032 0.5065 0.0, 0.1032 0.5065 0.0394, 0.1029 0.5058 0.0, 0.1029 0.5058 0.0394, 0.1024 0.5052 0.0, 0.1024 0.5052 0.0394, 0.1018 0.5047 0.0, 0.1018 0.5047 0.0394, 0.101 0.5044 0.0, 0.101 0.5044 0.0394, 0.1 0.5042 0.0, 0.1 0.5042 0.0394, 0.0986 0.5043 0.0, 0.0986 0.5043 0.0394, 0.0968 0.5048 0.0, 0.0968 0.5048 0.0394, 0.1008 0.5244 0.0394, 0.1008 0.5244 0.0, 0.1015 0.5171 0.0, 0.1015 0.5171 0.0394, 0.1008 0.5298 0.0394, 0.1008 0.5298 0.0, 0.1005 0.5369 0.0394, 0.1005 0.5369 0.0, 0.1006 0.5333 0.0, 0.1006 0.5333 0.0394, 0.1008 0.6665 0.0394, 0.1008 0.6665 0.0, 0.1053 0.679 0.0394, 0.1053 0.679 0.0, 0.1063 0.6791 0.0, 0.1063 0.6791 0.0394, 0.1068 0.679 0.0, 0.1068 0.679 0.0394, 0.1072 0.6789 0.0, 0.1072 0.6789 0.0394, 0.1075 0.6787 0.0, 0.1075 0.6787 0.0394, 0.1076 0.6785 0.0, 0.1076 0.6785 0.0394, 0.1077 0.6784 0.0, 0.1077 0.6784 0.0394, 0.1078 0.6782 0.0, 0.1078 0.6782 0.0394, 0.1078 0.6776 0.0, 0.1078 0.6776 0.0394, 0.1078 0.677 0.0, 0.1078 0.677 0.0394, 0.1077 0.6762 0.0, 0.1077 0.6762 0.0394, 0.1074 0.6751 0.0, 0.1074 0.6751 0.0394, 0.1068 0.6738 0.0, 0.1068 0.6738 0.0394, 0.1056 0.6723 0.0, 0.1056 0.6723 0.0394, 0.1038 0.67 0.0, 0.1038 0.67 0.0394, 0.0999 0.6781 0.0394, 0.0999 0.6781 0.0, 0.0903 0.6775 0.0394, 0.0903 0.6775 0.0, 0.0951 0.6775 0.0, 0.0951 0.6775 0.0394, 0.0894 0.6775 0.0394, 0.0894 0.6775 0.0, 0.0784 0.6784 0.0394, 0.0784 0.6784 0.0, 0.0839 0.6776 0.0, 0.0839 0.6776 0.0394, 0.0673 0.6804 0.0394, 0.0673 0.6804 0.0, 0.0484 0.6861 0.0394, 0.0484 0.6861 0.0, 0.0498 0.6852 0.0, 0.0498 0.6852 0.0394, 0.0576 0.6824 0.0, 0.0576 0.6824 0.0394, 0.0458 0.6877 0.0394, 0.0458 0.6877 0.0, 0.0376 0.6793 0.0394, 0.0376 0.6793 0.0, 0.039 0.6747 0.0394, 0.039 0.6747 0.0, 0.0382 0.6748 0.0, 0.0382 0.6748 0.0394, 0.0377 0.675 0.0, 0.0377 0.675 0.0394, 0.0372 0.6753 0.0, 0.0372 0.6753 0.0394, 0.0369 0.6756 0.0, 0.0369 0.6756 0.0394, 0.0367 0.676 0.0, 0.0367 0.676 0.0394, 0.0365 0.6763 0.0, 0.0365 0.6763 0.0394, 0.0365 0.6767 0.0, 0.0365 0.6767 0.0394, 0.0366 0.6771 0.0, 0.0366 0.6771 0.0394, 0.0368 0.6777 0.0, 0.0368 0.6777 0.0394, 0.0371 0.6783 0.0, 0.0371 0.6783 0.0394, 0.0435 0.6741 0.0394, 0.0435 0.6741 0.0, 0.0502 0.6733 0.0, 0.0502 0.6733 0.0394, 0.1444 0.6713 0.0394, 0.1419 0.6668 0.0394, 0.1444 0.6713 0.0, 0.1419 0.6668 0.0, 0.1399 0.6835 0.0394, 0.1399 0.6835 0.0, 0.1357 0.6835 0.0394, 0.1357 0.6835 0.0, 0.1357 0.6079 0.0394, 0.1357 0.6079 0.0, 0.141 0.6079 0.0394, 0.141 0.6079 0.0, 0.1659 0.6773 0.0394, 0.1659 0.6773 0.0, 0.1629 0.6767 0.0, 0.1629 0.6767 0.0394, 0.1587 0.6751 0.0, 0.1587 0.6751 0.0394, 0.1542 0.672 0.0, 0.1542 0.672 0.0394, 0.1507 0.6679 0.0, 0.1507 0.6679 0.0394, 0.147 0.6607 0.0, 0.147 0.6607 0.0394, 0.1434 0.6478 0.0, 0.1434 0.6478 0.0394, 0.2013 0.5813 0.0394, 0.2013 0.5813 0.0, 0.2002 0.6269 0.0, 0.2002 0.6269 0.0394, 0.1978 0.6409 0.0, 0.1978 0.6409 0.0394, 0.1913 0.6598 0.0, 0.1913 0.6598 0.0394, 0.1864 0.6675 0.0, 0.1864 0.6675 0.0394, 0.1817 0.6722 0.0, 0.1817 0.6722 0.0394, 0.1769 0.6752 0.0, 0.1769 0.6752 0.0394, 0.1719 0.6769 0.0, 0.1719 0.6769 0.0394, 0.1682 0.5128 0.0394, 0.1682 0.5128 0.0, 0.1726 0.5133 0.0, 0.1726 0.5133 0.0394, 0.1763 0.5145 0.0, 0.1763 0.5145 0.0394, 0.18 0.5168 0.0, 0.18 0.5168 0.0394, 0.1841 0.5207 0.0, 0.1841 0.5207 0.0394, 0.1899 0.529 0.0, 0.1899 0.529 0.0394, 0.1943 0.5408 0.0, 0.1943 0.5408 0.0394, 0.1374 0.5584 0.0394, 0.1374 0.5584 0.0, 0.1392 0.5464 0.0, 0.1392 0.5464 0.0394, 0.1431 0.5302 0.0, 0.1431 0.5302 0.0394, 0.1467 0.5234 0.0, 0.1467 0.5234 0.0394, 0.1507 0.519 0.0, 0.1507 0.519 0.0394, 0.1557 0.5156 0.0, 0.1557 0.5156 0.0394, 0.1618 0.5133 0.0, 0.1618 0.5133 0.0394, 0.136 0.5734 0.0394, 0.136 0.5734 0.0, 0.1314 0.5731 0.0394, 0.1314 0.5731 0.0, 0.1643 0.5034 0.0394, 0.1643 0.5034 0.0, 0.1596 0.5041 0.0, 0.1596 0.5041 0.0394, 0.1527 0.5066 0.0, 0.1527 0.5066 0.0394, 0.1465 0.511 0.0, 0.1465 0.511 0.0394, 0.1417 0.5168 0.0, 0.1417 0.5168 0.0394, 0.137 0.526 0.0, 0.137 0.526 0.0394, 0.1336 0.5392 0.0, 0.1336 0.5392 0.0394, 0.2078 0.6252 0.0394, 0.2078 0.6252 0.0, 0.208 0.5708 0.0, 0.208 0.5708 0.0394, 0.2045 0.548 0.0, 0.2045 0.548 0.0394, 0.1967 0.5251 0.0, 0.1967 0.5251 0.0394, 0.1906 0.5151 0.0, 0.1906 0.5151 0.0394, 0.1858 0.51 0.0, 0.1858 0.51 0.0394, 0.1801 0.5064 0.0, 0.1801 0.5064 0.0394, 0.1724 0.5038 0.0, 0.1724 0.5038 0.0394, 0.1682 0.6866 0.0394, 0.1682 0.6866 0.0, 0.1721 0.6866 0.0, 0.1721 0.6866 0.0394, 0.1762 0.6857 0.0, 0.1762 0.6857 0.0394, 0.1805 0.6837 0.0, 0.1805 0.6837 0.0394, 0.1881 0.678 0.0, 0.1881 0.678 0.0394, 0.1941 0.6708 0.0, 0.1941 0.6708 0.0394, 0.201 0.6561 0.0, 0.201 0.6561 0.0394, 0.1475 0.6755 0.0, 0.1475 0.6755 0.0394, 0.1536 0.681 0.0, 0.1536 0.681 0.0394, 0.16 0.6845 0.0, 0.16 0.6845 0.0394, 0.2939 0.6889 0.0394, 0.2945 0.6917 0.0394, 0.2939 0.6889 0.0, 0.2945 0.6917 0.0, 0.2925 0.694 0.0394, 0.2925 0.694 0.0, 0.2884 0.6889 0.0, 0.28 0.6784 0.0394, 0.28 0.6784 0.0, 0.2843 0.6606 0.0394, 0.2843 0.6606 0.0, 0.2842 0.664 0.0, 0.2842 0.664 0.0394, 0.283 0.6721 0.0, 0.283 0.6721 0.0394, 0.2843 0.5162 0.0394, 0.2843 0.5162 0.0, 0.2421 0.5247 0.0394, 0.2421 0.5247 0.0, 0.2433 0.5241 0.0, 0.2433 0.5241 0.0394, 0.2462 0.5216 0.0, 0.2462 0.5216 0.0394, 0.2484 0.5205 0.0, 0.2484 0.5205 0.0394, 0.2521 0.5196 0.0, 0.2521 0.5196 0.0394, 0.2625 0.518 0.0, 0.2625 0.518 0.0394, 0.2305 0.5119 0.0394, 0.2305 0.5119 0.0, 0.2306 0.513 0.0, 0.2306 0.513 0.0394, 0.231 0.5142 0.0, 0.231 0.5142 0.0394, 0.2315 0.515 0.0, 0.2315 0.515 0.0394, 0.2324 0.516 0.0, 0.2324 0.516 0.0394, 0.2355 0.5188 0.0, 0.2355 0.5188 0.0394, 0.2701 0.5068 0.0394, 0.2701 0.5068 0.0, 0.2537 0.5082 0.0, 0.2537 0.5082 0.0394, 0.2487 0.5087 0.0, 0.2487 0.5087 0.0394, 0.237 0.5104 0.0, 0.237 0.5104 0.0394, 0.2328 0.5104 0.0, 0.2328 0.5104 0.0394, 0.2322 0.5105 0.0, 0.2322 0.5105 0.0394, 0.2315 0.5108 0.0, 0.2315 0.5108 0.0394, 0.2311 0.511 0.0, 0.2311 0.511 0.0394, 0.2308 0.5113 0.0, 0.2308 0.5113 0.0394, 0.282 0.5057 0.0394, 0.282 0.5057 0.0, 0.2886 0.5051 0.0394, 0.2886 0.5051 0.0, 0.2922 0.5173 0.0394, 0.2922 0.5173 0.0, 0.2922 0.5169 0.0, 0.2922 0.5169 0.0394, 0.2931 0.5088 0.0, 0.2931 0.5088 0.0394, 0.2932 0.5071 0.0, 0.2932 0.5071 0.0394, 0.293 0.5065 0.0, 0.293 0.5065 0.0394, 0.2926 0.5057 0.0, 0.2926 0.5057 0.0394, 0.2923 0.5053 0.0, 0.2923 0.5053 0.0394, 0.292 0.505 0.0, 0.292 0.505 0.0394, 0.2917 0.5048 0.0, 0.2917 0.5048 0.0394, 0.2912 0.5047 0.0, 0.2912 0.5047 0.0394, 0.2905 0.5047 0.0, 0.2905 0.5047 0.0394, 0.2917 0.534 0.0394, 0.2917 0.534 0.0, 0.2917 0.6614 0.0394, 0.2917 0.6614 0.0, 0.2919 0.6753 0.0, 0.2919 0.6753 0.0394
            ]
        }
        coordIndex [
            0,1,2,-1,2,1,3,-1,1,4,3,-1,3,4,5,-1,4,6,5,-1,5,6,7,-1,6,8,7,-1,7,8,9,-1,9,8,10,-1,10,8,11,-1,10,11,12,-1,12,11,13,-1,14,15,16,-1,14,16,17,-1,16,18,17,-1,17,18,19,-1,17,19,20,-1,19,21,20,-1,20,21,22,-1,20,22,23,-1,23,22,24,-1,23,24,25,-1,25,24,26,-1,25,26,27,-1,27,26,28,-1,27,28,29,-1,29,28,30,-1,29,30,31,-1,31,30,32,-1,31,32,33,-1,33,32,34,-1,33,34,35,-1,35,34,36,-1,35,36,37,-1,37,36,38,-1,37,38,39,-1,39,38,40,-1,39,40,41,-1,41,40,42,-1,41,42,43,-1,43,42,44,-1,43,44,45,-1,45,44,13,-1,45,13,11,-1,14,46,15,-1,15,46,47,-1,48,49,50,-1,48,50,51,-1,51,50,52,-1,51,52,53,-1,53,52,54,-1,53,54,55,-1,55,54,47,-1,55,47,46,-1,48,56,49,-1,49,56,57,-1,58,59,60,-1,58,60,61,-1,61,60,57,-1,61,57,56,-1,59,58,62,-1,62,58,63,-1,62,63,64,-1,63,65,64,-1,64,65,66,-1,66,65,67,-1,67,65,68,-1,67,68,69,-1,68,70,69,-1,69,70,71,-1,72,73,74,-1,72,74,75,-1,75,74,71,-1,75,71,70,-1,72,76,73,-1,73,76,77,-1,78,79,80,-1,78,80,81,-1,81,80,82,-1,81,82,83,-1,83,82,84,-1,83,84,85,-1,85,84,86,-1,85,86,87,-1,87,86,88,-1,87,88,89,-1,89,88,90,-1,89,90,91,-1,91,90,92,-1,91,92,93,-1,93,92,94,-1,93,94,95,-1,95,94,77,-1,95,77,76,-1,78,96,79,-1,79,96,97,-1,97,96,98,-1,98,96,99,-1,98,99,100,-1,100,99,101,-1,102,103,104,-1,102,104,105,-1,105,104,106,-1,105,106,107,-1,107,106,108,-1,107,108,109,-1,109,108,110,-1,109,110,111,-1,111,110,112,-1,111,112,113,-1,113,112,114,-1,113,114,115,-1,115,114,116,-1,115,116,117,-1,117,116,118,-1,117,118,119,-1,119,118,120,-1,119,120,121,-1,121,120,122,-1,121,122,123,-1,123,122,124,-1,123,124,125,-1,125,124,126,-1,125,126,127,-1,127,126,128,-1,127,128,129,-1,129,128,130,-1,129,130,131,-1,131,130,132,-1,131,132,101,-1,101,132,133,-1,101,133,100,-1,134,103,102,-1,134,102,135,-1,135,102,0,-1,135,0,2,-1,136,63,137,-1,137,63,58,-1,1,138,139,-1,93,95,0,-1,0,95,76,-1,139,140,1,-1,1,140,141,-1,1,141,4,-1,4,141,142,-1,61,6,58,-1,58,6,4,-1,58,4,137,-1,137,4,142,-1,76,72,0,-1,0,72,75,-1,0,75,1,-1,1,75,70,-1,1,70,138,-1,138,70,68,-1,138,68,136,-1,136,68,65,-1,136,65,63,-1,6,46,8,-1,8,46,14,-1,8,14,11,-1,11,14,17,-1,11,17,45,-1,131,102,129,-1,129,102,105,-1,129,105,127,-1,78,81,0,-1,0,81,83,-1,0,83,93,-1,93,83,85,-1,61,56,6,-1,6,56,48,-1,6,48,51,-1,45,17,43,-1,43,17,20,-1,43,20,41,-1,87,89,85,-1,85,89,91,-1,85,91,93,-1,51,53,6,-1,6,53,55,-1,6,55,46,-1,37,39,25,-1,131,101,102,-1,102,101,99,-1,102,99,0,-1,0,99,96,-1,0,96,78,-1,41,20,39,-1,39,20,23,-1,39,23,25,-1,109,111,125,-1,127,105,125,-1,125,105,107,-1,125,107,109,-1,121,115,119,-1,119,115,117,-1,111,113,125,-1,125,113,115,-1,125,115,123,-1,123,115,121,-1,37,25,35,-1,35,25,27,-1,35,27,33,-1,33,27,29,-1,33,29,31,-1,139,138,143,-1,143,138,144,-1,140,139,145,-1,145,139,143,-1,140,145,146,-1,140,146,141,-1,141,146,147,-1,141,147,142,-1,142,147,148,-1,142,148,137,-1,136,137,149,-1,149,137,148,-1,138,136,144,-1,144,136,149,-1,150,151,152,-1,152,151,153,-1,154,155,156,-1,154,156,157,-1,157,156,153,-1,157,153,151,-1,154,158,155,-1,155,158,159,-1,160,161,162,-1,160,162,163,-1,163,162,164,-1,163,164,165,-1,165,164,166,-1,165,166,167,-1,167,166,168,-1,167,168,169,-1,169,168,170,-1,169,170,171,-1,171,170,172,-1,171,172,173,-1,173,172,174,-1,173,174,175,-1,175,174,176,-1,175,176,177,-1,177,176,159,-1,177,159,158,-1,160,178,161,-1,161,178,179,-1,178,180,179,-1,179,180,181,-1,182,183,184,-1,182,184,185,-1,185,184,181,-1,185,181,180,-1,182,186,183,-1,183,186,187,-1,186,188,187,-1,187,188,189,-1,190,191,192,-1,190,192,193,-1,193,192,189,-1,193,189,188,-1,194,195,196,-1,194,196,197,-1,197,196,198,-1,197,198,199,-1,199,198,200,-1,199,200,201,-1,201,200,202,-1,201,202,203,-1,203,202,204,-1,203,204,205,-1,205,204,206,-1,205,206,207,-1,207,206,208,-1,207,208,209,-1,209,208,191,-1,209,191,190,-1,210,211,212,-1,210,212,213,-1,213,212,214,-1,213,214,215,-1,215,214,216,-1,215,216,217,-1,217,216,218,-1,217,218,219,-1,219,218,220,-1,219,220,221,-1,221,220,222,-1,221,222,223,-1,223,222,224,-1,223,224,225,-1,225,224,195,-1,225,195,194,-1,210,226,211,-1,211,226,227,-1,228,229,230,-1,231,232,230,-1,230,232,233,-1,230,233,228,-1,231,234,232,-1,232,234,235,-1,232,235,236,-1,236,235,227,-1,236,227,226,-1,237,238,239,-1,237,239,240,-1,240,239,241,-1,240,241,242,-1,242,241,243,-1,242,243,244,-1,243,245,244,-1,244,245,246,-1,244,246,247,-1,247,246,229,-1,247,229,228,-1,237,248,238,-1,238,248,249,-1,250,251,252,-1,250,252,253,-1,253,252,254,-1,253,254,255,-1,255,254,256,-1,255,256,257,-1,257,256,258,-1,257,258,259,-1,259,258,260,-1,259,260,261,-1,261,260,262,-1,261,262,263,-1,263,262,264,-1,263,264,265,-1,265,264,266,-1,265,266,267,-1,267,266,268,-1,267,268,269,-1,269,268,270,-1,269,270,271,-1,271,270,272,-1,271,272,273,-1,273,272,274,-1,273,274,275,-1,275,274,276,-1,275,276,277,-1,277,276,278,-1,277,278,279,-1,279,278,249,-1,279,249,248,-1,250,150,251,-1,251,150,152,-1,180,178,280,-1,177,158,178,-1,150,250,232,-1,275,277,250,-1,250,277,279,-1,250,279,248,-1,281,217,282,-1,282,217,219,-1,282,219,283,-1,283,219,221,-1,283,221,284,-1,284,221,285,-1,226,286,287,-1,150,288,151,-1,151,288,280,-1,151,280,157,-1,157,280,178,-1,157,178,154,-1,154,178,158,-1,289,290,188,-1,188,290,193,-1,193,290,291,-1,193,291,190,-1,286,226,292,-1,292,226,210,-1,292,210,293,-1,293,210,213,-1,293,213,281,-1,281,213,215,-1,281,215,217,-1,232,236,150,-1,150,236,226,-1,150,226,288,-1,288,226,287,-1,188,186,289,-1,289,186,182,-1,289,182,280,-1,280,182,185,-1,280,185,180,-1,190,291,209,-1,209,291,294,-1,209,294,207,-1,247,228,233,-1,221,223,285,-1,285,223,225,-1,285,225,295,-1,295,225,194,-1,295,194,296,-1,296,194,197,-1,296,197,297,-1,297,197,199,-1,269,271,250,-1,250,271,273,-1,250,273,275,-1,178,160,177,-1,177,160,163,-1,177,163,175,-1,175,163,165,-1,207,294,205,-1,205,294,298,-1,205,298,203,-1,203,298,299,-1,203,299,201,-1,201,299,300,-1,201,300,199,-1,199,300,301,-1,199,301,297,-1,248,237,250,-1,250,237,240,-1,250,240,232,-1,232,240,242,-1,232,242,233,-1,233,242,244,-1,233,244,247,-1,253,255,265,-1,265,255,257,-1,265,257,263,-1,263,257,259,-1,263,259,261,-1,165,167,175,-1,175,167,169,-1,175,169,173,-1,173,169,171,-1,253,265,250,-1,250,265,267,-1,250,267,269,-1,280,288,302,-1,302,288,303,-1,289,280,304,-1,304,280,302,-1,289,304,305,-1,289,305,290,-1,290,305,306,-1,290,306,291,-1,291,306,307,-1,291,307,294,-1,294,307,308,-1,294,308,298,-1,298,308,309,-1,298,309,299,-1,299,309,310,-1,299,310,300,-1,300,310,311,-1,300,311,301,-1,301,311,312,-1,301,312,297,-1,297,312,313,-1,297,313,296,-1,296,313,314,-1,296,314,295,-1,295,314,315,-1,295,315,285,-1,285,315,316,-1,285,316,284,-1,284,316,317,-1,284,317,283,-1,283,317,318,-1,283,318,282,-1,282,318,319,-1,282,319,281,-1,281,319,320,-1,281,320,293,-1,293,320,321,-1,293,321,292,-1,286,292,322,-1,322,292,321,-1,286,322,323,-1,286,323,287,-1,287,323,303,-1,287,303,288,-1,324,325,326,-1,326,325,327,-1,325,328,327,-1,327,328,329,-1,328,330,329,-1,329,330,331,-1,332,333,334,-1,332,334,335,-1,335,334,336,-1,335,336,337,-1,337,336,331,-1,337,331,330,-1,332,338,333,-1,333,338,339,-1,338,340,339,-1,339,340,341,-1,342,343,344,-1,342,344,345,-1,345,344,346,-1,345,346,347,-1,347,346,348,-1,347,348,349,-1,349,348,350,-1,349,350,351,-1,351,350,352,-1,351,352,353,-1,353,352,354,-1,353,354,355,-1,355,354,356,-1,355,356,357,-1,357,356,358,-1,357,358,359,-1,359,358,360,-1,359,360,361,-1,361,360,362,-1,361,362,363,-1,363,362,341,-1,363,341,340,-1,342,364,343,-1,343,364,365,-1,364,366,365,-1,365,366,367,-1,366,368,367,-1,367,368,369,-1,370,371,372,-1,370,372,373,-1,373,372,369,-1,373,369,368,-1,370,374,371,-1,371,374,375,-1,374,376,375,-1,375,376,377,-1,378,379,380,-1,378,380,381,-1,381,380,382,-1,381,382,383,-1,383,382,384,-1,383,384,385,-1,385,384,386,-1,385,386,387,-1,387,386,388,-1,387,388,389,-1,389,388,390,-1,389,390,391,-1,391,390,392,-1,391,392,393,-1,393,392,394,-1,393,394,395,-1,395,394,396,-1,395,396,397,-1,397,396,398,-1,397,398,399,-1,399,398,377,-1,399,377,376,-1,378,400,379,-1,379,400,401,-1,402,403,404,-1,402,404,405,-1,405,404,401,-1,405,401,400,-1,402,406,403,-1,403,406,407,-1,408,409,410,-1,408,410,411,-1,411,410,412,-1,411,412,413,-1,413,412,414,-1,413,414,415,-1,415,414,416,-1,415,416,417,-1,417,416,418,-1,417,418,419,-1,419,418,420,-1,419,420,421,-1,421,420,422,-1,421,422,423,-1,423,422,424,-1,423,424,425,-1,425,424,426,-1,425,426,427,-1,427,426,428,-1,427,428,429,-1,429,428,407,-1,429,407,406,-1,430,431,432,-1,430,432,433,-1,433,432,409,-1,433,409,408,-1,430,434,431,-1,431,434,435,-1,436,437,438,-1,436,438,439,-1,439,438,435,-1,439,435,434,-1,436,440,437,-1,437,440,441,-1,442,443,444,-1,442,444,445,-1,445,444,446,-1,445,446,447,-1,447,446,448,-1,447,448,449,-1,449,448,450,-1,449,450,451,-1,451,450,452,-1,451,452,453,-1,453,452,454,-1,453,454,455,-1,455,454,456,-1,455,456,457,-1,457,456,458,-1,457,458,459,-1,459,458,460,-1,459,460,461,-1,461,460,462,-1,461,462,463,-1,463,462,464,-1,463,464,465,-1,465,464,466,-1,465,466,467,-1,467,466,468,-1,467,468,469,-1,469,468,470,-1,469,470,471,-1,471,470,441,-1,471,441,440,-1,442,472,443,-1,443,472,473,-1,474,475,476,-1,474,476,477,-1,477,476,473,-1,477,473,472,-1,474,478,475,-1,475,478,479,-1,480,481,482,-1,480,482,483,-1,483,482,479,-1,483,479,478,-1,480,484,481,-1,481,484,485,-1,486,487,488,-1,486,488,489,-1,489,488,490,-1,489,490,491,-1,491,490,485,-1,491,485,484,-1,486,492,487,-1,487,492,493,-1,492,494,493,-1,493,494,495,-1,496,497,498,-1,496,498,499,-1,499,498,500,-1,499,500,501,-1,501,500,502,-1,501,502,503,-1,503,502,504,-1,503,504,505,-1,505,504,506,-1,505,506,507,-1,507,506,508,-1,507,508,509,-1,509,508,510,-1,509,510,511,-1,511,510,512,-1,511,512,513,-1,513,512,514,-1,513,514,515,-1,515,514,516,-1,515,516,517,-1,517,516,495,-1,517,495,494,-1,496,518,497,-1,497,518,519,-1,324,326,520,-1,324,520,521,-1,521,520,519,-1,521,519,518,-1,370,373,400,-1,400,373,368,-1,423,425,366,-1,366,425,427,-1,366,427,429,-1,411,366,408,-1,408,366,433,-1,467,469,325,-1,389,391,376,-1,429,406,366,-1,366,406,402,-1,366,402,368,-1,368,402,405,-1,368,405,400,-1,436,439,366,-1,439,434,366,-1,366,434,430,-1,366,430,433,-1,411,413,366,-1,366,413,415,-1,366,415,417,-1,328,364,330,-1,330,364,342,-1,330,342,337,-1,337,342,335,-1,515,517,496,-1,496,517,494,-1,469,471,325,-1,325,471,440,-1,325,440,328,-1,328,440,436,-1,328,436,364,-1,364,436,366,-1,335,342,332,-1,332,342,340,-1,332,340,338,-1,370,400,374,-1,374,400,378,-1,374,378,376,-1,376,378,381,-1,376,381,383,-1,391,393,395,-1,417,419,366,-1,366,419,421,-1,366,421,423,-1,451,453,325,-1,325,453,455,-1,461,463,325,-1,325,463,465,-1,325,465,467,-1,494,492,496,-1,496,492,486,-1,496,486,518,-1,518,486,489,-1,518,489,521,-1,521,489,491,-1,521,491,324,-1,324,491,484,-1,324,484,325,-1,325,484,480,-1,325,480,483,-1,483,478,325,-1,325,478,474,-1,325,474,477,-1,395,397,391,-1,391,397,399,-1,391,399,376,-1,345,361,342,-1,342,361,363,-1,342,363,340,-1,455,457,325,-1,325,457,459,-1,325,459,461,-1,503,505,513,-1,477,472,325,-1,325,472,442,-1,325,442,445,-1,383,385,376,-1,376,385,387,-1,376,387,389,-1,345,347,361,-1,361,347,349,-1,361,349,359,-1,359,349,351,-1,351,353,359,-1,359,353,355,-1,359,355,357,-1,503,513,501,-1,445,447,325,-1,325,447,449,-1,325,449,451,-1,515,496,513,-1,513,496,499,-1,513,499,501,-1,505,507,513,-1,513,507,509,-1,513,509,511,-1,522,523,524,-1,524,523,525,-1,523,526,525,-1,525,526,527,-1,526,528,527,-1,527,528,529,-1,528,530,529,-1,529,530,531,-1,530,532,531,-1,531,532,533,-1,534,535,536,-1,534,536,537,-1,537,536,538,-1,537,538,539,-1,539,538,540,-1,539,540,541,-1,541,540,542,-1,541,542,543,-1,543,542,544,-1,543,544,545,-1,545,544,546,-1,545,546,547,-1,547,546,533,-1,547,533,532,-1,548,549,550,-1,548,550,551,-1,551,550,552,-1,551,552,553,-1,553,552,554,-1,553,554,555,-1,555,554,556,-1,555,556,557,-1,557,556,558,-1,557,558,559,-1,559,558,560,-1,559,560,561,-1,561,560,562,-1,561,562,563,-1,563,562,535,-1,563,535,534,-1,564,565,566,-1,564,566,567,-1,567,566,568,-1,567,568,569,-1,569,568,570,-1,569,570,571,-1,571,570,572,-1,571,572,573,-1,573,572,574,-1,573,574,575,-1,575,574,576,-1,575,576,577,-1,577,576,549,-1,577,549,548,-1,578,579,580,-1,578,580,581,-1,581,580,582,-1,581,582,583,-1,583,582,584,-1,583,584,585,-1,585,584,586,-1,585,586,587,-1,587,586,588,-1,587,588,589,-1,589,588,590,-1,589,590,591,-1,591,590,565,-1,591,565,564,-1,578,592,579,-1,579,592,593,-1,592,594,593,-1,593,594,595,-1,596,597,598,-1,596,598,599,-1,599,598,600,-1,599,600,601,-1,601,600,602,-1,601,602,603,-1,603,602,604,-1,603,604,605,-1,605,604,606,-1,605,606,607,-1,607,606,608,-1,607,608,609,-1,609,608,595,-1,609,595,594,-1,610,611,612,-1,610,612,613,-1,613,612,614,-1,613,614,615,-1,615,614,616,-1,615,616,617,-1,617,616,618,-1,617,618,619,-1,619,618,620,-1,619,620,621,-1,621,620,622,-1,621,622,623,-1,623,622,624,-1,623,624,625,-1,625,624,597,-1,625,597,596,-1,626,627,628,-1,626,628,629,-1,629,628,630,-1,629,630,631,-1,631,630,632,-1,631,632,633,-1,633,632,634,-1,633,634,635,-1,635,634,636,-1,635,636,637,-1,637,636,638,-1,637,638,639,-1,639,638,611,-1,639,611,610,-1,522,524,640,-1,522,640,641,-1,641,640,642,-1,641,642,643,-1,643,642,644,-1,643,644,645,-1,645,644,627,-1,645,627,626,-1,530,528,523,-1,523,528,526,-1,594,592,578,-1,532,530,547,-1,547,530,523,-1,547,523,545,-1,545,523,543,-1,522,539,523,-1,523,539,541,-1,523,541,543,-1,522,641,539,-1,539,641,643,-1,539,643,537,-1,537,643,645,-1,537,645,534,-1,534,645,626,-1,534,626,563,-1,594,578,609,-1,609,578,581,-1,609,581,607,-1,607,581,583,-1,607,583,605,-1,605,583,585,-1,605,585,603,-1,603,585,587,-1,603,587,601,-1,601,587,589,-1,601,589,599,-1,599,589,591,-1,599,591,596,-1,596,591,564,-1,596,564,625,-1,625,564,567,-1,625,567,623,-1,623,567,569,-1,623,569,621,-1,621,569,571,-1,621,571,619,-1,619,571,573,-1,619,573,617,-1,617,573,575,-1,617,575,615,-1,615,575,577,-1,615,577,613,-1,613,577,548,-1,613,548,610,-1,610,548,551,-1,610,551,639,-1,551,553,639,-1,639,553,555,-1,639,555,637,-1,637,555,557,-1,637,557,635,-1,635,557,559,-1,635,559,633,-1,633,559,561,-1,633,561,631,-1,631,561,563,-1,631,563,629,-1,629,563,626,-1,646,647,648,-1,648,647,649,-1,647,650,649,-1,649,650,651,-1,651,650,652,-1,652,650,653,-1,652,653,654,-1,655,656,657,-1,655,657,658,-1,658,657,659,-1,658,659,660,-1,660,659,654,-1,660,654,653,-1,655,661,656,-1,656,661,662,-1,663,664,665,-1,663,665,666,-1,666,665,667,-1,666,667,668,-1,668,667,669,-1,668,669,670,-1,670,669,671,-1,670,671,672,-1,672,671,673,-1,672,673,674,-1,674,673,662,-1,674,662,661,-1,675,676,677,-1,675,677,678,-1,678,677,679,-1,678,679,680,-1,680,679,681,-1,680,681,682,-1,682,681,683,-1,682,683,684,-1,684,683,685,-1,684,685,686,-1,686,685,664,-1,686,664,663,-1,687,688,689,-1,687,689,690,-1,690,689,691,-1,690,691,692,-1,692,691,693,-1,692,693,694,-1,694,693,695,-1,694,695,696,-1,696,695,697,-1,696,697,698,-1,698,697,699,-1,698,699,700,-1,700,699,701,-1,700,701,702,-1,702,701,703,-1,702,703,704,-1,704,703,676,-1,704,676,675,-1,687,705,688,-1,688,705,706,-1,705,707,706,-1,706,707,708,-1,709,710,711,-1,709,711,712,-1,712,711,713,-1,712,713,714,-1,714,713,715,-1,714,715,716,-1,716,715,717,-1,716,717,718,-1,718,717,719,-1,718,719,720,-1,720,719,721,-1,720,721,722,-1,722,721,723,-1,722,723,724,-1,724,723,725,-1,724,725,726,-1,726,725,727,-1,726,727,728,-1,728,727,729,-1,728,729,730,-1,730,729,708,-1,730,708,707,-1,709,731,710,-1,710,731,732,-1,731,733,732,-1,732,733,734,-1,646,648,735,-1,646,735,736,-1,736,735,734,-1,736,734,733,-1,684,686,694,-1,692,694,668,-1,661,720,722,-1,686,663,694,-1,694,663,666,-1,694,666,668,-1,668,670,692,-1,692,670,672,-1,692,672,690,-1,690,672,674,-1,733,731,661,-1,731,709,661,-1,661,709,712,-1,661,712,714,-1,661,728,730,-1,650,647,653,-1,653,647,646,-1,653,646,660,-1,660,646,736,-1,660,736,658,-1,658,736,733,-1,658,733,655,-1,655,733,661,-1,714,716,661,-1,661,716,718,-1,661,718,720,-1,678,680,694,-1,694,680,682,-1,694,682,684,-1,722,724,661,-1,661,724,726,-1,661,726,728,-1,730,707,661,-1,661,707,705,-1,661,705,674,-1,674,705,687,-1,674,687,690,-1,694,696,678,-1,678,696,698,-1,678,698,700,-1,700,702,678,-1,678,702,704,-1,678,704,675,-1,
        ]
    }
}
Shape{
    appearance Appearance {
        material  Material {
            diffuseColor 0.2235294117647059 0.2235294117647059 0.2235294117647059
            specularColor 0.11372549019607843 0.11372549019607843 0.11372549019607843
            ambientIntensity 0.2235
            transparency 0.0
            shininess 0.5
        }
    }
    geometry IndexedFaceSet {
        ccw TRUE
        solid FALSE
        coord DEF co Coordinate {
            point [
                -0.1455 0.5906 0.0, -0.1531 0.5833 0.0, -0.135 0.6628 0.0, -0.1166 0.5796 0.0, -0.1277 0.5819 0.0, -0.1358 0.5844 0.0, -0.1384 0.5858 0.0, -0.0266 0.6729 0.0, -0.0145 0.6702 0.0, -0.0675 0.6107 0.0, -0.0092 0.6679 0.0, -0.0092 0.5182 0.0, -0.0136 0.518 0.0, -0.0179 0.5182 0.0, -0.0389 0.6739 0.0, -0.0304 0.5196 0.0, -0.0391 0.5207 0.0, -0.0454 0.5223 0.0, -0.0459 0.6726 0.0, -0.0642 0.6492 0.0, -0.0617 0.6578 0.0, -0.05 0.5243 0.0, -0.0534 0.527 0.0, -0.0567 0.5312 0.0, -0.0585 0.6639 0.0, -0.0549 0.6681 0.0, -0.0516 0.6705 0.0, -0.0626 0.5446 0.0, -0.0672 0.5733 0.0
            ]
        }
        coordIndex [
            0,1,2,-1,2,3,4,-1,4,5,2,-1,2,5,6,-1,2,6,0,-1,7,8,9,-1,10,11,8,-1,8,11,12,-1,8,12,13,-1,7,9,14,-1,13,15,8,-1,8,15,16,-1,8,16,17,-1,14,9,18,-1,18,9,19,-1,18,19,20,-1,17,21,8,-1,8,21,22,-1,8,22,23,-1,20,24,18,-1,18,24,25,-1,18,25,26,-1,23,27,8,-1,8,27,28,-1,8,28,9,-1,
        ]
    }
}
Shape{
    appearance Appearance {
        material  Material {
            diffuseColor 0.25098039215686274 0.25098039215686274 0.25098039215686274
            specularColor 0.12549019607843137 0.12549019607843137 0.12549019607843137
            ambientIntensity 0.251
            transparency 0.0
            shininess 0.5
        }
    }
    geometry IndexedFaceSet {
        ccw TRUE
        solid FALSE
        coord DEF co Coordinate {
            point [
                -1.2205 1.1696 0.0, -1.2205 0.6889 0.0, -1.2205 0.7874 0.0886, -1.2205 0.7874 0.1476, -1.2205 0.5031 0.0, -1.2205 0.4997 0.0, -1.2205 0.9843 0.0886, -1.2205 0.9843 0.1476, -1.2205 1.1696 0.7365, -1.2205 -0.7874 0.1476, -1.2205 -0.7874 0.0886, -1.2205 -0.7737 0.0, -1.2205 -0.9843 0.0886, -1.2205 -1.1696 0.0, -1.2205 -0.9843 0.1476, -1.2205 -1.1696 0.7365
            ]
        }
        coordIndex [
            0,1,2,-1,2,1,3,-1,3,1,4,-1,3,4,5,-1,2,6,0,-1,0,6,7,-1,0,7,8,-1,8,7,3,-1,8,3,9,-1,9,3,5,-1,9,5,10,-1,10,5,11,-1,10,11,12,-1,12,11,13,-1,12,13,14,-1,14,13,15,-1,14,15,9,-1,9,15,8,-1,
        ]
    }
}
Shape{
    appearance Appearance {
        material  Material {
            diffuseColor 0.7529411764705882 0.7529411764705882 0.7529411764705882
            specularColor 0.3764705882352941 0.3764705882352941 0.3764705882352941
            ambientIntensity 0.7529
            transparency 0.0
            shininess 0.5
        }
    }
    geometry IndexedFaceSet {
        ccw TRUE
        solid FALSE
        coord DEF co Coordinate {
            point [
                -1.5593 -0.9843 0.0689, -1.2837 -0.9843 0.1476, -1.5593 -0.7874 0.0689, -1.2837 -0.7874 0.1476, -1.6732 -0.9843 0.0689, -1.6732 -0.7874 0.0689, -1.6732 -0.9843 0.0098, -1.6732 -0.7874 0.0098, -1.551 -0.9843 0.0098, -1.551 -0.7874 0.0098, -1.2754 -0.9843 0.0886, -1.2754 -0.7874 0.0886, -1.2205 -0.7874 0.0886, -1.2205 -0.7874 0.1476, -1.2205 -0.9843 0.0886, -1.2205 -0.9843 0.1476, -1.551 0.9843 0.0098, -1.2754 0.9843 0.0886, -1.551 0.7874 0.0098, -1.2754 0.7874 0.0886, -1.6732 0.9843 0.0098, -1.6732 0.7874 0.0098, -1.6732 0.9843 0.0689, -1.6732 0.7874 0.0689, -1.5593 0.9843 0.0689, -1.5593 0.7874 0.0689, -1.2837 0.9843 0.1476, -1.2837 0.7874 0.1476, -1.2205 0.7874 0.1476, -1.2205 0.7874 0.0886, -1.2205 0.9843 0.0886, -1.2205 0.9843 0.1476
            ]
        }
        coordIndex [
            0,1,2,-1,2,1,3,-1,4,0,5,-1,5,0,2,-1,6,4,7,-1,7,4,5,-1,8,6,9,-1,9,6,7,-1,10,8,11,-1,11,8,9,-1,7,5,9,-1,9,5,2,-1,9,2,11,-1,11,2,3,-1,11,3,12,-1,12,3,13,-1,14,15,10,-1,10,15,1,-1,10,1,8,-1,8,1,0,-1,8,0,6,-1,6,0,4,-1,13,3,15,-1,15,3,1,-1,10,11,14,-1,14,11,12,-1,16,17,18,-1,18,17,19,-1,20,16,21,-1,21,16,18,-1,22,20,23,-1,23,20,21,-1,24,22,25,-1,25,22,23,-1,26,24,27,-1,27,24,25,-1,23,21,25,-1,25,21,18,-1,25,18,27,-1,27,18,19,-1,27,19,28,-1,28,19,29,-1,20,22,16,-1,16,22,24,-1,16,24,17,-1,17,24,26,-1,17,26,30,-1,30,26,31,-1,29,19,30,-1,30,19,17,-1,26,27,31,-1,31,27,28,-1,
        ]
    }
}
Shape{
    appearance Appearance {
        material  Material {
            diffuseColor 0.25098039215686274 0.25098039215686274 0.25098039215686274
            specularColor 0.12549019607843137 0.12549019607843137 0.12549019607843137
            ambientIntensity 0.251
            transparency 0.0
            shininess 0.5
        }
    }
    geometry IndexedFaceSet {
        ccw TRUE
        solid FALSE
        coord DEF co Coordinate {
            point [
                1.2205 -0.7874 0.0886, 1.2205 -0.9843 0.0886, 1.2205 -1.1696 0.0, 1.2205 -0.9843 0.1476, 1.2205 -1.1696 0.7365, 1.2205 -0.7874 0.1476, 1.2205 1.1696 0.7365, 1.2205 -0.7737 0.0, 1.2205 0.4997 0.0, 1.2205 0.7874 0.1476, 1.2205 0.5031 0.0, 1.2205 0.7874 0.0886, 1.2205 0.6889 0.0, 1.2205 0.9843 0.0886, 1.2205 1.1696 0.0, 1.2205 0.9843 0.1476
            ]
        }
        coordIndex [
            0,1,2,-1,2,1,3,-1,2,3,4,-1,4,3,5,-1,4,5,6,-1,2,7,0,-1,0,7,8,-1,0,8,9,-1,9,8,10,-1,9,10,11,-1,11,10,12,-1,11,12,13,-1,13,12,14,-1,13,14,15,-1,15,14,6,-1,15,6,9,-1,9,6,5,-1,9,5,0,-1,
        ]
    }
}
Shape{
    appearance Appearance {
        material  Material {
            diffuseColor 0.7529411764705882 0.7529411764705882 0.7529411764705882
            specularColor 0.3764705882352941 0.3764705882352941 0.3764705882352941
            ambientIntensity 0.7529
            transparency 0.0
            shininess 0.5
        }
    }
    geometry IndexedFaceSet {
        ccw TRUE
        solid FALSE
        coord DEF co Coordinate {
            point [
                1.551 -0.9843 0.0098, 1.2754 -0.9843 0.0886, 1.551 -0.7874 0.0098, 1.2754 -0.7874 0.0886, 1.6732 -0.9843 0.0098, 1.6732 -0.7874 0.0098, 1.6732 -0.9843 0.0689, 1.6732 -0.7874 0.0689, 1.5593 -0.9843 0.0689, 1.5593 -0.7874 0.0689, 1.2837 -0.9843 0.1476, 1.2837 -0.7874 0.1476, 1.2205 -0.7874 0.1476, 1.2205 -0.7874 0.0886, 1.2205 -0.9843 0.0886, 1.2205 -0.9843 0.1476, 1.5593 0.9843 0.0689, 1.2837 0.9843 0.1476, 1.5593 0.7874 0.0689, 1.2837 0.7874 0.1476, 1.6732 0.9843 0.0689, 1.6732 0.7874 0.0689, 1.6732 0.9843 0.0098, 1.6732 0.7874 0.0098, 1.551 0.9843 0.0098, 1.551 0.7874 0.0098, 1.2754 0.9843 0.0886, 1.2754 0.7874 0.0886, 1.2205 0.7874 0.0886, 1.2205 0.7874 0.1476, 1.2205 0.9843 0.0886, 1.2205 0.9843 0.1476, -1.2205 1.1417 0.748, 1.2205 1.1417 0.748, -1.2205 -1.1417 0.748, 1.2205 -1.1417 0.748, 0.5715 -0.1488 0.7874, 0.5381 -0.2432 0.7874, 1.2205 -1.1417 0.7874, 0.4893 -0.3307 0.7874, 0.4264 -0.4086 0.7874, 0.3512 -0.4748 0.7874, 0.2659 -0.5273 0.7874, -1.2205 -1.1417 0.7874, -0.1244 -0.5773 0.7874, -0.2202 -0.548 0.7874, -0.4595 -0.371 0.7874, -0.5156 -0.288 0.7874, -0.5568 -0.1967 0.7874, -0.3096 -0.5029 0.7874, -0.3902 -0.4433 0.7874, -0.5821 -0.0998 0.7874, -0.5906 -0.0 0.7874, -1.2205 1.1417 0.7874, -0.5821 0.0998 0.7874, -0.5568 0.1967 0.7874, 0.075 0.5858 0.7874, 1.2205 1.1417 0.7874, -0.0251 0.59 0.7874, -0.1244 0.5773 0.7874, 0.1729 0.5647 0.7874, 0.2659 0.5273 0.7874, 0.3512 0.4748 0.7874, 0.1729 -0.5647 0.7874, 0.075 -0.5858 0.7874, -0.0251 -0.59 0.7874, 0.4264 0.4086 0.7874, 0.4893 0.3307 0.7874, 0.5381 0.2432 0.7874, 0.5715 0.1488 0.7874, 0.5884 0.0501 0.7874, 0.5884 -0.0501 0.7874, -0.5156 0.288 0.7874, -0.4595 0.371 0.7874, -0.3902 0.4433 0.7874, -0.3096 0.5029 0.7874, -0.2202 0.548 0.7874, -0.3937 1.2205 0.7087, -1.2205 1.2205 0.7087, -1.2205 1.2185 0.7262, -0.3937 1.2185 0.7262, -1.2205 1.2127 0.7428, -0.3937 1.2127 0.7428, -1.2205 1.2033 0.7578, -0.3937 1.2033 0.7578, -1.2205 1.1908 0.7702, -0.3937 1.1908 0.7702, -1.2205 1.1759 0.7796, -0.3937 1.1759 0.7796, 0.3937 1.1759 0.7796, 0.3937 1.1614 0.7849, 1.2205 1.1593 0.7854, -0.3937 1.1614 0.7849, -1.2205 1.1593 0.7854, 1.2205 1.1759 0.7796, 1.2205 1.1908 0.7702, 0.3937 1.1908 0.7702, 1.2205 1.2033 0.7578, 0.3937 1.2033 0.7578, 1.2205 1.2127 0.7428, 0.3937 1.2127 0.7428, 1.2205 1.2185 0.7262, 0.3937 1.2185 0.7262, 1.2205 1.2205 0.7087, 0.3937 1.2205 0.7087, 0.3937 1.1811 0.7087, 1.2205 1.1811 0.7087, 0.3937 1.1801 0.7174, 1.2205 1.1801 0.7174, 0.3937 1.1772 0.7257, 1.2205 1.1772 0.7257, 0.3937 1.1725 0.7332, 1.2205 1.1725 0.7332, 0.3937 1.1663 0.7394, 1.2205 1.1663 0.7394, 0.3937 1.1614 0.7428, 1.2205 1.1588 0.7441, -0.3937 1.1614 0.7428, -1.2205 1.1811 0.7087, -0.3937 1.1811 0.7087, -1.2205 1.1801 0.7174, -0.3937 1.1801 0.7174, -1.2205 1.1772 0.7257, -0.3937 1.1772 0.7257, -1.2205 1.1725 0.7332, -0.3937 1.1725 0.7332, -1.2205 1.1663 0.7394, -0.3937 1.1663 0.7394, -1.2205 1.1588 0.7441, -1.2205 1.1505 0.747, 1.2205 1.1505 0.747, -1.2205 1.2205 0.4724, -0.7283 1.2205 0.0787, -0.3937 1.2205 0.1969, 0.7283 1.2205 0.0787, 0.3937 1.2205 0.1969, 1.2205 1.2205 0.4724, -1.2205 1.1811 0.4724, -0.3937 1.1811 0.1969, -0.7283 1.1811 0.0787, 0.3937 1.1811 0.1969, 0.7283 1.1811 0.0787, 1.2205 1.1811 0.4724, -0.3937 -1.1621 0.7847, -0.3937 -1.1614 0.7849, 0.3937 -1.1614 0.7849, 1.2205 -1.1621 0.7847, -1.2205 -1.1621 0.7847, -1.2205 -1.1811 0.7769, -0.3937 -1.1811 0.7769, -1.2205 -1.1974 0.7643, -0.3937 -1.1974 0.7643, -1.2205 -1.2099 0.748, -0.3937 -1.2099 0.748, -1.2205 -1.2178 0.729, -0.3937 -1.2178 0.729, -1.2205 -1.2205 0.7087, -0.3937 -1.2205 0.7087, 0.3937 -1.1621 0.7847, 0.3937 -1.1811 0.7769, 1.2205 -1.1811 0.7769, 0.3937 -1.1974 0.7643, 1.2205 -1.1974 0.7643, 0.3937 -1.2099 0.748, 1.2205 -1.2099 0.748, 0.3937 -1.2178 0.729, 1.2205 -1.2178 0.729, 0.3937 -1.2205 0.7087, 1.2205 -1.2205 0.7087, -0.3937 -1.1811 0.7087, -1.2205 -1.1811 0.7087, -0.3937 -1.1798 0.7189, -1.2205 -1.1798 0.7189, -0.3937 -1.1758 0.7283, -1.2205 -1.1758 0.7283, -0.3937 -1.1696 0.7365, -1.2205 -1.1696 0.7365, -0.3937 -1.1614 0.7428, -1.2205 -1.1614 0.7428, -1.2205 -1.1519 0.7467, 0.3937 -1.1614 0.7428, 1.2205 -1.1811 0.7087, 0.3937 -1.1811 0.7087, 1.2205 -1.1798 0.7189, 0.3937 -1.1798 0.7189, 1.2205 -1.1758 0.7283, 0.3937 -1.1758 0.7283, 1.2205 -1.1696 0.7365, 0.3937 -1.1696 0.7365, 1.2205 -1.1614 0.7428, 1.2205 -1.1519 0.7467, 1.2205 -1.2205 0.4724, 0.7283 -1.2205 0.0787, 0.3937 -1.2205 0.1969, -0.7283 -1.2205 0.0787, -0.3937 -1.2205 0.1969, -1.2205 -1.2205 0.4724, 1.2205 -1.1811 0.4724, 0.3937 -1.1811 0.1969, 0.7283 -1.1811 0.0787, -0.3937 -1.1811 0.1969, -0.7283 -1.1811 0.0787, -1.2205 -1.1811 0.4724
            ]
        }
        coordIndex [
            0,1,2,-1,2,1,3,-1,4,0,5,-1,5,0,2,-1,6,4,7,-1,7,4,5,-1,8,6,9,-1,9,6,7,-1,10,8,11,-1,11,8,9,-1,7,5,9,-1,9,5,2,-1,9,2,11,-1,11,2,3,-1,11,3,12,-1,12,3,13,-1,4,6,0,-1,0,6,8,-1,0,8,1,-1,1,8,10,-1,1,10,14,-1,14,10,15,-1,13,3,14,-1,14,3,1,-1,10,11,15,-1,15,11,12,-1,16,17,18,-1,18,17,19,-1,20,16,21,-1,21,16,18,-1,22,20,23,-1,23,20,21,-1,24,22,25,-1,25,22,23,-1,26,24,27,-1,27,24,25,-1,23,21,25,-1,25,21,18,-1,25,18,27,-1,27,18,19,-1,27,19,28,-1,28,19,29,-1,30,31,26,-1,26,31,17,-1,26,17,24,-1,24,17,16,-1,24,16,22,-1,22,16,20,-1,29,19,31,-1,31,19,17,-1,26,27,30,-1,30,27,28,-1,32,33,34,-1,34,33,35,-1,36,37,38,-1,38,37,39,-1,39,40,38,-1,38,40,41,-1,38,41,42,-1,43,44,45,-1,46,47,43,-1,43,47,48,-1,45,49,43,-1,43,49,50,-1,43,50,46,-1,48,51,43,-1,43,51,52,-1,43,52,53,-1,53,52,54,-1,53,54,55,-1,56,57,58,-1,58,57,53,-1,58,53,59,-1,56,60,57,-1,57,60,61,-1,57,61,62,-1,42,63,38,-1,38,63,64,-1,38,64,43,-1,43,64,65,-1,43,65,44,-1,62,66,57,-1,57,66,67,-1,57,67,68,-1,68,69,57,-1,57,69,70,-1,57,70,38,-1,38,70,71,-1,38,71,36,-1,55,72,53,-1,53,72,73,-1,53,73,74,-1,74,75,53,-1,53,75,76,-1,53,76,59,-1,77,78,79,-1,77,79,80,-1,80,79,81,-1,80,81,82,-1,82,81,83,-1,82,83,84,-1,84,83,85,-1,84,85,86,-1,86,85,87,-1,86,87,88,-1,89,90,91,-1,88,87,92,-1,92,87,93,-1,92,93,90,-1,91,94,89,-1,89,94,95,-1,89,95,96,-1,96,95,97,-1,96,97,98,-1,98,97,99,-1,98,99,100,-1,100,99,101,-1,100,101,102,-1,102,101,103,-1,102,103,104,-1,90,93,91,-1,91,93,53,-1,91,53,57,-1,105,106,107,-1,107,106,108,-1,107,108,109,-1,109,108,110,-1,109,110,111,-1,111,110,112,-1,111,112,113,-1,113,112,114,-1,113,114,115,-1,115,114,116,-1,115,116,117,-1,118,119,120,-1,120,119,121,-1,120,121,122,-1,122,121,123,-1,122,123,124,-1,124,123,125,-1,124,125,126,-1,126,125,127,-1,126,127,128,-1,127,117,128,-1,128,117,116,-1,128,116,129,-1,129,116,130,-1,129,130,32,-1,32,130,33,-1,131,78,77,-1,131,77,132,-1,132,77,133,-1,132,133,134,-1,134,133,135,-1,134,135,136,-1,136,135,104,-1,136,104,103,-1,119,118,137,-1,119,137,138,-1,138,137,139,-1,138,139,140,-1,140,139,141,-1,140,141,105,-1,105,141,142,-1,105,142,106,-1,132,134,139,-1,139,134,141,-1,143,144,43,-1,43,144,38,-1,38,144,145,-1,38,145,146,-1,43,147,143,-1,143,147,148,-1,143,148,149,-1,149,148,150,-1,149,150,151,-1,151,150,152,-1,151,152,153,-1,153,152,154,-1,153,154,155,-1,155,154,156,-1,155,156,157,-1,145,158,146,-1,146,158,159,-1,146,159,160,-1,160,159,161,-1,160,161,162,-1,162,161,163,-1,162,163,164,-1,164,163,165,-1,164,165,166,-1,166,165,167,-1,166,167,168,-1,169,170,171,-1,171,170,172,-1,171,172,173,-1,173,172,174,-1,173,174,175,-1,175,174,176,-1,175,176,177,-1,176,178,177,-1,177,178,179,-1,177,179,180,-1,181,182,183,-1,183,182,184,-1,183,184,185,-1,185,184,186,-1,185,186,187,-1,187,186,188,-1,187,188,189,-1,189,188,180,-1,189,180,190,-1,190,180,179,-1,190,179,35,-1,35,179,34,-1,191,168,167,-1,191,167,192,-1,192,167,193,-1,192,193,194,-1,194,193,195,-1,194,195,196,-1,196,195,157,-1,196,157,156,-1,182,181,197,-1,182,197,198,-1,198,197,199,-1,198,199,200,-1,200,199,201,-1,200,201,169,-1,169,201,202,-1,169,202,170,-1,192,194,199,-1,199,194,201,-1,
        ]
    }
}
Shape{
    appearance Appearance {
        material  Material {
            diffuseColor 1.0 0.41568627450980394 0.1843137254901961
            specularColor 0.5019607843137255 0.20784313725490197 0.09411764705882353
            ambientIntensity 0.564
            transparency 0.0
            shininess 0.5
        }
    }
    geometry IndexedFaceSet {
        ccw TRUE
        solid FALSE
        coord DEF co Coordinate {
            point [
                -0.5816 -0.0997 1.1811, -0.5894 -0.0364 1.1811, -0.5821 -0.0998 0.7874, -0.5906 -0.0 0.7874, -0.5805 -0.1085 1.1811, -0.5568 -0.1967 0.7874, -0.5628 -0.179 1.1811, -0.5021 -0.3109 1.1811, -0.5146 -0.2875 1.1811, -0.5156 -0.288 0.7874, -0.5365 -0.2468 1.1811, -0.556 -0.1964 1.1811, -0.3902 -0.4433 0.7874, -0.4111 -0.424 1.1811, -0.4595 -0.371 0.7874, -0.4594 -0.371 1.1811, -0.4601 -0.3702 1.1811, -0.3096 -0.5029 0.7874, -0.3559 -0.4713 1.1811, -0.3895 -0.4425 1.1811, -0.22 -0.5474 1.1811, -0.2302 -0.5438 1.1811, -0.2202 -0.548 0.7874, -0.2953 -0.5114 1.1811, -0.3092 -0.5022 1.1811, -0.1616 -0.568 1.1811, -0.1244 -0.5773 0.7874, -0.1242 -0.5762 1.1811, -0.0906 -0.5836 1.1811, -0.0251 -0.59 0.7874, -0.025 -0.5896 1.1811, -0.0182 -0.5903 1.1811, 0.075 -0.5858 0.7874, 0.0545 -0.588 1.1811, 0.1729 -0.5647 0.7874, 0.1263 -0.5769 1.1811, 0.0749 -0.5849 1.1811, 0.2658 -0.5272 1.1811, 0.2632 -0.5286 1.1811, 0.2659 -0.5273 0.7874, 0.1963 -0.557 1.1811, 0.1727 -0.5637 1.1811, 0.3262 -0.4923 1.1811, 0.3512 -0.4748 0.7874, 0.3505 -0.4739 1.1811, 0.3842 -0.4485 1.1811, 0.4264 -0.4086 0.7874, 0.4258 -0.4081 1.1811, 0.4364 -0.3979 1.1811, 0.4893 -0.3307 0.7874, 0.482 -0.3412 1.1811, 0.5381 -0.2432 0.7874, 0.5203 -0.2794 1.1811, 0.4887 -0.3304 1.1811, 0.5715 -0.1488 0.7874, 0.5507 -0.2133 1.1811, 0.5371 -0.2428 1.1811, 0.5875 -0.05 1.1811, 0.5861 -0.0726 1.1811, 0.5884 -0.0501 0.7874, 0.5727 -0.144 1.1811, 0.5712 -0.1487 1.1811, 0.5906 0.0 1.1811, 0.5884 0.0501 0.7874, 0.5875 0.05 1.1811, 0.5861 0.0726 1.1811, 0.5715 0.1488 0.7874, 0.5727 0.144 1.1811, 0.5381 0.2432 0.7874, 0.5507 0.2133 1.1811, 0.5712 0.1487 1.1811, 0.4893 0.3307 0.7874, 0.5203 0.2794 1.1811, 0.5371 0.2428 1.1811, 0.4258 0.4081 1.1811, 0.4364 0.3979 1.1811, 0.4264 0.4086 0.7874, 0.482 0.3412 1.1811, 0.4887 0.3304 1.1811, 0.3842 0.4485 1.1811, 0.3512 0.4748 0.7874, 0.3505 0.4739 1.1811, 0.3262 0.4923 1.1811, 0.2659 0.5273 0.7874, 0.2658 0.5272 1.1811, 0.2632 0.5286 1.1811, 0.1729 0.5647 0.7874, 0.1963 0.557 1.1811, 0.075 0.5858 0.7874, 0.1263 0.5769 1.1811, 0.1727 0.5637 1.1811, -0.025 0.5896 1.1811, -0.0182 0.5903 1.1811, -0.0251 0.59 0.7874, 0.0545 0.588 1.1811, 0.0749 0.5849 1.1811, -0.0906 0.5836 1.1811, -0.1244 0.5773 0.7874, -0.1242 0.5762 1.1811, -0.1616 0.568 1.1811, -0.2202 0.548 0.7874, -0.22 0.5474 1.1811, -0.2302 0.5438 1.1811, -0.3096 0.5029 0.7874, -0.2953 0.5114 1.1811, -0.3902 0.4433 0.7874, -0.3559 0.4713 1.1811, -0.3092 0.5022 1.1811, -0.4595 0.371 0.7874, -0.4111 0.424 1.1811, -0.3895 0.4425 1.1811, -0.5146 0.2875 1.1811, -0.5021 0.3109 1.1811, -0.5156 0.288 0.7874, -0.4601 0.3702 1.1811, -0.4594 0.371 1.1811, -0.5365 0.2468 1.1811, -0.5568 0.1967 0.7874, -0.556 0.1964 1.1811, -0.5628 0.179 1.1811, -0.5821 0.0998 0.7874, -0.5805 0.1085 1.1811, -0.5894 0.0 1.1811, -0.5894 0.0364 1.1811, -0.5816 0.0997 1.1811, 0.5345 -0.1344 1.2205, 0.547 -0.0677 1.2205, 0.0 0.0 1.2205, 0.5512 -0.0 1.2205, 0.547 0.0677 1.2205, 0.4499 -0.3185 1.2205, 0.4856 -0.2608 1.2205, 0.514 -0.1991 1.2205, 0.3045 -0.4595 1.2205, 0.3586 -0.4186 1.2205, 0.4073 -0.3713 1.2205, 0.1179 -0.5384 1.2205, 0.1832 -0.5198 1.2205, 0.2457 -0.4934 1.2205, -0.0845 -0.5447 1.2205, -0.017 -0.5509 1.2205, 0.0509 -0.5488 1.2205, -0.2756 -0.4773 1.2205, -0.2148 -0.5076 1.2205, -0.1508 -0.5301 1.2205, -0.4294 -0.3455 1.2205, -0.3837 -0.3957 1.2205, -0.3322 -0.4399 1.2205, -0.5252 -0.1671 1.2205, -0.5007 -0.2304 1.2205, -0.4686 -0.2902 1.2205, -0.5501 0.0339 1.2205, -0.5501 -0.0339 1.2205, -0.5418 -0.1013 1.2205, -0.5007 0.2304 1.2205, -0.5252 0.1671 1.2205, -0.5418 0.1013 1.2205, -0.3837 0.3957 1.2205, -0.4294 0.3455 1.2205, -0.4686 0.2902 1.2205, -0.2148 0.5076 1.2205, -0.2756 0.4773 1.2205, -0.3322 0.4399 1.2205, -0.017 0.5509 1.2205, -0.0845 0.5447 1.2205, -0.1508 0.5301 1.2205, 0.1832 0.5198 1.2205, 0.1179 0.5384 1.2205, 0.0509 0.5488 1.2205, 0.3586 0.4186 1.2205, 0.3045 0.4595 1.2205, 0.2457 0.4934 1.2205, 0.4856 0.2608 1.2205, 0.4499 0.3185 1.2205, 0.4073 0.3713 1.2205, 0.5345 0.1344 1.2205, 0.514 0.1991 1.2205
            ]
        }
        coordIndex [
            0,1,2,-1,2,1,3,-1,0,2,4,-1,4,2,5,-1,4,5,6,-1,7,8,9,-1,9,8,10,-1,9,10,5,-1,5,10,11,-1,5,11,6,-1,12,13,14,-1,14,13,15,-1,14,15,9,-1,9,15,16,-1,9,16,7,-1,17,18,12,-1,12,18,19,-1,12,19,13,-1,20,21,22,-1,22,21,23,-1,22,23,17,-1,17,23,24,-1,17,24,18,-1,20,22,25,-1,25,22,26,-1,25,26,27,-1,27,26,28,-1,28,26,29,-1,28,29,30,-1,30,29,31,-1,31,29,32,-1,31,32,33,-1,34,35,32,-1,32,35,36,-1,32,36,33,-1,37,38,39,-1,39,38,40,-1,39,40,34,-1,34,40,41,-1,34,41,35,-1,37,39,42,-1,42,39,43,-1,42,43,44,-1,44,43,45,-1,45,43,46,-1,45,46,47,-1,47,46,48,-1,48,46,49,-1,48,49,50,-1,51,52,49,-1,49,52,53,-1,49,53,50,-1,54,55,51,-1,51,55,56,-1,51,56,52,-1,57,58,59,-1,59,58,60,-1,59,60,54,-1,54,60,61,-1,54,61,55,-1,57,59,62,-1,62,59,63,-1,62,63,64,-1,64,63,65,-1,65,63,66,-1,65,66,67,-1,68,69,66,-1,66,69,70,-1,66,70,67,-1,71,72,68,-1,68,72,73,-1,68,73,69,-1,74,75,76,-1,76,75,77,-1,76,77,71,-1,71,77,78,-1,71,78,72,-1,74,76,79,-1,79,76,80,-1,79,80,81,-1,81,80,82,-1,82,80,83,-1,82,83,84,-1,84,83,85,-1,85,83,86,-1,85,86,87,-1,88,89,86,-1,86,89,90,-1,86,90,87,-1,91,92,93,-1,93,92,94,-1,93,94,88,-1,88,94,95,-1,88,95,89,-1,91,93,96,-1,96,93,97,-1,96,97,98,-1,98,97,99,-1,99,97,100,-1,99,100,101,-1,101,100,102,-1,102,100,103,-1,102,103,104,-1,105,106,103,-1,103,106,107,-1,103,107,104,-1,108,109,105,-1,105,109,110,-1,105,110,106,-1,111,112,113,-1,113,112,114,-1,113,114,108,-1,108,114,115,-1,108,115,109,-1,111,113,116,-1,116,113,117,-1,116,117,118,-1,118,117,119,-1,119,117,120,-1,119,120,121,-1,1,122,3,-1,3,122,123,-1,3,123,120,-1,120,123,124,-1,120,124,121,-1,125,126,127,-1,127,126,128,-1,127,128,129,-1,130,131,127,-1,127,131,132,-1,127,132,125,-1,133,134,127,-1,127,134,135,-1,127,135,130,-1,136,137,127,-1,127,137,138,-1,127,138,133,-1,139,140,127,-1,127,140,141,-1,127,141,136,-1,142,143,127,-1,127,143,144,-1,127,144,139,-1,145,146,127,-1,127,146,147,-1,127,147,142,-1,148,149,127,-1,127,149,150,-1,127,150,145,-1,151,152,127,-1,127,152,153,-1,127,153,148,-1,154,155,127,-1,127,155,156,-1,127,156,151,-1,157,158,127,-1,127,158,159,-1,127,159,154,-1,160,161,127,-1,127,161,162,-1,127,162,157,-1,163,164,127,-1,127,164,165,-1,127,165,160,-1,166,167,127,-1,127,167,168,-1,127,168,163,-1,169,170,127,-1,127,170,171,-1,127,171,166,-1,172,173,127,-1,127,173,174,-1,127,174,169,-1,129,175,127,-1,127,175,176,-1,127,176,172,-1,
        ]
    }
}
Shape{
    appearance Appearance {
        material  Material {
            diffuseColor 0.7529411764705882 0.7529411764705882 0.7529411764705882
            specularColor 0.3764705882352941 0.3764705882352941 0.3764705882352941
            ambientIntensity 0.7529
            transparency 0.0
            shininess 0.5
        }
    }
    geometry IndexedFaceSet {
        ccw TRUE
        solid FALSE
        coord DEF co Coordinate {
            point [
                -0.3937 -1.1614 0.7428, 0.3937 -1.1614 0.7428, -0.3937 -1.1614 0.7849, 0.3937 -1.1614 0.7849, 0.3937 -1.1696 0.7365, 0.3937 -1.1811 0.7769, 0.3937 -1.1621 0.7847, 0.3937 -1.1811 0.1969, 0.3937 -1.2205 0.1969, 0.3937 -1.1811 0.7087, 0.3937 -1.2205 0.7087, 0.3937 -1.1798 0.7189, 0.3937 -1.2178 0.729, 0.3937 -1.1758 0.7283, 0.3937 -1.2099 0.748, 0.3937 -1.1974 0.7643, -0.3937 -1.2205 0.1969, -0.3937 -1.1811 0.1969, -0.3937 -1.2205 0.7087, -0.3937 -1.1811 0.7087, -0.3937 -1.2178 0.729, -0.3937 -1.1798 0.7189, -0.3937 -1.2099 0.748, -0.3937 -1.1758 0.7283, -0.3937 -1.1974 0.7643, -0.3937 -1.1696 0.7365, -0.3937 -1.1811 0.7769, -0.3937 -1.1621 0.7847, 0.3937 1.1614 0.7428, -0.3937 1.1614 0.7428, 0.3937 1.1614 0.7849, -0.3937 1.1614 0.7849, 0.3937 1.2205 0.1969, 0.3937 1.1811 0.1969, 0.3937 1.2205 0.7087, 0.3937 1.1811 0.7087, 0.3937 1.2185 0.7262, 0.3937 1.1801 0.7174, 0.3937 1.2127 0.7428, 0.3937 1.1772 0.7257, 0.3937 1.2033 0.7578, 0.3937 1.1725 0.7332, 0.3937 1.1908 0.7702, 0.3937 1.1663 0.7394, 0.3937 1.1759 0.7796, -0.3937 1.1759 0.7796, -0.3937 1.1663 0.7394, -0.3937 1.1811 0.1969, -0.3937 1.2205 0.1969, -0.3937 1.1811 0.7087, -0.3937 1.2205 0.7087, -0.3937 1.1801 0.7174, -0.3937 1.2185 0.7262, -0.3937 1.1772 0.7257, -0.3937 1.2127 0.7428, -0.3937 1.1725 0.7332, -0.3937 1.2033 0.7578, -0.3937 1.1908 0.7702
            ]
        }
        coordIndex [
            0,1,2,-1,2,1,3,-1,4,5,1,-1,1,5,6,-1,1,6,3,-1,7,8,9,-1,9,8,10,-1,9,10,11,-1,11,10,12,-1,11,12,13,-1,13,12,14,-1,13,14,4,-1,4,14,15,-1,4,15,5,-1,16,17,18,-1,18,17,19,-1,18,19,20,-1,20,19,21,-1,20,21,22,-1,22,21,23,-1,22,23,24,-1,24,23,25,-1,24,25,26,-1,26,25,0,-1,26,0,27,-1,27,0,2,-1,17,16,7,-1,7,16,8,-1,28,29,30,-1,30,29,31,-1,32,33,34,-1,34,33,35,-1,34,35,36,-1,36,35,37,-1,36,37,38,-1,38,37,39,-1,38,39,40,-1,40,39,41,-1,40,41,42,-1,42,41,43,-1,42,43,44,-1,44,43,28,-1,44,28,30,-1,31,29,45,-1,45,29,46,-1,47,48,49,-1,49,48,50,-1,49,50,51,-1,51,50,52,-1,51,52,53,-1,53,52,54,-1,53,54,55,-1,55,54,56,-1,55,56,46,-1,46,56,57,-1,46,57,45,-1,47,33,48,-1,48,33,32,-1,
        ]
    }
}
Shape{
    appearance Appearance {
        material  Material {
            diffuseColor 1.0 0.41568627450980394 0.1843137254901961
            specularColor 0.5019607843137255 0.20784313725490197 0.09411764705882353
            ambientIntensity 0.564
            transparency 0.0
            shininess 0.5
        }
    }
    geometry IndexedFaceSet {
        ccw TRUE
        solid FALSE
        coord DEF co Coordinate {
            point [
                0.5875 0.05 1.1811, 0.5861 0.0726 1.1811, 0.5847 0.0724 1.1913, 0.5712 0.1487 1.1811, 0.5507 0.2133 1.1811, 0.5494 0.2128 1.1913, 0.5371 0.2428 1.1811, 0.5203 0.2794 1.1811, 0.5191 0.2788 1.1913, 0.4258 0.4081 1.1811, 0.3842 0.4485 1.1811, 0.3834 0.4474 1.1913, 0.2658 0.5272 1.1811, 0.2632 0.5286 1.1811, 0.2626 0.5274 1.1913, 0.1727 0.5637 1.1811, 0.1263 0.5769 1.1811, 0.1261 0.5756 1.1913, -0.025 0.5896 1.1811, -0.0906 0.5836 1.1811, -0.0904 0.5822 1.1913, -0.1242 0.5762 1.1811, -0.1616 0.568 1.1811, -0.1612 0.5667 1.1913, -0.3092 0.5022 1.1811, -0.3559 0.4713 1.1811, -0.3551 0.4702 1.1913, -0.4594 0.371 1.1811, -0.4601 0.3702 1.1811, -0.459 0.3694 1.1913, -0.5146 0.2875 1.1811, -0.5365 0.2468 1.1811, -0.5353 0.2463 1.1913, -0.5816 0.0997 1.1811, -0.5894 0.0364 1.1811, -0.5881 0.0363 1.1913, -0.5894 0.0 1.1811, -0.5894 -0.0364 1.1811, -0.5881 -0.0363 1.1913, -0.556 -0.1964 1.1811, -0.5365 -0.2468 1.1811, -0.5353 -0.2463 1.1913, -0.4594 -0.371 1.1811, -0.4111 -0.424 1.1811, -0.4102 -0.423 1.1913, -0.3895 -0.4425 1.1811, -0.3559 -0.4713 1.1811, -0.3551 -0.4702 1.1913, -0.22 -0.5474 1.1811, -0.1616 -0.568 1.1811, -0.1612 -0.5667 1.1913, -0.1242 -0.5762 1.1811, -0.0906 -0.5836 1.1811, -0.0904 -0.5822 1.1913, 0.0749 -0.5849 1.1811, 0.1263 -0.5769 1.1811, 0.1261 -0.5756 1.1913, 0.2658 -0.5272 1.1811, 0.3262 -0.4923 1.1811, 0.3255 -0.4912 1.1913, 0.3505 -0.4739 1.1811, 0.3842 -0.4485 1.1811, 0.3834 -0.4474 1.1913, 0.4887 -0.3304 1.1811, 0.5203 -0.2794 1.1811, 0.5191 -0.2788 1.1913, 0.5371 -0.2428 1.1811, 0.5507 -0.2133 1.1811, 0.5494 -0.2128 1.1913, 0.5235 -0.2028 1.2191, 0.514 -0.1991 1.2205, 0.4856 -0.2608 1.2205, 0.5345 -0.1344 1.2205, 0.5444 -0.1369 1.2191, 0.5536 -0.1392 1.2152, 0.547 -0.0677 1.2205, 0.5571 -0.069 1.2191, 0.5665 -0.0702 1.2152, 0.5746 -0.0712 1.2089, 0.5512 -0.0 1.2205, 0.5614 0.0 1.2191, 0.5709 0.0 1.2152, 0.579 0.0 1.2089, 0.5853 0.0 1.2008, 0.547 0.0677 1.2205, 0.5571 0.069 1.2191, 0.5665 0.0702 1.2152, 0.5746 0.0712 1.2089, 0.5808 0.0719 1.2008, 0.5808 -0.0719 1.2008, 0.5847 -0.0724 1.1913, 0.5892 0.0 1.1913, 0.5714 -0.1437 1.1913, 0.5676 -0.1428 1.2008, 0.5615 -0.1412 1.2089, 0.4073 -0.3713 1.2205, 0.3586 -0.4186 1.2205, 0.4149 -0.3782 1.2191, 0.3652 -0.4263 1.2191, 0.4219 -0.3846 1.2152, 0.3714 -0.4335 1.2152, 0.4279 -0.3901 1.2089, 0.3767 -0.4397 1.2089, 0.4325 -0.3943 1.2008, 0.3808 -0.4445 1.2008, 0.4354 -0.3969 1.1913, 0.1832 -0.5198 1.2205, 0.1179 -0.5384 1.2205, 0.1866 -0.5295 1.2191, 0.1201 -0.5484 1.2191, 0.1897 -0.5384 1.2152, 0.1221 -0.5576 1.2152, 0.1924 -0.5461 1.2089, 0.1239 -0.5656 1.2089, 0.1945 -0.552 1.2008, 0.1252 -0.5717 1.2008, 0.1958 -0.5557 1.1913, -0.017 -0.5509 1.2205, -0.0845 -0.5447 1.2205, -0.0173 -0.5611 1.2191, -0.0861 -0.5547 1.2191, -0.0176 -0.5706 1.2152, -0.0876 -0.5641 1.2152, -0.0178 -0.5787 1.2089, -0.0888 -0.5722 1.2089, -0.018 -0.585 1.2008, -0.0898 -0.5784 1.2008, -0.0181 -0.5889 1.1913, -0.2756 -0.4773 1.2205, -0.3322 -0.4399 1.2205, -0.2807 -0.4862 1.2191, -0.3383 -0.448 1.2191, -0.2854 -0.4944 1.2152, -0.344 -0.4556 1.2152, -0.2895 -0.5014 1.2089, -0.3489 -0.4621 1.2089, -0.2926 -0.5069 1.2008, -0.3527 -0.4671 1.2008, -0.2946 -0.5103 1.1913, -0.4686 -0.2902 1.2205, -0.5007 -0.2304 1.2205, -0.4773 -0.2955 1.2191, -0.51 -0.2346 1.2191, -0.4854 -0.3005 1.2152, -0.5186 -0.2386 1.2152, -0.4923 -0.3048 1.2089, -0.526 -0.242 1.2089, -0.4976 -0.3081 1.2008, -0.5317 -0.2446 1.2008, -0.501 -0.3102 1.1913, -0.5418 -0.1013 1.2205, -0.5501 -0.0339 1.2205, -0.5518 -0.1032 1.2191, -0.5603 -0.0346 1.2191, -0.5611 -0.1049 1.2152, -0.5698 -0.0351 1.2152, -0.5692 -0.1064 1.2089, -0.5779 -0.0356 1.2089, -0.5753 -0.1075 1.2008, -0.5842 -0.036 1.2008, -0.5792 -0.1083 1.1913, -0.5252 0.1671 1.2205, -0.5007 0.2304 1.2205, -0.535 0.1702 1.2191, -0.51 0.2346 1.2191, -0.544 0.1731 1.2152, -0.5186 0.2386 1.2152, -0.5518 0.1755 1.2089, -0.526 0.242 1.2089, -0.5577 0.1774 1.2008, -0.5317 0.2446 1.2008, -0.5615 0.1786 1.1913, -0.3837 0.3957 1.2205, -0.3322 0.4399 1.2205, -0.3908 0.403 1.2191, -0.3383 0.448 1.2191, -0.3974 0.4098 1.2152, -0.344 0.4556 1.2152, -0.4031 0.4157 1.2089, -0.3489 0.4621 1.2089, -0.4074 0.4202 1.2008, -0.3527 0.4671 1.2008, -0.4102 0.423 1.1913, -0.2148 0.5076 1.2205, -0.1508 0.5301 1.2205, -0.2188 0.517 1.2191, -0.1536 0.5399 1.2191, -0.2225 0.5257 1.2152, -0.1562 0.5491 1.2152, -0.2257 0.5332 1.2089, -0.1585 0.5569 1.2089, -0.2281 0.539 1.2008, -0.1602 0.5629 1.2008, -0.2297 0.5426 1.1913, 0.0509 0.5488 1.2205, 0.1179 0.5384 1.2205, 0.0518 0.559 1.2191, 0.1201 0.5484 1.2191, 0.0527 0.5684 1.2152, 0.1221 0.5576 1.2152, 0.0534 0.5766 1.2089, 0.1239 0.5656 1.2089, 0.054 0.5828 1.2008, 0.1252 0.5717 1.2008, 0.0544 0.5867 1.1913, 0.3045 0.4595 1.2205, 0.3586 0.4186 1.2205, 0.3101 0.468 1.2191, 0.3652 0.4263 1.2191, 0.3153 0.4759 1.2152, 0.3714 0.4335 1.2152, 0.3198 0.4827 1.2089, 0.3767 0.4397 1.2089, 0.3233 0.4879 1.2008, 0.3808 0.4445 1.2008, 0.3255 0.4912 1.1913, 0.4499 0.3185 1.2205, 0.4856 0.2608 1.2205, 0.4582 0.3243 1.2191, 0.4946 0.2656 1.2191, 0.4659 0.3298 1.2152, 0.5029 0.2701 1.2152, 0.4726 0.3345 1.2089, 0.5101 0.2739 1.2089, 0.4777 0.3382 1.2008, 0.5156 0.2769 1.2008, 0.4809 0.3404 1.1913, 0.5712 -0.1487 1.1811, 0.5727 -0.144 1.1811, 0.5861 -0.0726 1.1811, 0.5875 -0.05 1.1811, 0.5906 0.0 1.1811, 0.5458 -0.2114 1.2008, 0.5399 -0.2092 1.2089, 0.5323 -0.2062 1.2152, 0.5156 -0.2769 1.2008, 0.5101 -0.2739 1.2089, 0.5029 -0.2701 1.2152, 0.4946 -0.2656 1.2191, 0.482 -0.3412 1.1811, 0.4809 -0.3404 1.1913, 0.4777 -0.3382 1.2008, 0.4726 -0.3345 1.2089, 0.4659 -0.3298 1.2152, 0.4582 -0.3243 1.2191, 0.4499 -0.3185 1.2205, 0.4364 -0.3979 1.1811, 0.4258 -0.4081 1.1811, 0.3233 -0.4879 1.2008, 0.3198 -0.4827 1.2089, 0.3153 -0.4759 1.2152, 0.3101 -0.468 1.2191, 0.3045 -0.4595 1.2205, 0.2632 -0.5286 1.1811, 0.2626 -0.5274 1.1913, 0.2609 -0.5239 1.2008, 0.2581 -0.5183 1.2089, 0.2545 -0.511 1.2152, 0.2502 -0.5025 1.2191, 0.2457 -0.4934 1.2205, 0.1963 -0.557 1.1811, 0.1727 -0.5637 1.1811, 0.0545 -0.588 1.1811, 0.0544 -0.5867 1.1913, 0.054 -0.5828 1.2008, 0.0534 -0.5766 1.2089, 0.0527 -0.5684 1.2152, 0.0518 -0.559 1.2191, 0.0509 -0.5488 1.2205, -0.0182 -0.5903 1.1811, -0.025 -0.5896 1.1811, -0.1508 -0.5301 1.2205, -0.1536 -0.5399 1.2191, -0.1562 -0.5491 1.2152, -0.1585 -0.5569 1.2089, -0.1602 -0.5629 1.2008, -0.2302 -0.5438 1.1811, -0.2297 -0.5426 1.1913, -0.2281 -0.539 1.2008, -0.2257 -0.5332 1.2089, -0.2225 -0.5257 1.2152, -0.2188 -0.517 1.2191, -0.2148 -0.5076 1.2205, -0.2953 -0.5114 1.1811, -0.3092 -0.5022 1.1811, -0.4074 -0.4202 1.2008, -0.4031 -0.4157 1.2089, -0.3974 -0.4098 1.2152, -0.3908 -0.403 1.2191, -0.3837 -0.3957 1.2205, -0.4601 -0.3702 1.1811, -0.459 -0.3694 1.1913, -0.456 -0.3669 1.2008, -0.4511 -0.363 1.2089, -0.4448 -0.3579 1.2152, -0.4374 -0.3519 1.2191, -0.4294 -0.3455 1.2205, -0.5021 -0.3109 1.1811, -0.5146 -0.2875 1.1811, -0.5628 -0.179 1.1811, -0.5615 -0.1786 1.1913, -0.5577 -0.1774 1.2008, -0.5518 -0.1755 1.2089, -0.544 -0.1731 1.2152, -0.535 -0.1702 1.2191, -0.5252 -0.1671 1.2205, -0.5805 -0.1085 1.1811, -0.5816 -0.0997 1.1811, -0.5842 0.036 1.2008, -0.5779 0.0356 1.2089, -0.5698 0.0351 1.2152, -0.5603 0.0346 1.2191, -0.5501 0.0339 1.2205, -0.5805 0.1085 1.1811, -0.5792 0.1083 1.1913, -0.5753 0.1075 1.2008, -0.5692 0.1064 1.2089, -0.5611 0.1049 1.2152, -0.5518 0.1032 1.2191, -0.5418 0.1013 1.2205, -0.5628 0.179 1.1811, -0.556 0.1964 1.1811, -0.5021 0.3109 1.1811, -0.501 0.3102 1.1913, -0.4976 0.3081 1.2008, -0.4923 0.3048 1.2089, -0.4854 0.3005 1.2152, -0.4773 0.2955 1.2191, -0.4686 0.2902 1.2205, -0.4294 0.3455 1.2205, -0.4374 0.3519 1.2191, -0.4448 0.3579 1.2152, -0.4511 0.363 1.2089, -0.456 0.3669 1.2008, -0.4111 0.424 1.1811, -0.3895 0.4425 1.1811, -0.2953 0.5114 1.1811, -0.2946 0.5103 1.1913, -0.2926 0.5069 1.2008, -0.2895 0.5014 1.2089, -0.2854 0.4944 1.2152, -0.2807 0.4862 1.2191, -0.2756 0.4773 1.2205, -0.2302 0.5438 1.1811, -0.22 0.5474 1.1811, -0.0898 0.5784 1.2008, -0.0888 0.5722 1.2089, -0.0876 0.5641 1.2152, -0.0861 0.5547 1.2191, -0.0845 0.5447 1.2205, -0.0182 0.5903 1.1811, -0.0181 0.5889 1.1913, -0.018 0.585 1.2008, -0.0178 0.5787 1.2089, -0.0176 0.5706 1.2152, -0.0173 0.5611 1.2191, -0.017 0.5509 1.2205, 0.0545 0.588 1.1811, 0.0749 0.5849 1.1811, 0.1963 0.557 1.1811, 0.1958 0.5557 1.1913, 0.1945 0.552 1.2008, 0.1924 0.5461 1.2089, 0.1897 0.5384 1.2152, 0.1866 0.5295 1.2191, 0.1832 0.5198 1.2205, 0.2457 0.4934 1.2205, 0.2502 0.5025 1.2191, 0.2545 0.511 1.2152, 0.2581 0.5183 1.2089, 0.2609 0.5239 1.2008, 0.3262 0.4923 1.1811, 0.3505 0.4739 1.1811, 0.4364 0.3979 1.1811, 0.4354 0.3969 1.1913, 0.4325 0.3943 1.2008, 0.4279 0.3901 1.2089, 0.4219 0.3846 1.2152, 0.4149 0.3782 1.2191, 0.4073 0.3713 1.2205, 0.482 0.3412 1.1811, 0.4887 0.3304 1.1811, 0.5458 0.2114 1.2008, 0.5399 0.2092 1.2089, 0.5323 0.2062 1.2152, 0.5235 0.2028 1.2191, 0.514 0.1991 1.2205, 0.5727 0.144 1.1811, 0.5714 0.1437 1.1913, 0.5676 0.1428 1.2008, 0.5615 0.1412 1.2089, 0.5536 0.1392 1.2152, 0.5444 0.1369 1.2191, 0.5345 0.1344 1.2205
            ]
        }
        coordIndex [
            0,1,2,-1,3,4,5,-1,6,7,8,-1,9,10,11,-1,12,13,14,-1,15,16,17,-1,18,19,20,-1,21,22,23,-1,24,25,26,-1,27,28,29,-1,30,31,32,-1,33,34,35,-1,36,37,38,-1,39,40,41,-1,42,43,44,-1,45,46,47,-1,48,49,50,-1,51,52,53,-1,54,55,56,-1,57,58,59,-1,60,61,62,-1,63,64,65,-1,66,67,68,-1,69,70,71,-1,72,70,73,-1,73,70,69,-1,73,69,74,-1,75,72,76,-1,76,72,73,-1,76,73,77,-1,77,73,74,-1,77,74,78,-1,79,75,80,-1,80,75,76,-1,80,76,81,-1,81,76,77,-1,81,77,82,-1,82,77,78,-1,82,78,83,-1,84,79,85,-1,85,79,80,-1,85,80,86,-1,86,80,81,-1,86,81,87,-1,87,81,82,-1,87,82,88,-1,88,82,83,-1,88,83,2,-1,89,90,91,-1,92,90,93,-1,93,90,89,-1,93,89,94,-1,95,96,97,-1,97,96,98,-1,97,98,99,-1,99,98,100,-1,99,100,101,-1,101,100,102,-1,101,102,103,-1,103,102,104,-1,103,104,105,-1,105,104,62,-1,106,107,108,-1,108,107,109,-1,108,109,110,-1,110,109,111,-1,110,111,112,-1,112,111,113,-1,112,113,114,-1,114,113,115,-1,114,115,116,-1,116,115,56,-1,117,118,119,-1,119,118,120,-1,119,120,121,-1,121,120,122,-1,121,122,123,-1,123,122,124,-1,123,124,125,-1,125,124,126,-1,125,126,127,-1,127,126,53,-1,128,129,130,-1,130,129,131,-1,130,131,132,-1,132,131,133,-1,132,133,134,-1,134,133,135,-1,134,135,136,-1,136,135,137,-1,136,137,138,-1,138,137,47,-1,139,140,141,-1,141,140,142,-1,141,142,143,-1,143,142,144,-1,143,144,145,-1,145,144,146,-1,145,146,147,-1,147,146,148,-1,147,148,149,-1,149,148,41,-1,150,151,152,-1,152,151,153,-1,152,153,154,-1,154,153,155,-1,154,155,156,-1,156,155,157,-1,156,157,158,-1,158,157,159,-1,158,159,160,-1,160,159,38,-1,161,162,163,-1,163,162,164,-1,163,164,165,-1,165,164,166,-1,165,166,167,-1,167,166,168,-1,167,168,169,-1,169,168,170,-1,169,170,171,-1,171,170,32,-1,172,173,174,-1,174,173,175,-1,174,175,176,-1,176,175,177,-1,176,177,178,-1,178,177,179,-1,178,179,180,-1,180,179,181,-1,180,181,182,-1,182,181,26,-1,183,184,185,-1,185,184,186,-1,185,186,187,-1,187,186,188,-1,187,188,189,-1,189,188,190,-1,189,190,191,-1,191,190,192,-1,191,192,193,-1,193,192,23,-1,194,195,196,-1,196,195,197,-1,196,197,198,-1,198,197,199,-1,198,199,200,-1,200,199,201,-1,200,201,202,-1,202,201,203,-1,202,203,204,-1,204,203,17,-1,205,206,207,-1,207,206,208,-1,207,208,209,-1,209,208,210,-1,209,210,211,-1,211,210,212,-1,211,212,213,-1,213,212,214,-1,213,214,215,-1,215,214,11,-1,216,217,218,-1,218,217,219,-1,218,219,220,-1,220,219,221,-1,220,221,222,-1,222,221,223,-1,222,223,224,-1,224,223,225,-1,224,225,226,-1,226,225,8,-1,227,228,92,-1,92,228,229,-1,92,229,90,-1,90,229,230,-1,90,230,91,-1,91,230,231,-1,67,227,68,-1,68,227,92,-1,68,92,232,-1,232,92,93,-1,232,93,233,-1,233,93,94,-1,233,94,234,-1,64,66,65,-1,65,66,68,-1,65,68,235,-1,235,68,232,-1,235,232,236,-1,236,232,233,-1,236,233,237,-1,237,233,234,-1,237,234,238,-1,239,63,240,-1,240,63,65,-1,240,65,241,-1,241,65,235,-1,241,235,242,-1,242,235,236,-1,242,236,243,-1,243,236,237,-1,243,237,244,-1,244,237,238,-1,244,238,245,-1,245,238,71,-1,245,95,244,-1,244,95,97,-1,244,97,243,-1,243,97,99,-1,243,99,242,-1,242,99,101,-1,242,101,241,-1,241,101,103,-1,241,103,240,-1,240,103,105,-1,240,105,239,-1,239,105,246,-1,62,61,105,-1,105,61,247,-1,105,247,246,-1,58,60,59,-1,59,60,62,-1,59,62,248,-1,248,62,104,-1,248,104,249,-1,249,104,102,-1,249,102,250,-1,250,102,100,-1,250,100,251,-1,251,100,98,-1,251,98,252,-1,252,98,96,-1,253,57,254,-1,254,57,59,-1,254,59,255,-1,255,59,248,-1,255,248,256,-1,256,248,249,-1,256,249,257,-1,257,249,250,-1,257,250,258,-1,258,250,251,-1,258,251,259,-1,259,251,252,-1,259,106,258,-1,258,106,108,-1,258,108,257,-1,257,108,110,-1,257,110,256,-1,256,110,112,-1,256,112,255,-1,255,112,114,-1,255,114,254,-1,254,114,116,-1,254,116,253,-1,253,116,260,-1,56,55,116,-1,116,55,261,-1,116,261,260,-1,262,54,263,-1,263,54,56,-1,263,56,264,-1,264,56,115,-1,264,115,265,-1,265,115,113,-1,265,113,266,-1,266,113,111,-1,266,111,267,-1,267,111,109,-1,267,109,268,-1,268,109,107,-1,268,117,267,-1,267,117,119,-1,267,119,266,-1,266,119,121,-1,266,121,265,-1,265,121,123,-1,265,123,264,-1,264,123,125,-1,264,125,263,-1,263,125,127,-1,263,127,262,-1,262,127,269,-1,53,52,127,-1,127,52,270,-1,127,270,269,-1,118,271,120,-1,120,271,272,-1,120,272,122,-1,122,272,273,-1,122,273,124,-1,124,273,274,-1,124,274,126,-1,126,274,275,-1,126,275,53,-1,53,275,50,-1,53,50,51,-1,51,50,49,-1,276,48,277,-1,277,48,50,-1,277,50,278,-1,278,50,275,-1,278,275,279,-1,279,275,274,-1,279,274,280,-1,280,274,273,-1,280,273,281,-1,281,273,272,-1,281,272,282,-1,282,272,271,-1,282,128,281,-1,281,128,130,-1,281,130,280,-1,280,130,132,-1,280,132,279,-1,279,132,134,-1,279,134,278,-1,278,134,136,-1,278,136,277,-1,277,136,138,-1,277,138,276,-1,276,138,283,-1,47,46,138,-1,138,46,284,-1,138,284,283,-1,43,45,44,-1,44,45,47,-1,44,47,285,-1,285,47,137,-1,285,137,286,-1,286,137,135,-1,286,135,287,-1,287,135,133,-1,287,133,288,-1,288,133,131,-1,288,131,289,-1,289,131,129,-1,290,42,291,-1,291,42,44,-1,291,44,292,-1,292,44,285,-1,292,285,293,-1,293,285,286,-1,293,286,294,-1,294,286,287,-1,294,287,295,-1,295,287,288,-1,295,288,296,-1,296,288,289,-1,296,139,295,-1,295,139,141,-1,295,141,294,-1,294,141,143,-1,294,143,293,-1,293,143,145,-1,293,145,292,-1,292,145,147,-1,292,147,291,-1,291,147,149,-1,291,149,290,-1,290,149,297,-1,41,40,149,-1,149,40,298,-1,149,298,297,-1,299,39,300,-1,300,39,41,-1,300,41,301,-1,301,41,148,-1,301,148,302,-1,302,148,146,-1,302,146,303,-1,303,146,144,-1,303,144,304,-1,304,144,142,-1,304,142,305,-1,305,142,140,-1,305,150,304,-1,304,150,152,-1,304,152,303,-1,303,152,154,-1,303,154,302,-1,302,154,156,-1,302,156,301,-1,301,156,158,-1,301,158,300,-1,300,158,160,-1,300,160,299,-1,299,160,306,-1,38,37,160,-1,160,37,307,-1,160,307,306,-1,34,36,35,-1,35,36,38,-1,35,38,308,-1,308,38,159,-1,308,159,309,-1,309,159,157,-1,309,157,310,-1,310,157,155,-1,310,155,311,-1,311,155,153,-1,311,153,312,-1,312,153,151,-1,313,33,314,-1,314,33,35,-1,314,35,315,-1,315,35,308,-1,315,308,316,-1,316,308,309,-1,316,309,317,-1,317,309,310,-1,317,310,318,-1,318,310,311,-1,318,311,319,-1,319,311,312,-1,319,161,318,-1,318,161,163,-1,318,163,317,-1,317,163,165,-1,317,165,316,-1,316,165,167,-1,316,167,315,-1,315,167,169,-1,315,169,314,-1,314,169,171,-1,314,171,313,-1,313,171,320,-1,32,31,171,-1,171,31,321,-1,171,321,320,-1,322,30,323,-1,323,30,32,-1,323,32,324,-1,324,32,170,-1,324,170,325,-1,325,170,168,-1,325,168,326,-1,326,168,166,-1,326,166,327,-1,327,166,164,-1,327,164,328,-1,328,164,162,-1,328,329,327,-1,327,329,330,-1,327,330,326,-1,326,330,331,-1,326,331,325,-1,325,331,332,-1,325,332,324,-1,324,332,333,-1,324,333,323,-1,323,333,29,-1,323,29,322,-1,322,29,28,-1,334,27,182,-1,182,27,29,-1,182,29,180,-1,180,29,333,-1,180,333,178,-1,178,333,332,-1,178,332,176,-1,176,332,331,-1,176,331,174,-1,174,331,330,-1,174,330,172,-1,172,330,329,-1,26,25,182,-1,182,25,335,-1,182,335,334,-1,336,24,337,-1,337,24,26,-1,337,26,338,-1,338,26,181,-1,338,181,339,-1,339,181,179,-1,339,179,340,-1,340,179,177,-1,340,177,341,-1,341,177,175,-1,341,175,342,-1,342,175,173,-1,342,183,341,-1,341,183,185,-1,341,185,340,-1,340,185,187,-1,340,187,339,-1,339,187,189,-1,339,189,338,-1,338,189,191,-1,338,191,337,-1,337,191,193,-1,337,193,336,-1,336,193,343,-1,23,22,193,-1,193,22,344,-1,193,344,343,-1,19,21,20,-1,20,21,23,-1,20,23,345,-1,345,23,192,-1,345,192,346,-1,346,192,190,-1,346,190,347,-1,347,190,188,-1,347,188,348,-1,348,188,186,-1,348,186,349,-1,349,186,184,-1,350,18,351,-1,351,18,20,-1,351,20,352,-1,352,20,345,-1,352,345,353,-1,353,345,346,-1,353,346,354,-1,354,346,347,-1,354,347,355,-1,355,347,348,-1,355,348,356,-1,356,348,349,-1,356,194,355,-1,355,194,196,-1,355,196,354,-1,354,196,198,-1,354,198,353,-1,353,198,200,-1,353,200,352,-1,352,200,202,-1,352,202,351,-1,351,202,204,-1,351,204,350,-1,350,204,357,-1,17,16,204,-1,204,16,358,-1,204,358,357,-1,359,15,360,-1,360,15,17,-1,360,17,361,-1,361,17,203,-1,361,203,362,-1,362,203,201,-1,362,201,363,-1,363,201,199,-1,363,199,364,-1,364,199,197,-1,364,197,365,-1,365,197,195,-1,365,366,364,-1,364,366,367,-1,364,367,363,-1,363,367,368,-1,363,368,362,-1,362,368,369,-1,362,369,361,-1,361,369,370,-1,361,370,360,-1,360,370,14,-1,360,14,359,-1,359,14,13,-1,371,12,215,-1,215,12,14,-1,215,14,213,-1,213,14,370,-1,213,370,211,-1,211,370,369,-1,211,369,209,-1,209,369,368,-1,209,368,207,-1,207,368,367,-1,207,367,205,-1,205,367,366,-1,11,10,215,-1,215,10,372,-1,215,372,371,-1,373,9,374,-1,374,9,11,-1,374,11,375,-1,375,11,214,-1,375,214,376,-1,376,214,212,-1,376,212,377,-1,377,212,210,-1,377,210,378,-1,378,210,208,-1,378,208,379,-1,379,208,206,-1,379,216,378,-1,378,216,218,-1,378,218,377,-1,377,218,220,-1,377,220,376,-1,376,220,222,-1,376,222,375,-1,375,222,224,-1,375,224,374,-1,374,224,226,-1,374,226,373,-1,373,226,380,-1,8,7,226,-1,226,7,381,-1,226,381,380,-1,4,6,5,-1,5,6,8,-1,5,8,382,-1,382,8,225,-1,382,225,383,-1,383,225,223,-1,383,223,384,-1,384,223,221,-1,384,221,385,-1,385,221,219,-1,385,219,386,-1,386,219,217,-1,387,3,388,-1,388,3,5,-1,388,5,389,-1,389,5,382,-1,389,382,390,-1,390,382,383,-1,390,383,391,-1,391,383,384,-1,391,384,392,-1,392,384,385,-1,392,385,393,-1,393,385,386,-1,393,84,392,-1,392,84,85,-1,392,85,391,-1,391,85,86,-1,391,86,390,-1,390,86,87,-1,390,87,389,-1,389,87,88,-1,389,88,388,-1,388,88,2,-1,388,2,387,-1,387,2,1,-1,71,238,69,-1,69,238,234,-1,69,234,74,-1,74,234,94,-1,74,94,78,-1,78,94,89,-1,78,89,83,-1,83,89,91,-1,83,91,2,-1,2,91,231,-1,2,231,0,-1,
        ]
    }
}
Shape{
    appearance Appearance {
        material  Material {
            diffuseColor 0.7529411764705882 0.7529411764705882 0.7529411764705882
            specularColor 0.3764705882352941 0.3764705882352941 0.3764705882352941
            ambientIntensity 0.7529
            transparency 0.0
            shininess 0.5
        }
    }
    geometry IndexedFaceSet {
        ccw TRUE
        solid FALSE
        coord DEF co Coordinate {
            point [
                -1.2205 -1.1811 0.4724, -1.2205 -1.2205 0.4724, -1.2205 -1.1811 0.7087, -1.2205 -1.2205 0.7087, -1.2205 -1.1798 0.7189, -1.2205 -1.2178 0.729, -1.2205 -1.1758 0.7283, -1.2205 -1.2099 0.748, -1.2205 -1.1696 0.7365, -1.2205 -1.1974 0.7643, -1.2205 -1.1614 0.7428, -1.2205 -1.1811 0.7769, -1.2205 -1.1519 0.7467, -1.2205 -1.1621 0.7847, -1.2205 -1.1417 0.748, -1.2205 -1.1417 0.7874, -1.2205 1.1417 0.748, -1.2205 1.1417 0.7874, -1.2205 1.1505 0.747, -1.2205 1.1593 0.7854, -1.2205 1.1588 0.7441, -1.2205 1.1759 0.7796, -1.2205 1.1663 0.7394, -1.2205 1.1908 0.7702, -1.2205 1.1725 0.7332, -1.2205 1.2033 0.7578, -1.2205 1.1772 0.7257, -1.2205 1.2127 0.7428, -1.2205 1.1801 0.7174, -1.2205 1.2185 0.7262, -1.2205 1.1811 0.7087, -1.2205 1.2205 0.7087, -1.2205 1.1811 0.4724, -1.2205 1.2205 0.4724, 1.2205 1.1811 0.4724, 1.2205 1.2205 0.4724, 1.2205 1.1811 0.7087, 1.2205 1.2205 0.7087, 1.2205 1.1801 0.7174, 1.2205 1.2185 0.7262, 1.2205 1.1772 0.7257, 1.2205 1.2127 0.7428, 1.2205 1.1725 0.7332, 1.2205 1.2033 0.7578, 1.2205 1.1663 0.7394, 1.2205 1.1908 0.7702, 1.2205 1.1588 0.7441, 1.2205 1.1759 0.7796, 1.2205 1.1505 0.747, 1.2205 1.1593 0.7854, 1.2205 1.1417 0.748, 1.2205 1.1417 0.7874, 1.2205 -1.1417 0.748, 1.2205 -1.1417 0.7874, 1.2205 -1.1519 0.7467, 1.2205 -1.1621 0.7847, 1.2205 -1.1614 0.7428, 1.2205 -1.1811 0.7769, 1.2205 -1.1696 0.7365, 1.2205 -1.1974 0.7643, 1.2205 -1.1758 0.7283, 1.2205 -1.2099 0.748, 1.2205 -1.1798 0.7189, 1.2205 -1.2178 0.729, 1.2205 -1.1811 0.7087, 1.2205 -1.2205 0.7087, 1.2205 -1.1811 0.4724, 1.2205 -1.2205 0.4724
            ]
        }
        coordIndex [
            0,1,2,-1,2,1,3,-1,2,3,4,-1,4,3,5,-1,4,5,6,-1,6,5,7,-1,6,7,8,-1,8,7,9,-1,8,9,10,-1,10,9,11,-1,10,11,12,-1,12,11,13,-1,12,13,14,-1,14,13,15,-1,14,15,16,-1,16,15,17,-1,16,17,18,-1,18,17,19,-1,18,19,20,-1,20,19,21,-1,20,21,22,-1,22,21,23,-1,22,23,24,-1,24,23,25,-1,24,25,26,-1,26,25,27,-1,26,27,28,-1,28,27,29,-1,28,29,30,-1,30,29,31,-1,30,31,32,-1,32,31,33,-1,34,35,36,-1,36,35,37,-1,36,37,38,-1,38,37,39,-1,38,39,40,-1,40,39,41,-1,40,41,42,-1,42,41,43,-1,42,43,44,-1,44,43,45,-1,44,45,46,-1,46,45,47,-1,46,47,48,-1,48,47,49,-1,48,49,50,-1,50,49,51,-1,50,51,52,-1,52,51,53,-1,52,53,54,-1,54,53,55,-1,54,55,56,-1,56,55,57,-1,56,57,58,-1,58,57,59,-1,58,59,60,-1,60,59,61,-1,60,61,62,-1,62,61,63,-1,62,63,64,-1,64,63,65,-1,64,65,66,-1,66,65,67,-1,
        ]
    }
}
Shape{
    appearance Appearance {
        material  Material {
            diffuseColor 1.0 1.0 1.0
            specularColor 0.8784313725490196 0.8784313725490196 0.8784313725490196
            ambientIntensity 1.0
            transparency 0.0
            shininess 0.5
        }
    }
    geometry IndexedFaceSet {
        ccw TRUE
        solid FALSE
        coord DEF co Coordinate {
            point [
                -0.7283 1.1811 0.0787, -1.2205 1.1811 0.4724, -0.7283 1.2205 0.0787, -1.2205 1.2205 0.4724
            ]
        }
        coordIndex [
            0,1,2,-1,2,1,3,-1,
        ]
    }
}
Shape{
    appearance Appearance {
        material  Material {
            diffuseColor 0.7529411764705882 0.7529411764705882 0.7529411764705882
            specularColor 0.3764705882352941 0.3764705882352941 0.3764705882352941
            ambientIntensity 0.7529
            transparency 0.0
            shininess 0.5
        }
    }
    geometry IndexedFaceSet {
        ccw TRUE
        solid FALSE
        coord DEF co Coordinate {
            point [
                1.2205 1.1811 0.4724, 0.7283 1.1811 0.0787, 1.2205 1.2205 0.4724, 0.7283 1.2205 0.0787, -1.2205 -1.1811 0.4724, -0.7283 -1.1811 0.0787, -1.2205 -1.2205 0.4724, -0.7283 -1.2205 0.0787, 0.7283 -1.1811 0.0787, 1.2205 -1.1811 0.4724, 0.7283 -1.2205 0.0787, 1.2205 -1.2205 0.4724
            ]
        }
        coordIndex [
            0,1,2,-1,2,1,3,-1,4,5,6,-1,6,5,7,-1,8,9,10,-1,10,9,11,-1,
        ]
    }
}